<?xml version="1.0" encoding="utf-8"?>
<!-- Generator: Adobe Illustrator 16.0.0, SVG Export Plug-In . SVG Version: 6.00 Build 0)  -->
<!DOCTYPE svg PUBLIC "-//W3C//DTD SVG 1.1//EN" "http://www.w3.org/Graphics/SVG/1.1/DTD/svg11.dtd">
<svg version="1.1" id="Layer_1" xmlns="http://www.w3.org/2000/svg" xmlns:xlink="http://www.w3.org/1999/xlink" x="0px" y="0px"
	 width="87.918px" height="113px" viewBox="0 0 87.918 113" enable-background="new 0 0 87.918 113" xml:space="preserve">
<g>
	<g>
		<path d="M43.959,23.646c-14.976,0-27.115,12.14-27.115,27.115c0,14.976,12.14,27.114,27.115,27.114
			c14.975,0,27.115-12.141,27.115-27.114C71.075,35.786,58.935,23.646,43.959,23.646z M49.59,43.265c0,0,0.07-3.26,2.927-3.26
			s2.95,3.259,2.95,3.259v10.025h-5.875L49.59,43.265L49.59,43.265z M32.269,43.294c0,0,0.071-3.26,2.927-3.26
			c2.856,0,2.949,3.259,2.949,3.259v10.025h-5.876V43.294z M44.021,72.176c-7.524,0-13.672-6.836-14.053-15.433
			c-0.013-0.28,28.12-0.234,28.104,0.074C57.661,65.38,51.527,72.176,44.021,72.176z"/>
		<path d="M43.898,19.546c1.356,0,2.456-0.773,2.456-1.729V7.197c0-0.955-1.1-1.729-2.456-1.729s-2.456,0.773-2.456,1.729v10.621
			C41.443,18.771,42.542,19.546,43.898,19.546z"/>
		<path d="M53.228,21.425c1.283,0.443,2.573,0.071,2.888-0.832l3.469-10.038c0.312-0.901-0.476-1.992-1.756-2.436
			c-1.281-0.444-2.574-0.071-2.886,0.832l-3.471,10.038C51.159,19.891,51.946,20.98,53.228,21.425z"/>
		<path d="M60.989,26.012c1.068,0.834,2.411,0.902,2.998,0.15l6.539-8.371c0.588-0.751,0.197-2.039-0.873-2.873
			c-1.068-0.835-2.41-0.902-2.998-0.151l-6.539,8.371C59.529,23.891,59.918,25.176,60.989,26.012z"/>
		<path d="M32.083,20.87c0.312,0.901,1.604,1.273,2.886,0.829c1.282-0.442,2.069-1.532,1.756-2.435l-3.47-10.039
			c-0.313-0.902-1.604-1.273-2.887-0.832c-1.283,0.444-2.068,1.534-1.757,2.437L32.083,20.87z"/>
		<path d="M24.239,26.53c0.588,0.751,1.93,0.685,2.999-0.151c1.068-0.834,1.46-2.121,0.872-2.874l-6.538-8.371
			c-0.588-0.752-1.931-0.685-3,0.149c-1.067,0.834-1.458,2.122-0.87,2.875L24.239,26.53z"/>
	</g>
	<g>
		<path d="M20.363,89.959c0-0.801,0.417-1.053,1.052-1.053h4.219c0.525,0,0.91,0.154,0.91,0.724c0,0.57-0.385,0.724-0.91,0.724
			h-3.473v1.709h3.045c0.471,0,0.844,0.131,0.844,0.689s-0.373,0.689-0.844,0.689h-3.045v1.906h3.561
			c0.525,0,0.908,0.151,0.908,0.725c0,0.568-0.383,0.723-0.908,0.723h-4.307c-0.635,0-1.052-0.252-1.052-1.052V89.959z"/>
		<path d="M29.243,92.73l-1.721-2.574c-0.109-0.165-0.186-0.34-0.186-0.549c0-0.474,0.383-0.844,0.897-0.844
			c0.427,0,0.636,0.252,0.745,0.438l1.305,2.244l1.391-2.244c0.187-0.297,0.34-0.438,0.734-0.438c0.438,0,0.866,0.239,0.866,0.812
			c0,0.153-0.077,0.36-0.165,0.481l-1.83,2.674l1.786,2.684c0.187,0.285,0.296,0.428,0.296,0.636c0,0.581-0.416,0.888-0.92,0.888
			c-0.295,0-0.547-0.063-0.756-0.416L30.241,94.1l-1.557,2.487c-0.152,0.252-0.428,0.351-0.701,0.351
			c-0.525,0-0.865-0.328-0.865-0.768c0-0.186,0.033-0.383,0.241-0.689L29.243,92.73z"/>
		<path d="M37.922,88.721c2.06,0,3.188,1.293,3.188,2.062c0,0.504-0.273,0.811-0.811,0.811c-1.041,0-0.734-1.425-2.377-1.425
			c-1.129,0-2.061,0.978-2.061,2.687c0,1.437,0.57,2.686,2.125,2.686c1.413,0,1.381-1.512,2.246-1.512
			c0.438,0,0.877,0.252,0.877,0.688c0,1.141-1.381,2.27-3.123,2.27c-2.465,0-3.922-1.411-3.922-4.131
			C34.066,90.627,35.381,88.721,37.922,88.721z"/>
		<path d="M42.232,89.662c0-0.536,0.351-0.898,0.897-0.898c0.548,0,0.898,0.362,0.898,0.898v6.377c0,0.537-0.351,0.898-0.898,0.898
			c-0.547,0-0.897-0.361-0.897-0.898V89.662z"/>
		<path d="M47.625,90.418h-1.698c-0.515,0-0.931-0.262-0.931-0.756c0-0.492,0.416-0.756,0.931-0.756h5.192
			c0.516,0,0.932,0.264,0.932,0.756c0,0.494-0.418,0.756-0.932,0.756h-1.697v5.621c0,0.537-0.352,0.898-0.898,0.898
			s-0.898-0.361-0.898-0.898V90.418L47.625,90.418z"/>
		<path d="M53.063,89.959c0-0.801,0.417-1.053,1.053-1.053h4.217c0.526,0,0.91,0.154,0.91,0.724c0,0.57-0.384,0.724-0.91,0.724
			H54.86v1.709h3.045c0.471,0,0.844,0.131,0.844,0.689s-0.373,0.689-0.844,0.689H54.86v1.906h3.561c0.527,0,0.91,0.151,0.91,0.725
			c0,0.568-0.383,0.723-0.91,0.723h-4.305c-0.636,0-1.053-0.252-1.053-1.052V89.959z"/>
		<path d="M60.529,89.959c0-0.801,0.417-1.053,1.052-1.053h2.191c1.961,0,3.758,0.854,3.758,3.943c0,2.498-1.392,3.942-3.791,3.942
			h-2.158c-0.635,0-1.052-0.252-1.052-1.052V89.959L60.529,89.959z M62.327,95.35h1.512c1.436,0,1.896-1.283,1.896-2.498
			c0-1.557-0.592-2.498-1.905-2.498h-1.502V95.35L62.327,95.35z"/>
	</g>
</g>
</svg>
