<?xml version="1.0" encoding="utf-8"?>
<!-- Generator: Adobe Illustrator 16.0.0, SVG Export Plug-In . SVG Version: 6.00 Build 0)  -->
<!DOCTYPE svg PUBLIC "-//W3C//DTD SVG 1.1//EN" "http://www.w3.org/Graphics/SVG/1.1/DTD/svg11.dtd">
<svg version="1.1" id="Layer_1" xmlns="http://www.w3.org/2000/svg" xmlns:xlink="http://www.w3.org/1999/xlink" x="0px" y="0px"
	 width="157.031px" height="68.098px" viewBox="0 0 157.031 68.098" enable-background="new 0 0 157.031 68.098"
	 xml:space="preserve">
<g enable-background="new    ">
	<path fill="#EA5461" d="M91.238,52.952c0.132-0.018,0.258-0.033,0.377-0.041c0.12-0.01,0.252-0.016,0.396-0.016
		c0.126,0,0.249,0.006,0.368,0.016c0.12,0.008,0.252,0.023,0.397,0.041l2.124,6.789c-0.258,0.039-0.51,0.057-0.755,0.057
		c-0.239,0-0.473-0.018-0.699-0.057l-0.378-1.359h-2.247l-0.387,1.359c-0.227,0.039-0.444,0.057-0.651,0.057
		c-0.233,0-0.463-0.018-0.689-0.057L91.238,52.952z M92.749,57.24l-0.784-2.852l-0.821,2.852H92.749z"/>
	<path fill="#EA5461" d="M95.628,52.839c0.227-0.037,0.45-0.057,0.671-0.057c0.214,0,0.434,0.02,0.66,0.057v4.957
		c0,0.195,0.012,0.354,0.033,0.473c0.022,0.119,0.057,0.213,0.104,0.279c0.047,0.066,0.108,0.111,0.184,0.137
		c0.076,0.025,0.17,0.037,0.283,0.037c0.051,0,0.105-0.002,0.165-0.01c0.061-0.006,0.118-0.016,0.175-0.027
		c0.069,0.258,0.104,0.51,0.104,0.756c0,0.049,0,0.096,0,0.137s-0.007,0.086-0.02,0.137c-0.101,0.031-0.222,0.053-0.363,0.066
		c-0.142,0.012-0.272,0.018-0.392,0.018c-0.485,0-0.874-0.133-1.166-0.4c-0.293-0.268-0.439-0.703-0.439-1.309V52.839z"/>
	<path fill="#EA5461" d="M98.697,54.851c0.088-0.02,0.175-0.031,0.26-0.037c0.085-0.008,0.181-0.01,0.288-0.01
		c0.176,0,0.355,0.018,0.538,0.057c0.019,0.031,0.036,0.076,0.052,0.137s0.031,0.125,0.047,0.193
		c0.016,0.07,0.028,0.137,0.038,0.203s0.018,0.121,0.023,0.166c0.057-0.102,0.126-0.201,0.208-0.299s0.181-0.184,0.297-0.26
		c0.117-0.074,0.247-0.137,0.393-0.184c0.145-0.047,0.305-0.07,0.481-0.07c0.271,0,0.523,0.051,0.76,0.15
		c0.236,0.102,0.442,0.254,0.618,0.459c0.177,0.203,0.313,0.461,0.411,0.77s0.146,0.674,0.146,1.094c0,0.41-0.06,0.777-0.18,1.102
		c-0.119,0.324-0.293,0.6-0.52,0.826s-0.503,0.4-0.83,0.523c-0.328,0.123-0.699,0.184-1.114,0.184c-0.107,0-0.213-0.004-0.316-0.014
		c-0.104-0.01-0.19-0.02-0.26-0.033v2.172c-0.12,0.02-0.234,0.031-0.345,0.037c-0.11,0.008-0.219,0.01-0.326,0.01
		c-0.106,0-0.216-0.002-0.325-0.01c-0.11-0.006-0.226-0.018-0.345-0.037V54.851z M100.038,58.702
		c0.17,0.051,0.365,0.076,0.585,0.076c0.391,0,0.689-0.125,0.897-0.377s0.312-0.633,0.312-1.143c0-0.195-0.016-0.377-0.047-0.543
		c-0.032-0.168-0.085-0.311-0.161-0.43c-0.075-0.119-0.172-0.215-0.288-0.283c-0.116-0.07-0.26-0.104-0.43-0.104
		c-0.157,0-0.291,0.029-0.401,0.09c-0.109,0.059-0.199,0.141-0.269,0.244s-0.12,0.227-0.151,0.363
		c-0.031,0.139-0.047,0.287-0.047,0.445V58.702z"/>
	<path fill="#EA5461" d="M104.286,52.839c0.107-0.018,0.218-0.031,0.331-0.037s0.224-0.01,0.33-0.01c0.107,0,0.218,0.004,0.331,0.01
		s0.227,0.02,0.34,0.037v2.598c0.044-0.057,0.103-0.125,0.175-0.203s0.162-0.154,0.269-0.227c0.107-0.072,0.236-0.135,0.388-0.186
		c0.15-0.049,0.324-0.074,0.519-0.074c0.542,0,0.952,0.15,1.232,0.453s0.421,0.777,0.421,1.426v3.125
		c-0.113,0.02-0.228,0.031-0.341,0.037c-0.113,0.008-0.223,0.01-0.33,0.01s-0.217-0.002-0.33-0.01
		c-0.113-0.006-0.227-0.018-0.34-0.037v-2.766c0-0.34-0.054-0.602-0.161-0.785c-0.107-0.182-0.289-0.273-0.548-0.273
		c-0.106,0-0.217,0.016-0.33,0.047s-0.216,0.094-0.307,0.186c-0.092,0.09-0.167,0.219-0.227,0.381
		c-0.061,0.164-0.09,0.379-0.09,0.643v2.568c-0.113,0.02-0.227,0.031-0.34,0.037c-0.113,0.008-0.224,0.01-0.331,0.01
		c-0.106,0-0.216-0.002-0.325-0.01c-0.11-0.006-0.222-0.018-0.336-0.037V52.839z"/>
	<path fill="#EA5461" d="M112.274,56.532c0-0.152-0.024-0.275-0.075-0.369s-0.119-0.168-0.208-0.223
		c-0.088-0.053-0.196-0.09-0.325-0.107c-0.129-0.02-0.272-0.029-0.43-0.029c-0.34,0-0.702,0.066-1.086,0.199
		c-0.088-0.164-0.154-0.318-0.198-0.463s-0.066-0.318-0.066-0.52c0.277-0.094,0.554-0.164,0.831-0.207
		c0.277-0.045,0.535-0.066,0.774-0.066c0.654,0,1.166,0.156,1.534,0.473c0.368,0.314,0.553,0.818,0.553,1.51v2.832
		c-0.221,0.07-0.488,0.137-0.803,0.199c-0.315,0.062-0.671,0.094-1.067,0.094c-0.32,0-0.615-0.027-0.883-0.084
		s-0.497-0.152-0.689-0.283c-0.191-0.133-0.34-0.303-0.443-0.51c-0.104-0.209-0.156-0.463-0.156-0.766s0.064-0.555,0.194-0.76
		c0.129-0.205,0.296-0.369,0.5-0.492c0.204-0.121,0.433-0.209,0.685-0.264c0.252-0.053,0.504-0.08,0.756-0.08
		c0.182,0,0.384,0.01,0.604,0.029V56.532z M112.274,57.503c-0.075-0.012-0.157-0.023-0.245-0.031
		c-0.088-0.01-0.167-0.016-0.236-0.016c-0.309,0-0.552,0.057-0.731,0.166s-0.27,0.287-0.27,0.533c0,0.164,0.035,0.289,0.104,0.377
		c0.069,0.09,0.152,0.154,0.25,0.195s0.201,0.064,0.312,0.074s0.206,0.014,0.288,0.014c0.095,0,0.188-0.008,0.283-0.023
		s0.176-0.029,0.245-0.041V57.503z"/>
</g>
<g enable-background="new    ">
	<path fill="#EA5461" d="M116.277,52.952c0.106-0.012,0.229-0.025,0.368-0.037c0.138-0.012,0.261-0.02,0.368-0.02
		c0.239,0,0.491,0.02,0.755,0.057l1.482,5.354l1.502-5.354c0.126-0.018,0.247-0.031,0.363-0.037s0.234-0.01,0.354-0.01
		c0.113,0,0.228,0.004,0.345,0.01c0.116,0.006,0.237,0.02,0.363,0.037l-2.19,6.789c-0.133,0.02-0.26,0.033-0.383,0.043
		s-0.254,0.014-0.392,0.014c-0.126,0-0.249-0.004-0.368-0.014c-0.12-0.01-0.252-0.023-0.396-0.043L116.277,52.952z"/>
</g>
<g enable-background="new    ">
	<path fill="#EA5461" d="M123.549,57.712c0.025,0.377,0.157,0.65,0.397,0.82c0.238,0.17,0.554,0.256,0.943,0.256
		c0.214,0,0.434-0.02,0.656-0.061c0.224-0.041,0.437-0.1,0.638-0.176c0.069,0.127,0.129,0.277,0.18,0.453
		c0.05,0.176,0.078,0.365,0.085,0.566c-0.491,0.189-1.045,0.283-1.662,0.283c-0.453,0-0.842-0.062-1.166-0.188
		c-0.324-0.127-0.589-0.301-0.793-0.525c-0.205-0.223-0.356-0.488-0.453-0.797c-0.098-0.309-0.146-0.646-0.146-1.012
		c0-0.357,0.05-0.695,0.15-1.01c0.102-0.314,0.251-0.588,0.449-0.82c0.198-0.234,0.443-0.418,0.736-0.553
		c0.293-0.137,0.634-0.203,1.024-0.203c0.34,0,0.642,0.059,0.906,0.18c0.265,0.119,0.489,0.283,0.676,0.49
		c0.186,0.207,0.325,0.455,0.42,0.742c0.095,0.285,0.142,0.592,0.142,0.92c0,0.119-0.005,0.238-0.015,0.354
		c-0.009,0.117-0.021,0.209-0.032,0.279H123.549z M125.466,56.777c-0.013-0.301-0.096-0.545-0.25-0.73s-0.37-0.279-0.646-0.279
		c-0.315,0-0.555,0.088-0.718,0.264c-0.164,0.178-0.262,0.426-0.293,0.746H125.466z"/>
	<path fill="#EA5461" d="M127.789,54.861c0.095-0.02,0.184-0.033,0.269-0.043s0.178-0.014,0.279-0.014
		c0.094,0,0.187,0.006,0.278,0.018c0.091,0.014,0.181,0.029,0.269,0.049c0.02,0.031,0.036,0.076,0.053,0.137
		c0.016,0.059,0.029,0.123,0.042,0.188c0.013,0.066,0.023,0.133,0.033,0.199s0.018,0.121,0.023,0.166
		c0.139-0.195,0.309-0.371,0.51-0.525s0.453-0.23,0.756-0.23c0.062,0,0.135,0.002,0.217,0.01c0.082,0.006,0.142,0.016,0.18,0.027
		c0.013,0.062,0.021,0.137,0.028,0.217c0.006,0.082,0.01,0.168,0.01,0.256c0,0.107-0.005,0.223-0.015,0.35
		c-0.01,0.125-0.026,0.244-0.052,0.357c-0.069-0.012-0.146-0.018-0.231-0.018s-0.137,0-0.156,0c-0.106,0-0.227,0.01-0.358,0.033
		c-0.132,0.021-0.258,0.08-0.378,0.174c-0.119,0.096-0.219,0.236-0.297,0.426c-0.079,0.188-0.118,0.453-0.118,0.793v2.322
		c-0.113,0.02-0.227,0.031-0.34,0.037c-0.113,0.008-0.224,0.01-0.331,0.01c-0.106,0-0.216-0.002-0.325-0.01
		c-0.11-0.006-0.226-0.018-0.345-0.037V54.861z"/>
	<path fill="#EA5461" d="M132.426,57.616c-0.353-0.1-0.628-0.25-0.826-0.447c-0.198-0.199-0.298-0.496-0.298-0.893
		c0-0.479,0.172-0.854,0.515-1.123c0.343-0.271,0.811-0.406,1.402-0.406c0.245,0,0.487,0.021,0.727,0.066
		c0.239,0.043,0.482,0.109,0.728,0.197c-0.013,0.164-0.044,0.334-0.095,0.51c-0.05,0.178-0.11,0.33-0.179,0.463
		c-0.151-0.062-0.318-0.117-0.501-0.164c-0.183-0.049-0.375-0.072-0.576-0.072c-0.214,0-0.381,0.033-0.5,0.1
		c-0.12,0.066-0.18,0.172-0.18,0.316c0,0.139,0.043,0.236,0.128,0.293s0.206,0.109,0.363,0.16l0.538,0.16
		c0.176,0.051,0.335,0.111,0.477,0.184c0.142,0.074,0.263,0.164,0.364,0.27c0.101,0.107,0.179,0.24,0.235,0.396
		c0.057,0.158,0.085,0.35,0.085,0.576c0,0.234-0.049,0.451-0.146,0.652s-0.239,0.375-0.425,0.523s-0.41,0.264-0.675,0.35
		s-0.563,0.127-0.897,0.127c-0.15,0-0.289-0.004-0.415-0.014s-0.247-0.025-0.363-0.047c-0.117-0.021-0.231-0.049-0.345-0.08
		s-0.236-0.072-0.368-0.123c0.013-0.17,0.042-0.342,0.09-0.516c0.047-0.172,0.108-0.34,0.184-0.504
		c0.208,0.082,0.404,0.143,0.59,0.184c0.187,0.041,0.38,0.061,0.581,0.061c0.088,0,0.185-0.008,0.288-0.023s0.2-0.043,0.288-0.084
		s0.162-0.094,0.222-0.16s0.09-0.152,0.09-0.26c0-0.152-0.046-0.26-0.137-0.326c-0.092-0.066-0.219-0.125-0.383-0.174
		L132.426,57.616z"/>
</g>
<g enable-background="new    ">
	<path fill="#EA5461" d="M136.191,55.88h-0.633c-0.02-0.082-0.033-0.168-0.043-0.26c-0.009-0.092-0.014-0.178-0.014-0.26
		c0-0.17,0.019-0.336,0.057-0.5h1.945v4.881c-0.228,0.039-0.447,0.057-0.661,0.057c-0.208,0-0.425-0.018-0.651-0.057V55.88z
		 M135.993,54.038c-0.038-0.213-0.058-0.424-0.058-0.633c0-0.201,0.02-0.412,0.058-0.633c0.106-0.018,0.222-0.033,0.344-0.041
		c0.123-0.01,0.234-0.016,0.336-0.016c0.106,0,0.223,0.006,0.349,0.016c0.126,0.008,0.242,0.023,0.35,0.041
		c0.02,0.107,0.031,0.213,0.038,0.316c0.006,0.105,0.01,0.211,0.01,0.316c0,0.102-0.004,0.205-0.01,0.312
		c-0.007,0.107-0.019,0.213-0.038,0.32c-0.107,0.02-0.222,0.031-0.345,0.039c-0.122,0.006-0.237,0.008-0.345,0.008
		c-0.101,0-0.214-0.002-0.34-0.008C136.216,54.07,136.1,54.058,135.993,54.038z"/>
	<path fill="#EA5461" d="M140.893,59.855c-0.396,0-0.741-0.064-1.033-0.193c-0.293-0.129-0.535-0.309-0.728-0.537
		c-0.192-0.23-0.337-0.5-0.435-0.809s-0.146-0.643-0.146-1c0-0.359,0.049-0.695,0.146-1.01c0.098-0.316,0.242-0.588,0.435-0.818
		c0.192-0.229,0.435-0.41,0.728-0.543c0.292-0.131,0.637-0.197,1.033-0.197s0.743,0.066,1.039,0.197
		c0.296,0.133,0.541,0.314,0.736,0.543c0.195,0.23,0.34,0.502,0.435,0.818c0.095,0.314,0.142,0.65,0.142,1.01
		c0,0.357-0.047,0.691-0.142,1s-0.239,0.578-0.435,0.809c-0.195,0.229-0.44,0.408-0.736,0.537S141.289,59.855,140.893,59.855z
		 M140.893,58.835c0.353,0,0.606-0.131,0.761-0.391c0.154-0.262,0.231-0.639,0.231-1.129c0-0.492-0.077-0.867-0.231-1.129
		s-0.408-0.393-0.761-0.393c-0.346,0-0.596,0.131-0.75,0.393s-0.231,0.637-0.231,1.129c0,0.49,0.077,0.867,0.231,1.129
		C140.297,58.704,140.547,58.835,140.893,58.835z"/>
</g>
<g enable-background="new    ">
	<path fill="#EA5461" d="M144.265,54.861c0.088-0.02,0.176-0.033,0.265-0.043c0.088-0.01,0.186-0.014,0.292-0.014
		c0.107,0,0.202,0.004,0.283,0.014c0.082,0.01,0.167,0.023,0.255,0.043c0.02,0.031,0.036,0.076,0.053,0.137
		c0.016,0.061,0.029,0.123,0.042,0.189c0.013,0.064,0.023,0.131,0.033,0.193s0.018,0.115,0.023,0.16
		c0.062-0.094,0.139-0.189,0.227-0.283s0.19-0.18,0.307-0.256c0.117-0.074,0.247-0.137,0.393-0.184
		c0.145-0.047,0.305-0.07,0.481-0.07c0.554,0,0.971,0.15,1.251,0.453s0.42,0.777,0.42,1.426v3.115
		c-0.227,0.039-0.45,0.057-0.67,0.057c-0.221,0-0.444-0.018-0.671-0.057v-2.756c0-0.34-0.052-0.602-0.155-0.785
		c-0.104-0.182-0.285-0.273-0.543-0.273c-0.107,0-0.218,0.016-0.331,0.047s-0.216,0.094-0.307,0.186
		c-0.091,0.09-0.165,0.219-0.222,0.381c-0.057,0.164-0.085,0.379-0.085,0.643v2.559c-0.227,0.039-0.45,0.057-0.671,0.057
		c-0.22,0-0.443-0.018-0.67-0.057V54.861z"/>
</g>
<g>
	<path fill="#251F21" d="M89.177,14.071c0-0.829,0.642-1.473,1.472-1.473h9.676c0.734,0,1.328,0.595,1.328,1.328
		c0,0.736-0.594,1.327-1.328,1.327h-8.23v4.532h7.164c0.734,0,1.328,0.591,1.328,1.328c0,0.733-0.594,1.328-1.328,1.328h-7.164
		v5.429c0,0.808-0.639,1.448-1.445,1.448c-0.83,0-1.471-0.642-1.471-1.448L89.177,14.071L89.177,14.071z"/>
	<path fill="#251F21" d="M110.145,24.695v-0.854c-0.734-0.286-1.707-0.5-2.847-0.5c-1.849,0-2.94,0.784-2.94,2.087v0.049
		c0,1.209,1.067,1.898,2.444,1.898C108.699,27.376,110.145,26.284,110.145,24.695 M101.561,25.595v-0.046
		c0-2.705,2.11-4.033,5.168-4.033c1.399,0,2.396,0.214,3.368,0.523v-0.311c0-1.776-1.092-2.727-3.104-2.727
		c-1.092,0-1.994,0.189-2.775,0.499c-0.166,0.046-0.309,0.069-0.451,0.069c-0.664,0-1.209-0.521-1.209-1.187
		c0-0.521,0.355-0.971,0.783-1.14c1.186-0.449,2.395-0.734,4.031-0.734c1.873,0,3.271,0.499,4.15,1.399
		c0.926,0.9,1.352,2.229,1.352,3.866v6.166c0,0.781-0.617,1.375-1.4,1.375c-0.83,0-1.398-0.568-1.398-1.211v-0.473
		c-0.854,1.02-2.155,1.826-4.077,1.826C103.646,29.462,101.561,28.109,101.561,25.595"/>
	<path fill="#251F21" d="M114.205,23.011v-0.049c0-3.555,2.75-6.545,6.52-6.545c1.969,0,3.322,0.641,4.389,1.566
		c0.189,0.166,0.451,0.521,0.451,0.994c0,0.734-0.594,1.305-1.33,1.305c-0.354,0-0.662-0.142-0.854-0.284
		c-0.734-0.616-1.541-1.065-2.68-1.065c-2.086,0-3.627,1.804-3.627,3.983v0.046c0,2.231,1.541,4.009,3.746,4.009
		c1.139,0,2.016-0.449,2.799-1.112c0.166-0.145,0.451-0.31,0.781-0.31c0.688,0,1.233,0.569,1.233,1.257
		c0,0.38-0.142,0.687-0.403,0.9c-1.113,1.068-2.465,1.778-4.554,1.778C116.955,29.485,114.205,26.568,114.205,23.011"/>
	<path fill="#251F21" d="M135.24,22.063c-0.189-1.851-1.281-3.299-3.178-3.299c-1.754,0-2.988,1.353-3.25,3.299H135.24z
		 M132.395,29.485c-3.629,0-6.428-2.633-6.428-6.497v-0.05c0-3.579,2.537-6.521,6.119-6.521c3.984,0,5.953,3.272,5.953,6.166
		c0,0.808-0.617,1.377-1.352,1.377h-7.853c0.312,2.038,1.758,3.177,3.606,3.177c1.207,0,2.156-0.427,2.963-1.09
		c0.213-0.167,0.404-0.262,0.736-0.262c0.639,0,1.137,0.498,1.137,1.162c0,0.354-0.166,0.664-0.379,0.877
		C135.764,28.845,134.338,29.485,132.395,29.485"/>
	<path fill="#251F21" d="M140.152,25.739v-6.595h-0.476c-0.688,0-1.231-0.545-1.231-1.232s0.545-1.234,1.231-1.234h0.476v-2.133
		c0-0.782,0.641-1.423,1.444-1.423c0.783,0,1.425,0.641,1.425,1.423v2.133h2.254c0.686,0,1.256,0.548,1.256,1.234
		c0,0.688-0.57,1.232-1.256,1.232h-2.254v6.145c0,1.114,0.567,1.563,1.541,1.563c0.334,0,0.616-0.069,0.713-0.069
		c0.639,0,1.209,0.52,1.209,1.185c0,0.522-0.355,0.947-0.758,1.115c-0.617,0.212-1.211,0.331-1.972,0.331
		C141.646,29.413,140.152,28.49,140.152,25.739"/>
	<path fill="#251F21" d="M147.41,27.945c-0.309-0.167-0.545-0.522-0.545-0.997c0-0.642,0.498-1.163,1.162-1.163
		c0.238,0,0.451,0.074,0.617,0.169c1.209,0.804,2.465,1.208,3.604,1.208c1.234,0,1.945-0.523,1.945-1.354v-0.046
		c0-0.972-1.328-1.305-2.799-1.756c-1.851-0.52-3.912-1.28-3.912-3.676v-0.048c0-2.371,1.967-3.816,4.457-3.816
		c1.328,0,2.729,0.379,3.938,1.021c0.404,0.213,0.688,0.593,0.688,1.089c0,0.664-0.521,1.162-1.186,1.162
		c-0.236,0-0.379-0.046-0.568-0.143c-1.02-0.521-2.062-0.854-2.94-0.854c-1.115,0-1.755,0.521-1.755,1.231v0.048
		c0,0.925,1.351,1.304,2.822,1.778c1.824,0.569,3.89,1.401,3.89,3.652v0.046c0,2.635-2.041,3.938-4.647,3.938
		C150.588,29.437,148.857,28.939,147.41,27.945"/>
	<path fill="#2DB7EA" d="M89.177,33.129c0-0.807,0.642-1.444,1.472-1.444c0.807,0,1.444,0.639,1.444,1.444v7.019l7.875-7.919
		c0.332-0.354,0.688-0.544,1.209-0.544c0.808,0,1.353,0.639,1.353,1.35c0,0.453-0.189,0.783-0.521,1.093l-5.17,4.978l5.598,6.951
		c0.236,0.309,0.402,0.594,0.402,1.043c0,0.809-0.639,1.422-1.471,1.422c-0.568,0-0.926-0.283-1.232-0.688l-5.336-6.807
		l-2.705,2.609v3.438c0,0.809-0.639,1.447-1.445,1.447c-0.83,0-1.471-0.641-1.471-1.447L89.177,33.129L89.177,33.129z"/>
	<path fill="#2DB7EA" d="M104.502,37.185c0-0.809,0.615-1.445,1.422-1.445c0.805,0,1.447,0.639,1.447,1.445v9.912
		c0,0.809-0.643,1.422-1.447,1.422c-0.783,0-1.422-0.613-1.422-1.422V37.185z M104.287,32.514c0-0.854,0.713-1.397,1.637-1.397
		s1.637,0.544,1.637,1.397v0.142c0,0.854-0.713,1.423-1.637,1.423s-1.637-0.569-1.637-1.423V32.514z"/>
	<path fill="#2DB7EA" d="M111.949,42.118v0.047c0,2.42,1.66,4.008,3.604,4.008c1.921,0,3.627-1.613,3.627-4.008v-0.047
		c0-2.42-1.706-4.01-3.627-4.01C113.586,38.109,111.949,39.628,111.949,42.118 M122.006,47.097c0,0.809-0.643,1.424-1.424,1.424
		c-0.809,0-1.447-0.615-1.447-1.424v-0.783c-0.924,1.307-2.23,2.35-4.27,2.35c-2.939,0-5.812-2.35-5.812-6.498v-0.047
		c0-4.152,2.822-6.498,5.812-6.498c2.064,0,3.369,1.018,4.27,2.205v-5.432c0-0.806,0.639-1.423,1.422-1.423
		c0.807,0,1.449,0.617,1.449,1.423V47.097z"/>
	<path fill="#2DB7EA" d="M123.713,47.146c-0.309-0.168-0.545-0.523-0.545-0.996c0-0.643,0.498-1.162,1.162-1.162
		c0.236,0,0.449,0.07,0.615,0.168c1.211,0.803,2.469,1.207,3.606,1.207c1.229,0,1.943-0.523,1.943-1.354v-0.045
		c0-0.973-1.328-1.307-2.8-1.756c-1.85-0.521-3.912-1.279-3.912-3.676v-0.049c0-2.371,1.97-3.816,4.457-3.816
		c1.33,0,2.729,0.381,3.938,1.02c0.402,0.217,0.688,0.596,0.688,1.092c0,0.664-0.521,1.162-1.187,1.162
		c-0.235,0-0.379-0.049-0.567-0.143c-1.021-0.521-2.064-0.854-2.941-0.854c-1.115,0-1.754,0.52-1.754,1.23v0.047
		c0,0.928,1.352,1.307,2.82,1.779c1.826,0.57,3.891,1.4,3.891,3.654V44.7c0,2.635-2.039,3.938-4.648,3.938
		C126.891,48.64,125.158,48.14,123.713,47.146"/>
</g>
<g>
	<polygon fill="#702B71" points="18.023,0 5.654,22.035 35.827,68.098 80.994,29.315 	"/>
	<polygon fill="#EA292B" points="80.993,29.315 73.338,5.312 18.023,0 	"/>
	<polygon fill="#F9CB17" points="35.827,68.098 73.921,53.531 80.993,29.316 	"/>
	<polygon fill="#2DB7EA" points="0.07,48.388 35.827,68.098 5.654,22.035 	"/>
</g>
</svg>
