<?xml version="1.0" encoding="utf-8"?>
<!-- Generator: Adobe Illustrator 16.0.0, SVG Export Plug-In . SVG Version: 6.00 Build 0)  -->
<!DOCTYPE svg PUBLIC "-//W3C//DTD SVG 1.1//EN" "http://www.w3.org/Graphics/SVG/1.1/DTD/svg11.dtd">
<svg version="1.1" id="Layer_1" xmlns="http://www.w3.org/2000/svg" xmlns:xlink="http://www.w3.org/1999/xlink" x="0px" y="0px"
	 width="87.973px" height="113px" viewBox="0 0 87.973 113" enable-background="new 0 0 87.973 113" xml:space="preserve">
<g>
	<g>
		<path d="M24.906,89.656c0-0.536,0.352-0.898,0.896-0.898c0.549,0,0.897,0.362,0.897,0.898v5.621h3.002
			c0.516,0,0.932,0.264,0.932,0.756s-0.416,0.756-0.932,0.756h-3.746c-0.637,0-1.053-0.252-1.053-1.053L24.906,89.656L24.906,89.656
			z"/>
		<path d="M33.368,89.307c0.153-0.406,0.438-0.549,0.876-0.549h0.429c0.404,0,0.769,0.1,0.964,0.658l2.169,6.035
			c0.066,0.176,0.178,0.492,0.178,0.689c0,0.438-0.386,0.786-0.846,0.786c-0.396,0-0.68-0.143-0.812-0.491l-0.461-1.313h-2.894
			L32.5,96.436c-0.12,0.352-0.372,0.491-0.801,0.491c-0.491,0-0.832-0.307-0.832-0.786c0-0.197,0.109-0.517,0.176-0.689
			L33.368,89.307z M34.452,90.709h-0.021l-1.062,3.166h2.104L34.452,90.709z"/>
		<path d="M38.721,89.656c0-0.536,0.353-0.898,0.897-0.898c0.546,0,0.898,0.362,0.898,0.898v4.316c0,1.073,0.603,1.557,1.632,1.557
			c1.028,0,1.633-0.482,1.633-1.557v-4.316c0-0.536,0.352-0.898,0.896-0.898c0.549,0,0.897,0.362,0.897,0.898v4.175
			c0,2.169-1.337,3.146-3.43,3.146c-2.094,0-3.431-0.977-3.431-3.146v-4.175H38.721z"/>
		<path d="M54.569,96.329c0,0.329-0.253,0.603-0.614,0.603c-0.515,0-0.656-0.315-0.767-1.02c-0.517,0.646-1.229,1.062-2.347,1.062
			c-2.78,0-3.847-1.916-3.847-4.132c0-2.661,1.666-4.129,4.108-4.129c1.992,0,3.057,1.191,3.057,1.896
			c0,0.625-0.46,0.789-0.843,0.789c-0.89,0-0.562-1.238-2.312-1.238c-1.235,0-2.213,0.812-2.213,2.805
			c0,1.559,0.77,2.631,2.234,2.631c0.953,0,1.786-0.646,1.873-1.609h-1.172c-0.386,0-0.812-0.145-0.812-0.688
			c0-0.438,0.253-0.688,0.701-0.688h2.213c0.525,0,0.734,0.264,0.734,0.756v2.968h0.004L54.569,96.329L54.569,96.329z"/>
		<path d="M56.183,89.656c0-0.536,0.352-0.898,0.896-0.898c0.546,0,0.898,0.362,0.898,0.898v2.234h3.265v-2.234
			c0-0.536,0.352-0.898,0.898-0.898s0.896,0.362,0.896,0.898v6.377c0,0.537-0.351,0.898-0.896,0.898
			c-0.549,0-0.898-0.361-0.898-0.898v-2.629h-3.265v2.629c0,0.537-0.353,0.898-0.898,0.898c-0.545,0-0.896-0.361-0.896-0.898V89.656
			z"/>
	</g>
	<g>
		<path d="M43.987,23.651c-14.979,0-27.125,12.145-27.125,27.125S29.007,77.9,43.987,77.9c14.981,0,27.125-12.146,27.125-27.125
			S58.968,23.651,43.987,23.651z M53.429,27.115l8.802,8.604l-1.395,1.636l-8.805-8.604L53.429,27.115z M52.668,34.421
			c0,0,2.169,0.473,4.002,1.771c1.857,1.324,3.821,4.842,3.821,4.842s-2.562-2.745-5.097-3.824
			c-2.519-1.073-5.196-1.266-5.196-1.266L52.668,34.421z M38.335,35.943c0,0-2.681,0.193-5.196,1.266
			c-2.534,1.079-5.096,3.824-5.096,3.824s1.962-3.518,3.82-4.842c1.831-1.299,4.002-1.771,4.002-1.771L38.335,35.943z
			 M33.865,27.621l1.397,1.636l-8.803,8.604l-1.396-1.635L33.865,27.621z M44.797,67.426c-13.713,0-18.979-8.639-19.507-18.952
			c-0.013-0.167,9.438-4.101,19.105-4.085c9.844,0.017,19.91,3.987,19.9,4.17C63.725,58.834,58.563,67.426,44.797,67.426z"/>
	</g>
</g>
</svg>
