<?xml version="1.0" encoding="utf-8"?>
<!-- Generator: Adobe Illustrator 16.0.0, SVG Export Plug-In . SVG Version: 6.00 Build 0)  -->
<!DOCTYPE svg PUBLIC "-//W3C//DTD SVG 1.1//EN" "http://www.w3.org/Graphics/SVG/1.1/DTD/svg11.dtd">
<svg version="1.1" id="Layer_1" xmlns="http://www.w3.org/2000/svg" xmlns:xlink="http://www.w3.org/1999/xlink" x="0px" y="0px"
	 width="87.949px" height="113px" viewBox="0 0 87.949 113" enable-background="new 0 0 87.949 113" xml:space="preserve">
<g>
	<path d="M25.563,92.215c1.644,0.371,2.06,1.348,2.06,2.27c0,1.425-1.072,2.484-3.242,2.484c-2.279,0-3.299-1.139-3.299-1.994
		c0-0.438,0.318-0.742,0.756-0.742c0.976,0,0.724,1.425,2.543,1.425c0.931,0,1.445-0.519,1.445-1.041
		c0-0.316-0.152-0.668-0.767-0.821l-2.027-0.515c-1.632-0.417-1.928-1.312-1.928-2.158c0-1.754,1.622-2.41,3.146-2.41
		c1.401,0,3.057,0.788,3.057,1.843c0,0.446-0.385,0.713-0.822,0.713c-0.833,0-0.68-1.175-2.355-1.175
		c-0.832,0-1.293,0.386-1.293,0.933c0,0.549,0.658,0.724,1.228,0.854L25.563,92.215z"/>
	<path d="M32.546,88.709c2.061,0,3.188,1.292,3.188,2.059c0,0.506-0.272,0.812-0.812,0.812c-1.041,0-0.733-1.424-2.377-1.424
		c-1.127,0-2.06,0.977-2.06,2.686c0,1.436,0.57,2.686,2.125,2.686c1.413,0,1.38-1.514,2.246-1.514c0.438,0,0.876,0.252,0.876,0.689
		c0,1.141-1.38,2.27-3.122,2.27c-2.465,0-3.922-1.414-3.922-4.131C28.69,90.615,30.005,88.709,32.546,88.709z"/>
	<path d="M38.621,89.301c0.153-0.406,0.438-0.549,0.877-0.549h0.426c0.406,0,0.768,0.1,0.965,0.658l2.169,6.035
		c0.065,0.176,0.175,0.494,0.175,0.69c0,0.438-0.383,0.789-0.844,0.789c-0.395,0-0.68-0.145-0.811-0.493l-0.461-1.314h-2.892
		l-0.472,1.314c-0.121,0.352-0.373,0.493-0.799,0.493c-0.494,0-0.834-0.31-0.834-0.789c0-0.196,0.109-0.518,0.176-0.69
		L38.621,89.301z M39.705,90.702h-0.021l-1.062,3.167h2.104L39.705,90.702z"/>
	<path d="M44.169,89.945c0-0.799,0.416-1.051,1.051-1.051h2.992c2.135,0,2.705,1.172,2.705,2.188c0,0.854-0.504,1.697-1.358,1.896
		V93c0.92,0.134,1.085,0.802,1.085,1.602c0,0.909,0.24,1.25,0.24,1.623c0,0.416-0.426,0.7-0.842,0.7
		c-0.986,0-1.063-0.952-1.063-1.271c0-1.381-0.252-1.939-1.238-1.939h-1.774v2.312c0,0.535-0.352,0.897-0.898,0.897
		s-0.898-0.362-0.898-0.897V89.945L44.169,89.945z M45.966,92.4h1.797c0.679,0,1.357-0.176,1.357-1.062
		c0-0.844-0.515-1.062-1.304-1.062h-1.853L45.966,92.4L45.966,92.4z"/>
	<path d="M52.335,89.945c0-0.799,0.418-1.051,1.053-1.051h4.218c0.526,0,0.91,0.151,0.91,0.723c0,0.57-0.384,0.725-0.91,0.725
		h-3.474v1.709h3.045c0.472,0,0.845,0.131,0.845,0.689c0,0.558-0.373,0.689-0.845,0.689h-3.045v1.903h3.562
		c0.526,0,0.909,0.153,0.909,0.726c0,0.568-0.383,0.725-0.909,0.725h-4.306c-0.635,0-1.053-0.252-1.053-1.053V89.945z"/>
	<path d="M59.8,89.945c0-0.799,0.418-1.051,1.053-1.051h2.191c1.961,0,3.758,0.854,3.758,3.94c0,2.498-1.393,3.945-3.791,3.945
		h-2.158c-0.635,0-1.053-0.253-1.053-1.056V89.945L59.8,89.945z M61.597,95.336h1.513c1.437,0,1.896-1.281,1.896-2.498
		c0-1.555-0.592-2.496-1.905-2.496h-1.501L61.597,95.336L61.597,95.336z"/>
</g>
<g>
	<path d="M43.974,23.651c-14.975,0-27.115,12.14-27.115,27.115S29,77.879,43.974,77.879S71.089,65.74,71.089,50.766
		S58.948,23.651,43.974,23.651z M50.132,32.842l6.634,4.486l-1.269,1.876l-6.634-4.488L50.132,32.842z M47.097,43.802
		c0,0,0.27-4.75,3.359-4.687c6.432,0.132,3.873,12.512,3.873,12.512v0.02l-7.705-2.29L47.097,43.802z M39.472,43.748l0.472,5.556
		l-7.703,2.29v-0.02c0,0-2.559-12.38,3.872-12.512C39.203,38.998,39.472,43.748,39.472,43.748z M36.368,32.838l1.269,1.875
		L31.005,39.2l-1.27-1.876L36.368,32.838z M43.759,72.617c-8.315,0-15.057-4.521-15.057-10.1c0-5.578,6.741-10.101,15.057-10.101
		s15.057,4.521,15.057,10.101C58.817,68.096,52.076,72.617,43.759,72.617z"/>
</g>
</svg>
