<?xml version="1.0" encoding="utf-8"?>
<!-- Generator: Adobe Illustrator 16.0.0, SVG Export Plug-In . SVG Version: 6.00 Build 0)  -->
<!DOCTYPE svg PUBLIC "-//W3C//DTD SVG 1.1//EN" "http://www.w3.org/Graphics/SVG/1.1/DTD/svg11.dtd">
<svg version="1.1" id="Layer_1" xmlns="http://www.w3.org/2000/svg" xmlns:xlink="http://www.w3.org/1999/xlink" x="0px" y="0px"
	 width="87.979px" height="113px" viewBox="0 0 87.979 113" enable-background="new 0 0 87.979 113" xml:space="preserve">
<g>
	<g>
		<path fill="#702B70" d="M45.872,59.581c-0.158-0.021-0.297-0.054-0.471-0.063c-0.059-0.004-0.104-0.007-0.154-0.01
			c0.055,0.003,0.1,0.006,0.154,0.01C45.573,59.527,45.714,59.561,45.872,59.581z"/>
		<path fill="#702B70" d="M31.379,38.969c0.095-0.07,0.188-0.139,0.283-0.204C31.565,38.83,31.471,38.898,31.379,38.969z"/>
		<path fill="#702B70" d="M30.848,39.407c0.087-0.08,0.178-0.157,0.271-0.232C31.025,39.249,30.936,39.327,30.848,39.407z"/>
		<path fill="#702B70" d="M31.949,38.582c0.099-0.06,0.192-0.12,0.297-0.175C32.145,38.461,32.048,38.522,31.949,38.582z"/>
		<path fill="#702B70" d="M29.524,40.997c0.062-0.104,0.135-0.204,0.2-0.302C29.657,40.794,29.589,40.894,29.524,40.997z"/>
		<path fill="#702B70" d="M32.554,38.25c0.104-0.049,0.202-0.099,0.308-0.144C32.758,38.151,32.657,38.2,32.554,38.25z"/>
		<path fill="#702B70" d="M29.181,41.609c0.056-0.11,0.114-0.216,0.177-0.324C29.297,41.393,29.236,41.499,29.181,41.609z"/>
		<path fill="#702B70" d="M28.892,42.254c0.046-0.115,0.101-0.226,0.146-0.338C28.99,42.028,28.936,42.139,28.892,42.254z"/>
		<path fill="#702B70" d="M33.198,37.977c0.104-0.038,0.203-0.078,0.31-0.11C33.403,37.899,33.302,37.939,33.198,37.977z"/>
		<path fill="#702B70" d="M28.493,43.635c0.021-0.117,0.054-0.229,0.081-0.347C28.547,43.405,28.515,43.518,28.493,43.635z"/>
		<path fill="#702B70" d="M28.662,42.931c0.032-0.119,0.074-0.232,0.114-0.349C28.738,42.698,28.696,42.812,28.662,42.931z"/>
		<path fill="#702B70" d="M29.918,40.425c0.073-0.097,0.148-0.189,0.229-0.282C30.068,40.235,29.991,40.328,29.918,40.425z"/>
		<path fill="#702B70" d="M30.361,39.893c0.08-0.088,0.163-0.174,0.247-0.257C30.524,39.719,30.441,39.805,30.361,39.893z"/>
		<path fill="#702B70" d="M29.098,48.48c-0.001-0.002-0.002-0.003-0.003-0.005c0.139,0.292,0.292,0.574,0.463,0.845l-0.001-0.001
			C29.387,49.051,29.235,48.771,29.098,48.48z"/>
		<path fill="#702B70" d="M28.711,47.479c-0.001-0.003-0.002-0.005-0.003-0.008c0.1,0.318,0.212,0.628,0.351,0.927
			c-0.002-0.001-0.002-0.001-0.002-0.002C28.921,48.101,28.808,47.794,28.711,47.479z"/>
		<path fill="#702B70" d="M33.879,37.767c0.104-0.026,0.2-0.055,0.303-0.076C34.079,37.712,33.979,37.741,33.879,37.767z"/>
		<path fill="#702B70" d="M28.449,46.349c0-0.003-0.004-0.005-0.004-0.009c0.052,0.333,0.123,0.659,0.216,0.976
			c-0.001-0.002-0.001-0.005-0.002-0.007C28.57,46.997,28.499,46.677,28.449,46.349z"/>
		<path fill="#702B70" d="M28.351,45.132c0-0.262,0.016-0.52,0.037-0.775c0.009-0.088,0.024-0.173,0.036-0.261
			C28.382,44.435,28.35,44.78,28.351,45.132c-0.001,0.364,0.029,0.718,0.077,1.067c-0.001-0.005-0.001-0.01-0.001-0.015
			C28.382,45.84,28.351,45.49,28.351,45.132z"/>
		<path fill="#702B70" d="M29.604,49.396c0.125,0.194,0.259,0.382,0.398,0.562C29.862,49.778,29.729,49.59,29.604,49.396
			L29.604,49.396z"/>
		<path fill="#702B70" d="M34.611,37.622c0.091-0.013,0.179-0.031,0.27-0.04C34.787,37.591,34.7,37.609,34.611,37.622z"/>
		<path fill="#702B70" d="M35.594,37.544c-0.005,0-0.011,0.001-0.016,0.001C35.584,37.545,35.589,37.544,35.594,37.544
			L35.594,37.544z"/>
		<path fill="#702B70" d="M40.921,59.723c0.057,0.004,0.1,0.006,0.152,0.008C41.022,59.729,40.977,59.727,40.921,59.723
			c-2.852-0.205-2.443-0.815-5.091-3.058c-1.741-1.472-2.954-1.801-3.581-1.855c0.627,0.055,1.84,0.385,3.579,1.855
			C38.475,58.906,38.07,59.518,40.921,59.723z"/>
		<path fill="#702B70" d="M35.594,52.721L35.594,52.721c-0.03,0-0.062-0.003-0.097-0.005C35.529,52.718,35.561,52.721,35.594,52.721
			z"/>
		<path fill="#702B70" d="M47.329,59.921c1.574,0.603,2.146,1.632,2.146,1.632s-2.688,1.969-5.68,2.053
			c2.993-0.082,5.682-2.053,5.682-2.053S48.906,60.521,47.329,59.921z"/>
		<path fill="#702B70" d="M58.146,41.75c0-0.937-0.545-1.739-1.318-2.083C57.601,40.01,58.146,40.812,58.146,41.75z"/>
		<path fill="#702B70" d="M56.419,43.965c0.982-0.21,1.725-1.123,1.725-2.215C58.146,42.843,57.404,43.754,56.419,43.965z"/>
		<path fill="#702B70" d="M58.517,42.846c0-0.805-0.229-1.55-0.627-2.172C58.284,41.296,58.517,42.042,58.517,42.846z"/>
		<path fill="#702B70" d="M54.995,38.94L54.995,38.94c-0.447-0.114-0.916-0.181-1.4-0.181c0.482,0,0.951,0.067,1.396,0.181
			C54.991,38.94,54.993,38.94,54.995,38.94z"/>
		<path fill="#702B70" d="M41.033,42.013c0,1.248-0.97,2.26-2.158,2.26c-0.599,0-1.139-0.252-1.527-0.662
			c0.396,0.409,0.936,0.663,1.528,0.663C40.066,44.274,41.034,43.262,41.033,42.013c0.001-0.101-0.019-0.2-0.028-0.297
			c-0.001-0.002-0.001-0.005-0.002-0.007C41.015,41.809,41.033,41.909,41.033,42.013z"/>
		<path fill="#702B70" d="M40.992,41.584c0.553,0.949,0.879,2.057,0.879,3.25c0,3.455-2.673,6.255-5.974,6.255
			c-1.647,0-3.145-0.7-4.226-1.832c1.081,1.132,2.573,1.834,4.227,1.834c3.301,0,5.974-2.802,5.974-6.256
			C41.872,43.642,41.546,42.534,40.992,41.584c-0.116-0.637-0.491-1.178-1.005-1.503C40.5,40.407,40.875,40.947,40.992,41.584z"/>
		<path fill="#702B70" d="M39.317,51.634c0,0,0.001-0.001,0.002-0.001c0.311-0.194,0.605-0.405,0.886-0.645
			C39.926,51.228,39.627,51.439,39.317,51.634z"/>
		<path fill="#702B70" d="M38.213,52.202c0.001,0,0.002,0,0.003-0.001c0.338-0.137,0.664-0.3,0.978-0.486
			c0,0,0.001-0.001,0.002-0.001C38.88,51.9,38.552,52.065,38.213,52.202z"/>
		<path fill="#702B70" d="M35.804,52.71c0.814-0.024,1.597-0.192,2.321-0.475c0.001,0,0.003-0.001,0.004-0.002
			C37.401,52.517,36.62,52.685,35.804,52.71z"/>
		<path fill="#702B70" d="M33.66,42.769c0,1.086,0.421,2.069,1.101,2.78C34.082,44.838,33.661,43.855,33.66,42.769
			c0.001-2.17,1.683-3.931,3.755-3.931c0.096,0,0.188,0.023,0.284,0.03c-0.004,0-0.006-0.001-0.008-0.001
			c-0.096-0.007-0.187-0.029-0.276-0.029C35.342,38.837,33.66,40.599,33.66,42.769z"/>
		<path fill="#702B70" d="M35.497,52.716c0.03,0.002,0.062,0.005,0.098,0.005c-0.066,0-0.135-0.009-0.201-0.011
			C35.427,52.711,35.463,52.713,35.497,52.716z"/>
		<path fill="#702B70" d="M32.866,38.104c-0.004,0.001-0.005,0.001-0.007,0.002c-0.104,0.044-0.202,0.095-0.308,0.144
			c-0.004,0.002-0.008,0.004-0.012,0.006C32.65,38.204,32.757,38.151,32.866,38.104z"/>
		<path fill="#702B70" d="M32.252,38.403c-0.002,0.001-0.004,0.002-0.006,0.003c-0.104,0.055-0.198,0.116-0.297,0.175
			c-0.006,0.002-0.01,0.005-0.015,0.007C32.042,38.525,32.145,38.461,32.252,38.403z"/>
		<path fill="#702B70" d="M30.152,40.134c-0.002,0.003-0.005,0.006-0.009,0.009c-0.075,0.092-0.15,0.185-0.228,0.282
			c-0.001,0.002-0.003,0.004-0.004,0.006C29.99,40.329,30.071,40.231,30.152,40.134z"/>
		<path fill="#702B70" d="M33.51,37.866c-0.001,0-0.002,0-0.003,0c-0.104,0.033-0.206,0.073-0.312,0.11
			c-0.002,0.001-0.006,0.003-0.01,0.004C33.296,37.942,33.401,37.9,33.51,37.866z"/>
		<path fill="#702B70" d="M30.617,39.627c-0.005,0.002-0.008,0.005-0.011,0.008c-0.084,0.083-0.167,0.169-0.247,0.257
			c-0.002,0.002-0.004,0.005-0.006,0.007C30.44,39.807,30.527,39.717,30.617,39.627z"/>
		<path fill="#702B70" d="M28.576,43.282c-0.001,0.002-0.001,0.004-0.002,0.007c-0.027,0.116-0.062,0.229-0.081,0.347l0,0
			C28.515,43.516,28.548,43.399,28.576,43.282z"/>
		<path fill="#702B70" d="M31.124,39.168c-0.002,0.002-0.005,0.004-0.008,0.006c-0.093,0.075-0.184,0.153-0.271,0.232
			c-0.003,0.002-0.006,0.005-0.009,0.007C30.932,39.329,31.028,39.247,31.124,39.168z"/>
		<path fill="#702B70" d="M31.67,38.76c-0.003,0.001-0.006,0.003-0.008,0.005c-0.099,0.065-0.188,0.134-0.283,0.204
			c-0.003,0.002-0.006,0.005-0.009,0.007C31.468,38.902,31.567,38.828,31.67,38.76z"/>
		<path fill="#702B70" d="M29.045,41.907c-0.003,0.003-0.004,0.006-0.005,0.008c-0.05,0.112-0.104,0.223-0.146,0.338v0.001
			C28.938,42.137,28.992,42.022,29.045,41.907z"/>
		<path fill="#702B70" d="M29.362,41.276c-0.001,0.003-0.003,0.006-0.005,0.009c-0.062,0.107-0.121,0.213-0.177,0.324
			c-0.001,0.001-0.001,0.002-0.003,0.003C29.237,41.498,29.3,41.388,29.362,41.276z"/>
		<path fill="#702B70" d="M28.781,42.575c-0.001,0.002-0.002,0.005-0.003,0.007c-0.04,0.116-0.082,0.23-0.114,0.349v0.001
			C28.697,42.811,28.74,42.694,28.781,42.575z"/>
		<path fill="#702B70" d="M35.594,37.544c-0.006,0-0.011,0.001-0.017,0.001l0,0C35.584,37.545,35.589,37.544,35.594,37.544z"/>
		<path fill="#702B70" d="M34.183,37.69c-0.002,0-0.003,0-0.003,0c-0.103,0.021-0.199,0.05-0.302,0.076
			c-0.004,0-0.008,0.001-0.012,0.002C33.974,37.742,34.077,37.712,34.183,37.69z"/>
		<path fill="#702B70" d="M29.733,40.685c-0.003,0.003-0.006,0.007-0.009,0.01c-0.065,0.1-0.138,0.199-0.2,0.302
			c-0.001,0.001-0.002,0.003-0.003,0.005C29.589,40.894,29.661,40.789,29.733,40.685z"/>
		<path fill="#702B70" d="M34.879,37.582L34.879,37.582c-0.091,0.009-0.179,0.027-0.27,0.04c-0.002,0-0.005,0.001-0.007,0.001
			C34.695,37.61,34.785,37.592,34.879,37.582z"/>
		<path fill="#702B70" d="M29.056,48.396c-0.137-0.294-0.248-0.603-0.347-0.917C28.808,47.794,28.921,48.101,29.056,48.396z"/>
		<path fill="#702B70" d="M29.604,49.396c0.125,0.193,0.258,0.382,0.397,0.562c0.045,0.055,0.097,0.104,0.142,0.159
			C29.952,49.886,29.768,49.649,29.604,49.396z"/>
		<path fill="#702B70" d="M29.557,49.318c-0.169-0.269-0.321-0.547-0.459-0.838C29.235,48.771,29.387,49.051,29.557,49.318z"/>
		<path fill="#702B70" d="M30.379,50.379c0.062,0.067,0.117,0.141,0.185,0.206c0.065,0.069,0.143,0.131,0.212,0.196
			c0.021,0.021,0.045,0.04,0.064,0.061C30.679,50.694,30.526,50.541,30.379,50.379z"/>
		<path fill="#702B70" d="M32.033,51.726c0.056,0.034,0.108,0.068,0.169,0.101c0.107,0.062,0.223,0.119,0.337,0.175
			c0.015,0.007,0.028,0.013,0.045,0.021C32.395,51.931,32.212,51.832,32.033,51.726z"/>
		<path fill="#702B70" d="M28.427,46.185c-0.047-0.345-0.076-0.695-0.076-1.053C28.351,45.49,28.382,45.84,28.427,46.185z"/>
		<path fill="#702B70" d="M31.104,51.076c0.022,0.02,0.046,0.042,0.068,0.061c0.097,0.078,0.196,0.149,0.298,0.222
			c0.062,0.043,0.12,0.084,0.183,0.125C31.466,51.355,31.281,51.221,31.104,51.076z"/>
		<path fill="#702B70" d="M28.659,47.31c-0.091-0.312-0.16-0.633-0.21-0.96C28.499,46.677,28.57,46.997,28.659,47.31z"/>
		<path fill="#702B70" d="M29.056,48.396c0,0.001,0,0.001,0,0.002c0.013,0.025,0.025,0.051,0.038,0.077
			c0.002,0.002,0.003,0.003,0.004,0.005C29.085,48.453,29.068,48.424,29.056,48.396z"/>
		<path fill="#702B70" d="M28.427,46.185c0,0.005,0,0.01,0,0.015c0.007,0.047,0.013,0.094,0.021,0.14
			c0,0.003,0.002,0.006,0.002,0.009C28.44,46.294,28.434,46.24,28.427,46.185z"/>
		<path fill="#702B70" d="M28.659,47.31c0.001,0.002,0.001,0.004,0.002,0.007c0.015,0.052,0.029,0.104,0.047,0.156
			c0.001,0.003,0.002,0.005,0.003,0.008C28.693,47.422,28.676,47.367,28.659,47.31z"/>
		<path fill="#702B70" d="M29.557,49.318L29.557,49.318c0.02,0.026,0.029,0.052,0.047,0.076l0,0
			C29.588,49.371,29.573,49.344,29.557,49.318z"/>
		<path fill="#702B70" d="M53.568,37.484c4,0,7.24,3.397,7.24,7.589c0,4.192-3.24,7.589-7.24,7.589c4.002,0,7.242-3.398,7.242-7.588
			C60.812,40.882,57.57,37.484,53.568,37.484z"/>
		<path fill="#702B70" d="M46.423,46.251L46.423,46.251c0.008,0.053,0.014,0.106,0.021,0.159l0,0
			C46.437,46.357,46.431,46.304,46.423,46.251z"/>
		<polygon fill="#702B70" points="46.327,45.074 46.327,45.074 46.327,45.075 		"/>
		<path fill="#702B70" d="M46.695,47.411C46.695,47.412,46.695,47.412,46.695,47.411c0.023,0.084,0.051,0.168,0.076,0.25l0,0
			C46.741,47.58,46.72,47.495,46.695,47.411z"/>
		<path fill="#702B70" d="M29.927,44.834c0,1.728,0.67,3.291,1.749,4.423c1.081,1.131,2.574,1.832,4.226,1.832
			c3.301,0,5.974-2.801,5.974-6.255c0-1.192-0.326-2.3-0.879-3.25c-0.117-0.637-0.492-1.177-1.003-1.503
			c-0.324-0.208-0.705-0.33-1.113-0.33c-1.192,0-2.161,1.012-2.161,2.263c0,0.625,0.242,1.189,0.633,1.598
			c0.395,0.408,0.935,0.662,1.527,0.662c1.188,0,2.158-1.012,2.158-2.26c0-0.104-0.021-0.205-0.03-0.305
			c0.001,0.002,0.001,0.004,0.002,0.007c-0.001-0.002-0.001-0.004-0.001-0.006c0.099,0.339,0.164,0.689,0.164,1.06
			c0,2.171-1.68,3.932-3.752,3.932c-1.037,0-1.978-0.44-2.655-1.153c-0.68-0.71-1.101-1.693-1.101-2.78
			c0-2.17,1.682-3.932,3.754-3.932c0.095,0,0.186,0.022,0.277,0.029c-0.564-0.187-1.168-0.289-1.793-0.289
			C32.6,38.578,29.927,41.378,29.927,44.834z"/>
		<path fill="#702B70" d="M29.927,44.834c0-3.456,2.675-6.256,5.976-6.256c0.625,0,1.229,0.103,1.793,0.289c0.001,0,0.005,0,0.007,0
			c-0.566-0.188-1.174-0.29-1.801-0.29c-3.301,0-5.977,2.801-5.977,6.256c0,1.728,0.669,3.292,1.751,4.424
			C30.595,48.125,29.927,46.561,29.927,44.834z"/>
		<path fill="#702B70" d="M41.168,42.77c0-0.371-0.067-0.721-0.164-1.06c0,0.002,0,0.004,0.001,0.006
			C41.1,42.052,41.167,42.4,41.168,42.77c-0.001,2.17-1.683,3.931-3.753,3.931c-1.037,0-1.977-0.439-2.654-1.152
			c0.682,0.712,1.618,1.153,2.654,1.153C39.488,46.701,41.168,44.941,41.168,42.77z"/>
		<path fill="#702B70" d="M38.876,39.751c0.408,0,0.788,0.122,1.111,0.33C39.664,39.873,39.283,39.75,38.876,39.751
			c-1.194-0.001-2.162,1.011-2.162,2.262c0,0.625,0.243,1.189,0.634,1.599c-0.391-0.41-0.633-0.974-0.633-1.598
			C36.715,40.764,37.682,39.751,38.876,39.751z"/>
		<path fill="#702B70" d="M59.568,45.015c0-1.688-0.641-3.215-1.68-4.341c0.396,0.622,0.629,1.367,0.629,2.172
			c0,2.17-1.682,3.932-3.754,3.932s-3.756-1.762-3.756-3.932c0-2.17,1.684-3.932,3.756-3.932c0.078,0,0.152,0.021,0.23,0.025
			c-0.447-0.114-0.916-0.181-1.398-0.181c-0.412,0-0.814,0.043-1.203,0.127c-0.34,0.073-0.67,0.176-0.982,0.308
			c-2.219,0.916-3.781,3.178-3.781,5.822c0,3.456,2.672,6.256,5.971,6.256c0.207,0,0.41-0.011,0.611-0.032
			C57.218,50.919,59.568,48.253,59.568,45.015z"/>
		<path fill="#702B70" d="M51.406,39.193c-2.217,0.915-3.779,3.177-3.779,5.822C47.622,42.371,49.189,40.108,51.406,39.193z"/>
		<path fill="#702B70" d="M54.206,51.239c3.012-0.32,5.359-2.984,5.359-6.224C59.568,48.253,57.218,50.919,54.206,51.239z"/>
		<polygon fill="#702B70" points="54.993,38.94 54.995,38.94 54.991,38.94 		"/>
		<path fill="#702B70" d="M54.765,38.915c0.078,0,0.152,0.02,0.229,0.025l0,0C54.917,38.934,54.843,38.915,54.765,38.915z"/>
		<path fill="#702B70" d="M53.825,41.75c0,1.249,0.971,2.262,2.156,2.262c0.148,0,0.295-0.016,0.438-0.046
			c0.98-0.21,1.725-1.123,1.725-2.215c0-0.937-0.545-1.739-1.316-2.083c-0.26-0.114-0.543-0.178-0.844-0.178
			C54.796,39.489,53.825,40.5,53.825,41.75z"/>
		<path fill="#702B70" d="M53.825,41.75c0,1.25,0.969,2.262,2.156,2.262C54.796,44.011,53.825,42.998,53.825,41.75z"/>
		<path fill="#702B70" d="M53.825,41.75c0-1.249,0.971-2.261,2.156-2.261C54.792,39.489,53.825,40.5,53.825,41.75z"/>
		<path fill="#702B70" d="M43.992,23.796c-14.977,0-27.111,12.139-27.111,27.113c0,1.409,0.104,2.795,0.312,4.148
			c0.261-0.756,0.753-1.309,1.647-1.436c0.462-0.066,0.878-0.12,1.258-0.12c1.036,0,1.656,0.424,2.44,1.209
			c0.563,0.566,1.543,1.974,2.679,3.604c1.092,1.57,2.329,3.354,2.963,3.984c0.664,0.668,1.032,1.294,1.357,1.852
			c0.372,0.633,0.69,1.178,1.414,1.798c0.896,0.77,1.564,0.905,2.676,1.138c0.521,0.107,1.107,0.23,1.812,0.441
			c0.604,0.183,1.18,0.312,1.731,0.437c1.413,0.32,2.748,0.622,3.976,1.675c0.158,0.139,0.323,0.272,0.487,0.407
			c1.378,1.146,3.097,2.567,2.112,5.026c-0.425,1.056-0.922,2.018-1.49,2.89c0.572,0.035,1.146,0.062,1.729,0.062
			c14.976,0,27.111-12.139,27.111-27.109C71.105,35.936,58.966,23.796,43.992,23.796z M30.561,50.585
			c-0.079-0.081-0.149-0.167-0.229-0.25c-0.062-0.066-0.119-0.133-0.179-0.202c-0.05-0.059-0.104-0.113-0.151-0.174
			c-0.144-0.18-0.273-0.369-0.398-0.562c-0.018-0.024-0.027-0.05-0.046-0.075c-0.171-0.271-0.324-0.551-0.463-0.845
			c-0.014-0.026-0.026-0.052-0.039-0.077c-0.138-0.298-0.25-0.608-0.35-0.927c-0.018-0.052-0.031-0.104-0.047-0.156
			c-0.093-0.317-0.164-0.643-0.217-0.976c-0.007-0.046-0.013-0.093-0.019-0.14c-0.048-0.349-0.078-0.705-0.078-1.067
			c0-0.352,0.03-0.696,0.074-1.037c0.021-0.149,0.037-0.299,0.062-0.447c0.001-0.004,0.003-0.009,0.004-0.014
			c0.021-0.117,0.056-0.229,0.081-0.347c0.028-0.12,0.056-0.241,0.09-0.358c0.032-0.119,0.074-0.232,0.114-0.349
			c0.036-0.11,0.071-0.22,0.113-0.329c0.045-0.115,0.097-0.226,0.146-0.338c0.048-0.104,0.092-0.207,0.144-0.306
			c0.056-0.11,0.114-0.216,0.177-0.324c0.057-0.097,0.106-0.194,0.167-0.288c0.062-0.104,0.133-0.204,0.2-0.302
			c0.062-0.091,0.126-0.182,0.191-0.27c0.071-0.097,0.148-0.189,0.228-0.282c0.07-0.084,0.146-0.168,0.218-0.25
			c0.08-0.088,0.163-0.173,0.247-0.257c0.078-0.078,0.157-0.154,0.239-0.229c0.087-0.08,0.178-0.157,0.269-0.232
			c0.086-0.071,0.176-0.139,0.265-0.207c0.095-0.07,0.188-0.139,0.283-0.204c0.094-0.064,0.188-0.124,0.285-0.183
			c0.101-0.06,0.194-0.12,0.299-0.175c0.103-0.055,0.203-0.105,0.311-0.156c0.103-0.049,0.201-0.099,0.307-0.144
			c0.11-0.047,0.227-0.089,0.338-0.13c0.104-0.038,0.204-0.078,0.311-0.11c0.122-0.038,0.247-0.068,0.372-0.1
			c0.103-0.026,0.199-0.055,0.303-0.076c0.145-0.029,0.285-0.048,0.431-0.069c0.091-0.013,0.178-0.031,0.27-0.04
			c0.229-0.023,0.463-0.036,0.699-0.037c0.005,0,0.011-0.001,0.016-0.001c0,0,0,0,0.001,0c4.001,0,7.245,3.397,7.245,7.588
			c0,0.28-0.017,0.556-0.045,0.827c-0.009,0.089-0.025,0.175-0.038,0.265c-0.024,0.181-0.052,0.361-0.089,0.539
			c-0.021,0.102-0.048,0.2-0.073,0.3c-0.04,0.16-0.083,0.317-0.132,0.473c-0.032,0.102-0.068,0.201-0.104,0.301
			c-0.056,0.148-0.109,0.295-0.176,0.439c-0.041,0.097-0.086,0.192-0.132,0.287c-0.067,0.143-0.143,0.28-0.22,0.417
			c-0.05,0.089-0.102,0.179-0.153,0.265c-0.085,0.138-0.177,0.271-0.271,0.402c-0.059,0.077-0.107,0.156-0.164,0.23
			c-0.109,0.142-0.229,0.277-0.346,0.411c-0.052,0.057-0.099,0.116-0.146,0.171c-0.427,0.453-0.909,0.844-1.435,1.173
			c-0.043,0.027-0.085,0.056-0.128,0.082c-0.312,0.187-0.64,0.35-0.978,0.486c-0.028,0.012-0.062,0.023-0.09,0.035
			c-0.789,0.309-1.642,0.485-2.531,0.485c-0.001,0-0.001,0-0.001,0c-0.031,0-0.062-0.003-0.097-0.005
			c-0.041-0.003-0.082-0.005-0.124-0.007c-0.176-0.005-0.351-0.009-0.521-0.027c-0.004,0-0.008-0.001-0.01-0.002
			c-0.079-0.008-0.152-0.026-0.229-0.037c-0.021-0.004-0.039-0.006-0.062-0.009c-0.233-0.036-0.467-0.083-0.693-0.141
			c-0.028-0.008-0.062-0.017-0.092-0.024c-0.105-0.03-0.221-0.053-0.325-0.088c-0.104-0.033-0.199-0.076-0.3-0.115
			c-0.044-0.016-0.084-0.032-0.126-0.048c-0.057-0.022-0.111-0.041-0.168-0.064c-0.022-0.01-0.05-0.018-0.071-0.028
			c-0.082-0.036-0.154-0.084-0.234-0.123c-0.114-0.057-0.229-0.115-0.337-0.175c-0.101-0.056-0.199-0.108-0.298-0.168
			c-0.046-0.028-0.091-0.058-0.137-0.087c-0.104-0.065-0.199-0.141-0.299-0.212c-0.102-0.073-0.201-0.144-0.298-0.222
			c-0.048-0.039-0.096-0.076-0.145-0.116c-0.055-0.045-0.104-0.097-0.153-0.143c-0.035-0.032-0.068-0.064-0.104-0.098
			C30.702,50.715,30.629,50.654,30.561,50.585z M43.797,63.604c-0.429,0.015-0.861-0.015-1.295-0.09
			c-3.465-0.611-7.083-1.146-10.751-8.684c0,0,0.089-0.025,0.268-0.029c0.063-0.001,0.146,0.001,0.23,0.008
			c0.627,0.054,1.84,0.384,3.581,1.855c2.646,2.238,2.239,2.852,5.092,3.057c0.057,0.004,0.101,0.006,0.151,0.01
			c2.585,0.162,1.392-0.393,4.174-0.224c0.055,0.003,0.1,0.005,0.154,0.009c0.174,0.012,0.312,0.045,0.471,0.064
			c0.551,0.072,1.049,0.184,1.457,0.34c1.574,0.602,2.146,1.632,2.146,1.632S46.788,63.521,43.797,63.604z M53.568,52.662
			c-0.201,0-0.402-0.012-0.604-0.032c-0.045-0.004-0.092-0.002-0.135-0.007c-0.143-0.015-0.275-0.043-0.412-0.066
			c-0.104-0.017-0.205-0.027-0.311-0.049c-0.047-0.01-0.088-0.03-0.133-0.041c-0.279-0.066-0.551-0.154-0.814-0.253
			c-0.092-0.033-0.188-0.057-0.271-0.094c-0.344-0.144-0.676-0.316-0.99-0.512c-0.094-0.058-0.178-0.129-0.27-0.191
			c-0.217-0.149-0.434-0.304-0.633-0.478c-0.115-0.099-0.223-0.207-0.33-0.313c-0.158-0.156-0.312-0.314-0.459-0.483
			c-0.059-0.063-0.121-0.118-0.174-0.184c-0.02-0.02-0.035-0.038-0.053-0.059c-0.045-0.055-0.082-0.116-0.125-0.173
			c-0.021-0.027-0.035-0.061-0.057-0.089c-0.135-0.188-0.254-0.387-0.371-0.589c-0.061-0.104-0.135-0.199-0.189-0.306
			c-0.014-0.025-0.023-0.05-0.037-0.075c-0.16-0.311-0.301-0.633-0.416-0.966c-0.008-0.014-0.012-0.028-0.018-0.042
			c-0.025-0.083-0.051-0.167-0.076-0.25c-0.102-0.327-0.188-0.659-0.248-1.001c-0.01-0.052-0.014-0.105-0.021-0.158
			c-0.061-0.383-0.096-0.776-0.096-1.177l0,0l0,0c0-4.191,3.238-7.589,7.238-7.589c4.002,0,7.242,3.397,7.242,7.59
			C60.812,49.264,57.57,52.662,53.568,52.662z"/>
		<path fill="#702B70" d="M33.869,37.769c-0.12,0.031-0.241,0.06-0.358,0.097C33.628,37.829,33.749,37.8,33.869,37.769z"/>
		<path fill="#702B70" d="M30.354,39.9c-0.066,0.076-0.138,0.154-0.202,0.233C30.219,40.054,30.286,39.976,30.354,39.9z"/>
		<path fill="#702B70" d="M33.188,37.981c-0.105,0.041-0.218,0.078-0.32,0.124C32.973,38.059,33.081,38.021,33.188,37.981z"/>
		<path fill="#702B70" d="M29.914,40.431c-0.062,0.083-0.122,0.168-0.183,0.253C29.792,40.599,29.851,40.514,29.914,40.431z"/>
		<path fill="#702B70" d="M34.604,37.623c-0.144,0.021-0.283,0.039-0.422,0.067C34.321,37.662,34.463,37.643,34.604,37.623z"/>
		<path fill="#702B70" d="M30.617,39.627c0.071-0.073,0.146-0.144,0.224-0.213C30.764,39.484,30.69,39.555,30.617,39.627z"/>
		<path fill="#702B70" d="M31.936,38.589c-0.091,0.056-0.181,0.111-0.269,0.171C31.757,38.7,31.846,38.644,31.936,38.589z"/>
		<path fill="#702B70" d="M31.37,38.976c-0.083,0.062-0.165,0.126-0.246,0.192C31.204,39.102,31.287,39.038,31.37,38.976z"/>
		<path fill="#702B70" d="M32.544,38.256c-0.1,0.048-0.195,0.095-0.292,0.147C32.347,38.351,32.446,38.303,32.544,38.256z"/>
		<path fill="#702B70" d="M28.662,42.932c-0.033,0.115-0.06,0.233-0.086,0.35C28.604,43.165,28.629,43.047,28.662,42.932z"/>
		<path fill="#702B70" d="M29.179,41.612c-0.049,0.097-0.092,0.196-0.137,0.295C29.089,41.808,29.132,41.708,29.179,41.612z"/>
		<path fill="#702B70" d="M28.489,43.648c-0.024,0.146-0.044,0.298-0.062,0.447c0.021-0.155,0.039-0.309,0.067-0.459
			C28.492,43.64,28.49,43.645,28.489,43.648z"/>
		<path fill="#702B70" d="M28.892,42.255c-0.041,0.104-0.074,0.213-0.108,0.32C28.817,42.469,28.851,42.36,28.892,42.255z"/>
		<path fill="#702B70" d="M29.52,41.002c-0.057,0.089-0.104,0.182-0.158,0.274C29.415,41.184,29.466,41.092,29.52,41.002z"/>
		<path fill="#702B70" d="M35.578,37.545c-0.236,0-0.471,0.013-0.699,0.037C35.109,37.558,35.342,37.546,35.578,37.545z"/>
		<path fill="#702B70" d="M35.373,52.709c0.042,0.001,0.083,0.004,0.124,0.007c-0.034-0.003-0.069-0.005-0.104-0.006
			C35.385,52.71,35.38,52.709,35.373,52.709z"/>
		<path fill="#702B70" d="M28.662,42.932L28.662,42.932c-0.034,0.116-0.062,0.237-0.088,0.357c0.001-0.002,0.001-0.004,0.002-0.007
			C28.604,43.165,28.629,43.047,28.662,42.932z"/>
		<path fill="#702B70" d="M35.578,37.545L35.578,37.545c-0.236,0-0.472,0.013-0.699,0.037l0,0
			C35.109,37.558,35.342,37.546,35.578,37.545z"/>
		<path fill="#702B70" d="M32.544,38.256c0.004-0.002,0.008-0.004,0.013-0.006c-0.104,0.051-0.208,0.101-0.311,0.156
			c0.002-0.001,0.004-0.002,0.006-0.003C32.347,38.351,32.446,38.303,32.544,38.256z"/>
		<polygon fill="#702B70" points="28.493,43.635 28.489,43.648 28.493,43.636 		"/>
		<path fill="#702B70" d="M33.869,37.769c0.004-0.001,0.006-0.002,0.01-0.002c-0.124,0.032-0.249,0.062-0.371,0.1
			c0.001,0,0.002,0,0.003,0C33.628,37.829,33.749,37.8,33.869,37.769z"/>
		<path fill="#702B70" d="M34.604,37.623c0.002,0,0.005,0,0.007-0.001c-0.146,0.021-0.286,0.04-0.431,0.069c0,0,0,0,0.002,0
			C34.321,37.662,34.463,37.643,34.604,37.623z"/>
		<path fill="#702B70" d="M33.188,37.981c0.004-0.001,0.008-0.003,0.012-0.004c-0.112,0.042-0.229,0.083-0.339,0.13
			c0.002,0,0.003-0.001,0.007-0.002C32.973,38.059,33.081,38.021,33.188,37.981z"/>
		<path fill="#702B70" d="M30.841,39.414c0.003-0.002,0.006-0.005,0.009-0.007c-0.082,0.075-0.161,0.15-0.239,0.229
			c0.003-0.003,0.008-0.005,0.011-0.008C30.69,39.555,30.764,39.484,30.841,39.414z"/>
		<path fill="#702B70" d="M29.914,40.431c0.001-0.002,0.003-0.004,0.004-0.006c-0.065,0.088-0.129,0.179-0.19,0.27
			c0.003-0.003,0.005-0.007,0.008-0.01C29.792,40.599,29.851,40.514,29.914,40.431z"/>
		<path fill="#702B70" d="M28.892,42.255L28.892,42.255c-0.042,0.107-0.076,0.218-0.113,0.328c0.001-0.002,0.002-0.005,0.005-0.007
			C28.817,42.468,28.851,42.36,28.892,42.255z"/>
		<path fill="#702B70" d="M30.354,39.9c0.003-0.002,0.005-0.004,0.007-0.007c-0.072,0.083-0.146,0.166-0.218,0.25
			c0.004-0.003,0.007-0.006,0.009-0.009C30.219,40.054,30.286,39.976,30.354,39.9z"/>
		<path fill="#702B70" d="M29.52,41.002c0.002-0.001,0.003-0.003,0.004-0.005c-0.061,0.094-0.11,0.191-0.167,0.288
			c0.002-0.003,0.004-0.006,0.005-0.009C29.415,41.184,29.466,41.092,29.52,41.002z"/>
		<path fill="#702B70" d="M31.37,38.976c0.003-0.002,0.006-0.005,0.009-0.007c-0.089,0.067-0.177,0.136-0.263,0.207
			c0.003-0.002,0.006-0.004,0.008-0.006C31.205,39.102,31.287,39.038,31.37,38.976z"/>
		<path fill="#702B70" d="M29.179,41.612c0.001-0.001,0.001-0.002,0.002-0.003c-0.052,0.1-0.096,0.204-0.143,0.306
			c0.001-0.002,0.002-0.005,0.004-0.008C29.089,41.808,29.132,41.708,29.179,41.612z"/>
		<path fill="#702B70" d="M31.936,38.589c0.005-0.002,0.009-0.005,0.015-0.007c-0.099,0.059-0.193,0.119-0.287,0.183
			c0.002-0.002,0.005-0.003,0.008-0.005C31.758,38.7,31.846,38.644,31.936,38.589z"/>
		<path fill="#702B70" d="M30.334,50.335c-0.062-0.066-0.119-0.133-0.177-0.202C30.215,50.203,30.274,50.268,30.334,50.335z"/>
		<path fill="#702B70" d="M29.094,48.476c-0.013-0.026-0.025-0.052-0.038-0.077C29.068,48.424,29.083,48.45,29.094,48.476z"/>
		<path fill="#702B70" d="M28.708,47.472c-0.018-0.052-0.032-0.104-0.047-0.156C28.676,47.369,28.692,47.419,28.708,47.472z"/>
		<path fill="#702B70" d="M31.77,51.57c0.046,0.03,0.091,0.06,0.139,0.087c-0.024-0.015-0.048-0.033-0.069-0.048
			C31.814,51.597,31.792,51.585,31.77,51.57z"/>
		<path fill="#702B70" d="M28.447,46.339c-0.008-0.046-0.014-0.093-0.02-0.14C28.434,46.247,28.439,46.293,28.447,46.339z"/>
		<path fill="#702B70" d="M31.032,51.021c-0.057-0.045-0.104-0.097-0.155-0.143C30.929,50.925,30.979,50.975,31.032,51.021z"/>
		<path fill="#702B70" d="M29.604,49.396c-0.018-0.024-0.027-0.05-0.046-0.075C29.574,49.345,29.588,49.372,29.604,49.396z"/>
		<path fill="#702B70" d="M53.568,37.484c-3.998,0-7.238,3.397-7.238,7.589l0,0C46.327,40.882,49.57,37.484,53.568,37.484z"/>
		<path fill="#702B70" d="M53.568,52.662c-0.201,0-0.4-0.015-0.604-0.032C53.163,52.65,53.365,52.662,53.568,52.662z"/>
		<path fill="#702B70" d="M52.827,52.623c0.045,0.005,0.092,0.003,0.135,0.007c-0.119-0.012-0.236-0.03-0.354-0.047
			C52.683,52.593,52.753,52.615,52.827,52.623z"/>
		<path fill="#702B70" d="M35.594,52.721c0.894,0,1.742-0.177,2.531-0.485c-0.728,0.283-1.507,0.45-2.321,0.475
			C35.733,52.712,35.665,52.721,35.594,52.721z"/>
		<path fill="#702B70" d="M39.319,51.632c0.521-0.33,1.008-0.721,1.435-1.173c-0.176,0.186-0.356,0.362-0.549,0.528
			C39.927,51.227,39.628,51.438,39.319,51.632z"/>
		<path fill="#702B70" d="M39.191,51.714c-0.312,0.186-0.64,0.351-0.978,0.486C38.553,52.063,38.88,51.901,39.191,51.714z"/>
		<path fill="#702B70" d="M42.757,46.224c-0.024,0.181-0.052,0.361-0.089,0.539C42.705,46.584,42.731,46.404,42.757,46.224z"/>
		<path fill="#702B70" d="M42.594,47.061c-0.04,0.16-0.083,0.317-0.132,0.473C42.511,47.378,42.554,47.221,42.594,47.061z"/>
		<path fill="#702B70" d="M41.244,49.877c-0.109,0.142-0.229,0.277-0.346,0.411C41.018,50.154,41.135,50.019,41.244,49.877z"/>
		<path fill="#702B70" d="M42.84,45.132c0,0.28-0.017,0.556-0.045,0.827C42.823,45.687,42.84,45.412,42.84,45.132z"/>
		<path fill="#702B70" d="M41.678,49.244c-0.085,0.138-0.177,0.271-0.271,0.402C41.502,49.515,41.594,49.381,41.678,49.244z"/>
		<path fill="#702B70" d="M42.052,48.562c-0.067,0.143-0.143,0.281-0.22,0.417C41.909,48.842,41.982,48.704,42.052,48.562z"/>
		<path fill="#702B70" d="M42.357,47.835c-0.056,0.148-0.109,0.295-0.176,0.439C42.246,48.13,42.303,47.984,42.357,47.835z"/>
		<path fill="#702B70" d="M41.246,49.873c0.054-0.069,0.103-0.144,0.151-0.214C41.348,49.73,41.3,49.804,41.246,49.873z"/>
		<path fill="#702B70" d="M40.89,50.298c-0.046,0.052-0.09,0.107-0.138,0.159C40.801,50.406,40.844,50.352,40.89,50.298z"/>
		<path fill="#702B70" d="M39.193,51.713c0.042-0.025,0.082-0.053,0.124-0.079C39.275,51.66,39.235,51.688,39.193,51.713z"/>
		<path fill="#702B70" d="M38.13,52.233c0.028-0.011,0.057-0.021,0.083-0.032C38.186,52.212,38.157,52.222,38.13,52.233z"/>
		<path fill="#702B70" d="M42.056,48.55c0.042-0.087,0.082-0.174,0.121-0.263C42.138,48.375,42.098,48.463,42.056,48.55z"/>
		<path fill="#702B70" d="M41.682,49.236c0.051-0.08,0.098-0.163,0.146-0.245C41.778,49.074,41.732,49.157,41.682,49.236z"/>
		<path fill="#702B70" d="M42.763,46.172c0.01-0.068,0.022-0.134,0.03-0.202C42.786,46.038,42.772,46.104,42.763,46.172z"/>
		<path fill="#702B70" d="M42.601,47.034c0.021-0.087,0.047-0.173,0.064-0.261C42.647,46.861,42.623,46.947,42.601,47.034z"/>
		<path fill="#702B70" d="M42.363,47.818c0.032-0.09,0.064-0.18,0.098-0.272C42.429,47.638,42.395,47.728,42.363,47.818z"/>
		<path fill="#702B70" d="M38.13,52.233c-0.001,0-0.003,0.001-0.004,0.002c0.028-0.012,0.06-0.022,0.09-0.035
			c-0.001,0-0.002,0.001-0.003,0.001C38.186,52.212,38.158,52.222,38.13,52.233z"/>
		<path fill="#702B70" d="M39.193,51.713c-0.001,0-0.002,0-0.002,0.001c0.043-0.026,0.085-0.055,0.128-0.082
			c-0.001,0-0.002,0.001-0.002,0.001C39.275,51.66,39.235,51.688,39.193,51.713z"/>
		<path fill="#702B70" d="M45.247,59.508c-2.783-0.169-1.589,0.387-4.174,0.223C43.659,59.895,42.466,59.34,45.247,59.508z"/>
		<path fill="#702B70" d="M31.752,54.831c0,0,0.089-0.025,0.266-0.029C31.84,54.806,31.751,54.831,31.752,54.831
			c3.667,7.538,7.285,8.071,10.75,8.683c0.435,0.076,0.866,0.104,1.295,0.092c-0.428,0.014-0.86-0.016-1.294-0.092
			C39.038,62.902,35.42,62.369,31.752,54.831z"/>
		<path fill="#702B70" d="M30.334,50.335c0.075,0.083,0.146,0.169,0.229,0.25c-0.063-0.064-0.121-0.139-0.185-0.206
			C30.364,50.364,30.348,50.351,30.334,50.335z"/>
		<path fill="#702B70" d="M31.471,51.358c0.1,0.072,0.195,0.146,0.299,0.212c-0.041-0.025-0.076-0.06-0.116-0.087
			C31.593,51.442,31.531,51.401,31.471,51.358z"/>
		<path fill="#702B70" d="M33.857,52.492c-0.028-0.008-0.062-0.017-0.092-0.024C33.797,52.476,33.827,52.484,33.857,52.492z"/>
		<path fill="#702B70" d="M30.84,50.841c-0.021-0.021-0.045-0.039-0.064-0.061c0.033,0.033,0.066,0.064,0.104,0.098
			C30.864,50.867,30.854,50.853,30.84,50.841z"/>
		<path fill="#702B70" d="M33.141,52.264c-0.042-0.016-0.086-0.031-0.126-0.048C33.057,52.233,33.098,52.249,33.141,52.264z"/>
		<path fill="#702B70" d="M30.004,49.959c0.049,0.061,0.104,0.116,0.153,0.174c-0.006-0.005-0.01-0.011-0.016-0.017
			C30.099,50.062,30.049,50.014,30.004,49.959z"/>
		<path fill="#702B70" d="M31.032,51.021c0.048,0.04,0.095,0.077,0.143,0.116c-0.022-0.019-0.046-0.042-0.067-0.061
			C31.083,51.058,31.055,51.041,31.032,51.021z"/>
		<path fill="#702B70" d="M34.612,52.643c-0.021-0.004-0.037-0.007-0.062-0.009C34.573,52.636,34.593,52.639,34.612,52.643z"/>
		<path fill="#702B70" d="M32.539,52.001c-0.114-0.057-0.229-0.114-0.337-0.175C32.311,51.887,32.425,51.945,32.539,52.001z"/>
		<path fill="#702B70" d="M31.653,51.483c0.04,0.027,0.076,0.062,0.117,0.087c0.021,0.014,0.044,0.025,0.064,0.04
			C31.774,51.569,31.715,51.526,31.653,51.483z"/>
		<path fill="#702B70" d="M30.84,50.841c0.016,0.012,0.022,0.025,0.037,0.037c0.053,0.046,0.103,0.097,0.155,0.143
			c0.021,0.02,0.05,0.035,0.071,0.055C31.014,51,30.927,50.921,30.84,50.841z"/>
		<path fill="#702B70" d="M30.145,50.117c0.005,0.005,0.009,0.011,0.015,0.017c0.058,0.068,0.115,0.135,0.177,0.202
			c0.016,0.016,0.03,0.029,0.045,0.044C30.3,50.293,30.22,50.207,30.145,50.117z"/>
		<path fill="#702B70" d="M32.775,52.125c0.021,0.01,0.051,0.018,0.071,0.028c0.056,0.023,0.111,0.042,0.167,0.064
			c-0.146-0.058-0.289-0.126-0.432-0.194C32.649,52.053,32.709,52.095,32.775,52.125z"/>
		<path fill="#702B70" d="M34.612,52.643c0.077,0.011,0.15,0.029,0.229,0.037c0.004,0,0.008,0.001,0.012,0.002
			c0.172,0.018,0.349,0.022,0.521,0.027c0.007,0,0.013,0.001,0.021,0.001C35.129,52.702,34.869,52.679,34.612,52.643z"/>
		<path fill="#702B70" d="M31.837,51.61c0.021,0.015,0.045,0.033,0.067,0.048c0.041,0.025,0.088,0.043,0.129,0.067
			C31.968,51.688,31.9,51.651,31.837,51.61z"/>
		<path fill="#702B70" d="M33.44,52.379c0.104,0.035,0.22,0.058,0.325,0.088c-0.214-0.058-0.422-0.126-0.625-0.204
			C33.241,52.303,33.339,52.346,33.44,52.379z"/>
		<path fill="#702B70" d="M34.552,52.633c-0.233-0.036-0.467-0.083-0.693-0.141C34.086,52.551,34.317,52.598,34.552,52.633z"/>
		<path fill="#702B70" d="M30.773,50.781c-0.069-0.065-0.146-0.127-0.214-0.196C30.629,50.654,30.702,50.715,30.773,50.781z"/>
		<path fill="#702B70" d="M32.539,52.001c0.08,0.039,0.152,0.087,0.234,0.123c-0.064-0.029-0.126-0.071-0.189-0.103
			C32.569,52.014,32.554,52.008,32.539,52.001z"/>
		<path fill="#702B70" d="M31.906,51.658c0.099,0.06,0.196,0.112,0.298,0.168c-0.061-0.032-0.113-0.067-0.169-0.101
			C31.992,51.702,31.947,51.684,31.906,51.658z"/>
		<path fill="#702B70" d="M31.471,51.358c-0.102-0.073-0.201-0.144-0.298-0.222C31.27,51.214,31.371,51.286,31.471,51.358z"/>
		<path fill="#702B70" d="M41.399,49.659c0.003-0.004,0.006-0.008,0.011-0.013c0.094-0.131,0.186-0.265,0.271-0.402
			c0.002-0.002,0.003-0.004,0.004-0.007C41.594,49.381,41.497,49.521,41.399,49.659z"/>
		<path fill="#702B70" d="M41.825,48.992c0.002-0.004,0.005-0.008,0.007-0.013c0.077-0.136,0.148-0.275,0.22-0.417
			c0.002-0.003,0.003-0.007,0.005-0.011C41.984,48.701,41.906,48.848,41.825,48.992z"/>
		<path fill="#702B70" d="M40.203,50.987c0.188-0.166,0.373-0.343,0.549-0.528l0.001-0.001
			C40.578,50.644,40.395,50.821,40.203,50.987z"/>
		<path fill="#702B70" d="M40.89,50.298c0.003-0.003,0.009-0.007,0.012-0.011c0.116-0.133,0.232-0.269,0.346-0.411
			c0.001-0.001,0.001-0.002,0.002-0.004C41.134,50.021,41.013,50.162,40.89,50.298z"/>
		<path fill="#702B70" d="M42.459,47.545c0.001-0.004,0.003-0.008,0.004-0.012c0.049-0.155,0.092-0.313,0.132-0.473
			c0.002-0.009,0.005-0.018,0.008-0.027C42.558,47.208,42.512,47.377,42.459,47.545z"/>
		<path fill="#702B70" d="M42.177,48.288c0.002-0.004,0.004-0.008,0.006-0.012c0.062-0.145,0.12-0.292,0.175-0.439
			c0.003-0.006,0.005-0.012,0.009-0.018C42.306,47.977,42.245,48.133,42.177,48.288z"/>
		<path fill="#702B70" d="M42.666,46.772c0-0.004,0.002-0.007,0.002-0.011c0.037-0.177,0.062-0.357,0.089-0.539
			c0.002-0.018,0.005-0.034,0.007-0.052C42.737,46.375,42.707,46.576,42.666,46.772z"/>
		<path fill="#702B70" d="M42.839,45.132c0,0.284-0.019,0.563-0.045,0.838c0-0.004,0.001-0.007,0.001-0.011
			C42.823,45.687,42.84,45.412,42.839,45.132c0.001-4.19-3.243-7.588-7.244-7.588C39.594,37.545,42.839,40.941,42.839,45.132z"/>
		<path fill="#702B70" d="M42.363,47.818c-0.002,0.006-0.004,0.012-0.006,0.018c0.034-0.1,0.071-0.199,0.104-0.301
			c-0.001,0.004-0.003,0.008-0.004,0.012C42.429,47.638,42.395,47.728,42.363,47.818z"/>
		<path fill="#702B70" d="M40.753,50.458L40.753,50.458c0.051-0.054,0.098-0.114,0.146-0.17c-0.003,0.004-0.009,0.008-0.012,0.011
			C40.844,50.352,40.801,50.406,40.753,50.458z"/>
		<path fill="#702B70" d="M42.763,46.172c-0.002,0.018-0.005,0.034-0.007,0.052c0.012-0.088,0.029-0.176,0.038-0.265
			c0,0.003-0.001,0.007-0.001,0.011C42.786,46.038,42.772,46.104,42.763,46.172z"/>
		<path fill="#702B70" d="M41.682,49.236c-0.001,0.002-0.002,0.005-0.004,0.007c0.055-0.086,0.104-0.176,0.153-0.265
			c-0.002,0.004-0.005,0.008-0.007,0.013C41.778,49.074,41.732,49.157,41.682,49.236z"/>
		<path fill="#702B70" d="M42.601,47.034c-0.002,0.009-0.005,0.018-0.007,0.027c0.025-0.1,0.053-0.198,0.073-0.3
			c0,0.004-0.002,0.007-0.002,0.011C42.647,46.861,42.623,46.947,42.601,47.034z"/>
		<path fill="#702B70" d="M41.246,49.873c-0.001,0.001-0.001,0.003-0.002,0.004c0.057-0.075,0.105-0.153,0.164-0.23
			c-0.005,0.004-0.008,0.008-0.011,0.013C41.348,49.73,41.3,49.804,41.246,49.873z"/>
		<path fill="#702B70" d="M42.056,48.55c-0.002,0.004-0.003,0.008-0.005,0.011c0.046-0.094,0.091-0.19,0.132-0.287
			c-0.002,0.004-0.004,0.008-0.006,0.012C42.138,48.375,42.098,48.463,42.056,48.55z"/>
		<path fill="#702B70" d="M46.771,47.662c-0.025-0.083-0.051-0.167-0.076-0.25C46.72,47.495,46.741,47.58,46.771,47.662z"/>
		<path fill="#702B70" d="M46.445,46.411c-0.012-0.052-0.016-0.106-0.021-0.158C46.431,46.304,46.437,46.357,46.445,46.411z"/>
		<path fill="#702B70" d="M47.2,48.669c0.012,0.025,0.021,0.05,0.037,0.075c-0.006-0.01-0.01-0.022-0.016-0.033
			C47.218,48.697,47.206,48.684,47.2,48.669z"/>
		<path fill="#702B70" d="M46.445,46.411L46.445,46.411c0.062,0.342,0.146,0.674,0.248,1.001l0,0
			C46.591,47.085,46.505,46.753,46.445,46.411z"/>
		<path fill="#702B70" d="M46.771,47.662c0.006,0.014,0.008,0.028,0.016,0.042C46.779,47.689,46.775,47.675,46.771,47.662
			L46.771,47.662z"/>
		<path fill="#702B70" d="M46.327,45.075L46.327,45.075c0,0.401,0.035,0.793,0.096,1.177l0,0
			C46.365,45.868,46.327,45.477,46.327,45.075z"/>
		<path fill="#702B70" d="M46.327,45.075c0,0.401,0.035,0.793,0.096,1.176C46.365,45.867,46.327,45.477,46.327,45.075z"/>
		<path fill="#702B70" d="M47.37,48.951c0.02,0.033,0.039,0.065,0.059,0.099c0.119,0.201,0.236,0.402,0.373,0.589
			c0,0.001,0,0.001,0,0.002C47.646,49.421,47.505,49.188,47.37,48.951z"/>
		<path fill="#702B70" d="M46.771,47.662c0.006,0.014,0.008,0.028,0.016,0.042c0.049,0.138,0.117,0.265,0.176,0.399
			C46.898,47.955,46.823,47.814,46.771,47.662z"/>
		<path fill="#702B70" d="M46.445,46.411c0.062,0.342,0.146,0.674,0.248,1C46.591,47.085,46.503,46.754,46.445,46.411z"/>
		<path fill="#702B70" d="M51.159,52.213c-0.094-0.033-0.188-0.057-0.271-0.094C50.976,52.156,51.07,52.18,51.159,52.213z"/>
		<path fill="#702B70" d="M47.857,49.728c0.043,0.058,0.08,0.118,0.125,0.173c0.018,0.021,0.033,0.039,0.053,0.059
			c0.053,0.066,0.115,0.12,0.174,0.184c-0.143-0.163-0.275-0.327-0.402-0.501C47.823,49.668,47.837,49.7,47.857,49.728z"/>
		<path fill="#702B70" d="M47.226,48.711c0.006,0.01,0.01,0.022,0.018,0.033c0.035,0.072,0.09,0.136,0.131,0.207
			C47.323,48.87,47.269,48.794,47.226,48.711z"/>
		<path fill="#702B70" d="M51.976,52.467c0.047,0.011,0.088,0.031,0.133,0.041c0.104,0.022,0.207,0.032,0.312,0.049
			c0.062,0.011,0.127,0.016,0.188,0.026C52.396,52.553,52.183,52.516,51.976,52.467z"/>
		<path fill="#702B70" d="M49.896,51.608c-0.094-0.058-0.18-0.129-0.27-0.191C49.718,51.479,49.802,51.55,49.896,51.608z"/>
		<path fill="#702B70" d="M48.995,50.94c-0.115-0.099-0.225-0.207-0.33-0.313C48.775,50.732,48.88,50.84,48.995,50.94z"/>
		<path fill="#702B70" d="M48.665,50.626c-0.16-0.155-0.314-0.314-0.461-0.483C48.351,50.312,48.505,50.47,48.665,50.626z"/>
		<path fill="#702B70" d="M51.976,52.467c-0.275-0.065-0.549-0.154-0.812-0.253C51.427,52.312,51.697,52.4,51.976,52.467z"/>
		<path fill="#702B70" d="M46.782,47.703c0.115,0.333,0.258,0.655,0.418,0.966c-0.098-0.182-0.162-0.376-0.242-0.567
			C46.904,47.968,46.831,47.841,46.782,47.703z"/>
		<path fill="#702B70" d="M49.628,51.417c-0.219-0.149-0.436-0.305-0.633-0.478C49.197,51.112,49.409,51.268,49.628,51.417z"/>
		<path fill="#702B70" d="M50.888,52.12c-0.346-0.144-0.678-0.316-0.992-0.512C50.21,51.804,50.542,51.976,50.888,52.12z"/>
		<path fill="#702B70" d="M47.802,49.639c-0.137-0.188-0.254-0.389-0.373-0.589C47.548,49.251,47.665,49.451,47.802,49.639z"/>
		<path fill="#702B70" d="M52.417,52.557c0.137,0.023,0.271,0.051,0.41,0.066c-0.074-0.008-0.146-0.03-0.223-0.04
			C52.544,52.573,52.48,52.568,52.417,52.557z"/>
		<path fill="#702B70" d="M46.958,48.102c0.08,0.189,0.146,0.385,0.242,0.567c0.006,0.015,0.018,0.028,0.021,0.042
			C47.124,48.517,47.044,48.308,46.958,48.102z"/>
		<path fill="#702B70" d="M47.802,49.639c0.021,0.028,0.035,0.061,0.057,0.088c-0.021-0.026-0.031-0.059-0.057-0.086
			C47.802,49.64,47.802,49.64,47.802,49.639z"/>
		<path fill="#702B70" d="M47.24,48.744c0.057,0.107,0.129,0.202,0.188,0.306c-0.018-0.033-0.039-0.065-0.059-0.099
			C47.329,48.88,47.279,48.816,47.24,48.744z"/>
		<path fill="#702B70" d="M40.647,71.249c-0.175-0.144-0.346-0.283-0.516-0.429c-0.93-0.797-1.978-1.033-3.302-1.334
			c-0.58-0.133-1.183-0.27-1.836-0.465c-0.644-0.188-1.195-0.309-1.687-0.407c-1.167-0.243-2.171-0.452-3.373-1.48
			c-0.922-0.791-1.356-1.536-1.743-2.192c-0.306-0.52-0.594-1.01-1.117-1.531c-0.729-0.729-1.956-2.496-3.144-4.203
			c-0.998-1.438-2.028-2.921-2.497-3.389c-0.682-0.681-0.931-0.752-1.338-0.752c-0.271,0-0.646,0.05-1.037,0.105
			c-0.799,0.114-0.561,2.498-0.418,3.921c0.072,0.713,0.497,2.198,1.061,3.868c1.019,3.032,2.479,6.673,3.104,7.421
			c1.058,1.271,5.348,5.771,5.39,5.818l0.067,0.084c0.789,1.105,0.771,2.138,0.599,2.826c0.979,0.384,2.773,1.078,4.268,1.675
			c0.652,0.262,1.485,0.396,2.479,0.396c0.866,0,1.633-0.105,2.017-0.172c0.313-0.384,1.007-1.189,1.821-2.006
			c0.367-0.367,0.706-0.779,1.029-1.216c0.714-0.948,1.333-2.046,1.832-3.293C42.843,73.15,42.107,72.458,40.647,71.249z"/>
	</g>
</g>
<rect x="0.09" y="78" fill="none" width="87.889" height="35"/>
<text transform="matrix(1 0 0 1 32.158 93.668)" fill="#702B70" font-family="'Lato'" font-size="11">Care</text>
</svg>
