<?xml version="1.0" encoding="utf-8"?>
<!-- Generator: Adobe Illustrator 16.0.0, SVG Export Plug-In . SVG Version: 6.00 Build 0)  -->
<!DOCTYPE svg PUBLIC "-//W3C//DTD SVG 1.1//EN" "http://www.w3.org/Graphics/SVG/1.1/DTD/svg11.dtd">
<svg version="1.1" id="Layer_1" xmlns="http://www.w3.org/2000/svg" xmlns:xlink="http://www.w3.org/1999/xlink" x="0px" y="0px"
	 width="40.94px" height="76.59px" viewBox="0 0 40.94 76.59" enable-background="new 0 0 40.94 76.59" xml:space="preserve">
<g>
	<g>
		<path fill="#712C70" d="M21.862,43.043c-0.118-0.015-0.223-0.04-0.353-0.048c-0.044-0.002-0.077-0.005-0.114-0.007
			c0.04,0.002,0.073,0.005,0.114,0.007C21.639,43.003,21.744,43.028,21.862,43.043z"/>
		<path fill="#712C70" d="M11.035,27.646c0.072-0.052,0.141-0.104,0.213-0.152C11.174,27.542,11.104,27.593,11.035,27.646z"/>
		<path fill="#712C70" d="M10.64,27.974c0.063-0.06,0.132-0.118,0.202-0.174C10.771,27.855,10.705,27.914,10.64,27.974z"/>
		<path fill="#712C70" d="M11.462,27.357c0.074-0.044,0.143-0.089,0.222-0.13C11.607,27.267,11.536,27.312,11.462,27.357z"/>
		<path fill="#712C70" d="M9.65,29.161c0.046-0.078,0.101-0.152,0.148-0.226C9.75,29.009,9.699,29.084,9.65,29.161z"/>
		<path fill="#712C70" d="M11.914,27.109c0.077-0.037,0.15-0.074,0.229-0.107C12.066,27.035,11.991,27.072,11.914,27.109z"/>
		<path fill="#712C70" d="M9.393,29.618c0.043-0.082,0.087-0.161,0.133-0.242C9.48,29.457,9.435,29.536,9.393,29.618z"/>
		<path fill="#712C70" d="M9.178,30.1c0.034-0.085,0.076-0.169,0.109-0.252C9.251,29.931,9.211,30.014,9.178,30.1z"/>
		<path fill="#712C70" d="M12.395,26.905c0.078-0.028,0.151-0.058,0.231-0.082C12.547,26.847,12.473,26.877,12.395,26.905z"/>
		<path fill="#712C70" d="M8.88,31.132c0.016-0.088,0.04-0.171,0.061-0.259C8.92,30.959,8.896,31.044,8.88,31.132z"/>
		<path fill="#712C70" d="M9.006,30.606c0.023-0.089,0.055-0.173,0.085-0.261C9.062,30.432,9.031,30.517,9.006,30.606z"/>
		<path fill="#712C70" d="M9.944,28.733c0.056-0.072,0.11-0.141,0.171-0.21C10.056,28.592,10,28.662,9.944,28.733z"/>
		<path fill="#712C70" d="M10.275,28.336c0.059-0.065,0.121-0.13,0.184-0.192C10.396,28.206,10.334,28.271,10.275,28.336z"/>
		<path fill="#712C70" d="M9.332,34.751C9.33,34.75,9.33,34.749,9.33,34.747c0.104,0.219,0.218,0.429,0.346,0.631l-0.002-0.001
			C9.548,35.177,9.434,34.968,9.332,34.751z"/>
		<path fill="#712C70" d="M9.043,34.002C9.041,34.001,9.041,34,9.041,33.997c0.074,0.237,0.158,0.47,0.262,0.693
			c-0.002-0.001-0.002-0.001-0.002-0.001C9.199,34.468,9.115,34.239,9.043,34.002z"/>
		<path fill="#712C70" d="M12.903,26.749c0.077-0.02,0.149-0.042,0.226-0.057C13.053,26.707,12.978,26.729,12.903,26.749z"/>
		<path fill="#712C70" d="M8.848,33.159c0-0.002-0.005-0.004-0.005-0.007c0.04,0.249,0.093,0.492,0.163,0.729
			c-0.001-0.001-0.001-0.004-0.001-0.006C8.938,33.643,8.885,33.404,8.848,33.159z"/>
		<path fill="#712C70" d="M8.773,32.25c0-0.195,0.012-0.388,0.027-0.578c0.007-0.065,0.02-0.13,0.028-0.196
			C8.797,31.729,8.772,31.986,8.773,32.25c-0.001,0.272,0.021,0.537,0.057,0.798c0-0.004,0-0.008,0-0.012
			C8.797,32.779,8.773,32.518,8.773,32.25z"/>
		<path fill="#712C70" d="M9.709,35.436c0.094,0.144,0.193,0.284,0.298,0.419C9.902,35.72,9.803,35.58,9.709,35.436L9.709,35.436z"
			/>
		<path fill="#712C70" d="M13.45,26.64c0.068-0.01,0.134-0.023,0.201-0.03C13.582,26.617,13.518,26.63,13.45,26.64z"/>
		<path fill="#712C70" d="M14.184,26.582c-0.003,0-0.008,0.001-0.011,0.001C14.178,26.583,14.181,26.582,14.184,26.582
			L14.184,26.582z"/>
		<path fill="#712C70" d="M18.164,43.149c0.042,0.002,0.074,0.004,0.113,0.006C18.238,43.153,18.205,43.151,18.164,43.149
			c-2.132-0.154-1.826-0.609-3.803-2.284c-1.301-1.1-2.207-1.346-2.676-1.386c0.469,0.041,1.375,0.287,2.674,1.386
			C16.336,42.54,16.033,42.995,18.164,43.149z"/>
		<path fill="#712C70" d="M14.184,37.918L14.184,37.918c-0.021,0-0.045-0.002-0.072-0.003C14.136,37.917,14.16,37.918,14.184,37.918
			z"/>
		<path fill="#712C70" d="M22.95,43.297c1.175,0.45,1.603,1.22,1.603,1.22s-2.008,1.47-4.242,1.533
			c2.236-0.062,4.244-1.533,4.244-1.533S24.128,43.745,22.95,43.297z"/>
		<path fill="#712C70" d="M31.03,29.724c0-0.7-0.407-1.299-0.984-1.556C30.623,28.424,31.03,29.022,31.03,29.724z"/>
		<path fill="#712C70" d="M29.74,31.378c0.733-0.157,1.288-0.839,1.288-1.654C31.03,30.54,30.477,31.22,29.74,31.378z"/>
		<path fill="#712C70" d="M31.308,30.542c0-0.601-0.171-1.158-0.468-1.622C31.134,29.384,31.308,29.941,31.308,30.542z"/>
		<path fill="#712C70" d="M28.676,27.625L28.676,27.625c-0.334-0.085-0.684-0.136-1.045-0.136
			C27.99,27.489,28.342,27.54,28.676,27.625L28.676,27.625z"/>
		<path fill="#712C70" d="M18.247,29.92c0,0.932-0.726,1.688-1.612,1.688c-0.447,0-0.85-0.188-1.141-0.494
			c0.297,0.305,0.7,0.494,1.141,0.494C17.525,31.608,18.248,30.853,18.247,29.92c0.001-0.076-0.014-0.15-0.021-0.222
			c0-0.002,0-0.004-0.002-0.005C18.233,29.768,18.247,29.842,18.247,29.92z"/>
		<path fill="#712C70" d="M18.217,29.6c0.412,0.709,0.656,1.537,0.656,2.428c0,2.581-1.997,4.672-4.463,4.672
			c-1.23,0-2.349-0.523-3.156-1.369c0.808,0.846,1.922,1.37,3.156,1.37c2.468,0,4.464-2.093,4.464-4.673
			C18.874,31.137,18.631,30.31,18.217,29.6c-0.088-0.476-0.367-0.88-0.752-1.123C17.85,28.72,18.129,29.124,18.217,29.6z"/>
		<path fill="#712C70" d="M16.965,37.107L16.965,37.107c0.234-0.146,0.455-0.303,0.664-0.482
			C17.42,36.804,17.197,36.961,16.965,37.107z"/>
		<path fill="#712C70" d="M16.141,37.531c0.001,0,0.002,0,0.002-0.001c0.253-0.102,0.496-0.224,0.73-0.363l0.002-0.001
			C16.639,37.306,16.394,37.429,16.141,37.531z"/>
		<path fill="#712C70" d="M14.342,37.911c0.607-0.018,1.191-0.144,1.732-0.355c0.002,0,0.003,0,0.004-0.002
			C15.533,37.767,14.951,37.893,14.342,37.911z"/>
		<path fill="#712C70" d="M12.74,30.485c0,0.811,0.314,1.545,0.822,2.076C13.055,32.03,12.74,31.296,12.74,30.485
			c0-1.621,1.257-2.937,2.805-2.937c0.07,0,0.14,0.017,0.211,0.022c-0.003,0-0.004,0-0.006,0c-0.07-0.006-0.14-0.022-0.205-0.022
			C13.996,27.547,12.74,28.864,12.74,30.485z"/>
		<path fill="#712C70" d="M14.111,37.915c0.022,0.001,0.047,0.003,0.074,0.003c-0.05,0-0.101-0.006-0.15-0.008
			C14.059,37.912,14.086,37.913,14.111,37.915z"/>
		<path fill="#712C70" d="M12.146,27c-0.004,0.001-0.004,0.001-0.006,0.001c-0.077,0.033-0.149,0.071-0.229,0.107
			c-0.003,0.002-0.006,0.003-0.009,0.004C11.984,27.075,12.064,27.035,12.146,27z"/>
		<path fill="#712C70" d="M11.688,27.223c-0.002,0.001-0.002,0.002-0.004,0.002c-0.078,0.041-0.147,0.087-0.222,0.131
			c-0.005,0.001-0.009,0.003-0.013,0.005C11.531,27.314,11.607,27.267,11.688,27.223z"/>
		<path fill="#712C70" d="M10.119,28.517c-0.002,0.002-0.004,0.004-0.007,0.006c-0.057,0.069-0.112,0.139-0.171,0.21
			c0,0.002-0.002,0.003-0.002,0.005C9.998,28.662,10.058,28.589,10.119,28.517z"/>
		<path fill="#712C70" d="M12.627,26.822L12.627,26.822c-0.08,0.025-0.156,0.055-0.234,0.082c-0.002,0-0.005,0.002-0.008,0.003
			C12.468,26.879,12.546,26.847,12.627,26.822z"/>
		<path fill="#712C70" d="M10.467,28.138c-0.005,0.001-0.007,0.003-0.008,0.006c-0.064,0.062-0.125,0.126-0.186,0.192
			c-0.002,0.001-0.003,0.003-0.005,0.005C10.334,28.272,10.398,28.205,10.467,28.138z"/>
		<path fill="#712C70" d="M8.941,30.868c0,0.001,0,0.003-0.001,0.005c-0.021,0.086-0.046,0.171-0.061,0.259l0,0
			C8.896,31.042,8.92,30.955,8.941,30.868z"/>
		<path fill="#712C70" d="M10.846,27.795c-0.002,0.001-0.004,0.002-0.006,0.004c-0.07,0.056-0.139,0.114-0.203,0.173
			c-0.002,0.001-0.004,0.004-0.006,0.005C10.701,27.915,10.773,27.854,10.846,27.795z"/>
		<path fill="#712C70" d="M11.253,27.49c-0.002,0.001-0.005,0.003-0.005,0.004c-0.075,0.048-0.141,0.101-0.213,0.152
			c-0.002,0.001-0.004,0.004-0.006,0.005C11.102,27.596,11.176,27.541,11.253,27.49z"/>
		<path fill="#712C70" d="M9.292,29.841c-0.003,0.002-0.003,0.004-0.003,0.006c-0.038,0.084-0.078,0.167-0.11,0.252v0
			C9.212,30.012,9.252,29.926,9.292,29.841z"/>
		<path fill="#712C70" d="M9.528,29.37c-0.001,0.002-0.001,0.004-0.003,0.007c-0.046,0.08-0.091,0.159-0.133,0.242
			c0,0.001,0,0.001-0.002,0.002C9.436,29.536,9.482,29.453,9.528,29.37z"/>
		<path fill="#712C70" d="M9.094,30.34c0,0.001-0.001,0.003-0.001,0.005c-0.03,0.087-0.062,0.172-0.085,0.261l0,0
			C9.031,30.516,9.064,30.428,9.094,30.34z"/>
		<path fill="#712C70" d="M14.184,26.582c-0.004,0-0.008,0.001-0.012,0.001l0,0C14.178,26.583,14.181,26.582,14.184,26.582z"/>
		<path fill="#712C70" d="M13.131,26.69c-0.002,0-0.002,0-0.002,0c-0.078,0.016-0.15,0.038-0.227,0.057
			c-0.002,0-0.006,0.001-0.008,0.001C12.974,26.729,13.051,26.707,13.131,26.69z"/>
		<path fill="#712C70" d="M9.807,28.928c-0.003,0.002-0.006,0.005-0.008,0.007c-0.048,0.075-0.103,0.149-0.148,0.226
			c-0.002,0.001-0.002,0.002-0.002,0.003C9.699,29.084,9.752,29.005,9.807,28.928z"/>
		<path fill="#712C70" d="M13.65,26.61L13.65,26.61c-0.068,0.007-0.133,0.021-0.202,0.03c-0.001,0-0.003,0-0.005,0
			C13.512,26.631,13.58,26.618,13.65,26.61z"/>
		<path fill="#712C70" d="M9.3,34.688c-0.102-0.22-0.185-0.451-0.259-0.686C9.115,34.239,9.199,34.468,9.3,34.688z"/>
		<path fill="#712C70" d="M9.709,35.436c0.094,0.144,0.193,0.284,0.298,0.419c0.033,0.042,0.071,0.078,0.105,0.119
			C9.97,35.801,9.832,35.624,9.709,35.436z"/>
		<path fill="#712C70" d="M9.674,35.377c-0.126-0.201-0.239-0.409-0.342-0.625C9.434,34.968,9.548,35.177,9.674,35.377z"/>
		<path fill="#712C70" d="M10.289,36.169c0.045,0.05,0.087,0.105,0.138,0.154c0.05,0.052,0.107,0.098,0.158,0.147
			c0.016,0.015,0.033,0.029,0.048,0.045C10.513,36.404,10.398,36.291,10.289,36.169z"/>
		<path fill="#712C70" d="M11.524,37.176c0.042,0.025,0.08,0.051,0.126,0.075c0.08,0.046,0.167,0.088,0.252,0.131
			c0.012,0.005,0.021,0.01,0.033,0.016C11.795,37.329,11.658,37.255,11.524,37.176z"/>
		<path fill="#712C70" d="M8.83,33.037c-0.035-0.258-0.057-0.52-0.057-0.788C8.773,32.518,8.797,32.779,8.83,33.037z"/>
		<path fill="#712C70" d="M10.83,36.69c0.017,0.014,0.034,0.031,0.051,0.045c0.072,0.059,0.146,0.112,0.223,0.167
			c0.047,0.032,0.09,0.062,0.137,0.093C11.1,36.899,10.962,36.798,10.83,36.69z"/>
		<path fill="#712C70" d="M9.005,33.877c-0.069-0.233-0.12-0.474-0.157-0.718C8.885,33.404,8.938,33.643,9.005,33.877z"/>
		<path fill="#712C70" d="M9.3,34.688c0,0,0,0,0,0.001c0.01,0.019,0.02,0.038,0.028,0.057c0.002,0.001,0.002,0.002,0.004,0.004
			C9.322,34.731,9.309,34.709,9.3,34.688z"/>
		<path fill="#712C70" d="M8.83,33.037c0,0.002,0,0.007,0,0.011c0.006,0.035,0.01,0.07,0.017,0.104c0,0.002,0.001,0.004,0.001,0.007
			C8.84,33.118,8.836,33.078,8.83,33.037z"/>
		<path fill="#712C70" d="M9.005,33.877c0,0.001,0,0.003,0.001,0.004c0.012,0.04,0.021,0.078,0.035,0.116
			c0,0.003,0,0.004,0.002,0.006C9.029,33.96,9.018,33.919,9.005,33.877z"/>
		<path fill="#712C70" d="M9.674,35.377L9.674,35.377c0.017,0.019,0.022,0.039,0.035,0.057l0,0
			C9.697,35.417,9.687,35.396,9.674,35.377z"/>
		<path fill="#712C70" d="M27.611,26.537c2.987,0,5.408,2.538,5.408,5.669c0,3.131-2.421,5.669-5.408,5.669
			c2.988,0,5.408-2.539,5.408-5.668C33.021,29.075,30.6,26.537,27.611,26.537z"/>
		<path fill="#712C70" d="M22.273,33.086L22.273,33.086c0.006,0.04,0.01,0.08,0.016,0.119l0,0
			C22.283,33.166,22.279,33.126,22.273,33.086z"/>
		<polygon fill="#712C70" points="22.202,32.207 22.202,32.207 22.202,32.208 		"/>
		<path fill="#712C70" d="M22.477,33.953C22.477,33.953,22.477,33.953,22.477,33.953c0.018,0.062,0.039,0.125,0.057,0.187l0,0
			C22.512,34.079,22.496,34.015,22.477,33.953z"/>
		<path fill="#712C70" d="M9.95,32.027c0,1.291,0.501,2.458,1.308,3.304S13.18,36.7,14.414,36.7c2.467,0,4.463-2.092,4.463-4.672
			c0-0.89-0.243-1.718-0.656-2.428c-0.088-0.476-0.368-0.879-0.75-1.123c-0.241-0.156-0.525-0.247-0.831-0.247
			c-0.89,0-1.614,0.756-1.614,1.69c0,0.467,0.181,0.889,0.473,1.194c0.295,0.305,0.699,0.494,1.141,0.494
			c0.888,0,1.612-0.755,1.612-1.688c0-0.077-0.017-0.153-0.022-0.228c0.001,0.001,0.001,0.003,0.001,0.005c0-0.002,0-0.003,0-0.004
			c0.074,0.253,0.122,0.514,0.122,0.792c0,1.622-1.254,2.938-2.803,2.938c-0.775,0-1.479-0.329-1.982-0.862
			c-0.508-0.53-0.822-1.265-0.822-2.076c0-1.621,1.256-2.938,2.803-2.938c0.072,0,0.139,0.016,0.208,0.022
			c-0.422-0.14-0.874-0.216-1.34-0.216C11.947,27.354,9.95,29.445,9.95,32.027z"/>
		<path fill="#712C70" d="M9.95,32.027c0-2.582,1.999-4.673,4.465-4.673c0.466,0,0.918,0.077,1.34,0.216c0,0,0.003,0,0.005,0
			c-0.424-0.141-0.877-0.217-1.346-0.217C11.948,27.354,9.949,29.445,9.95,32.027c-0.001,1.29,0.499,2.458,1.308,3.304
			C10.449,34.485,9.95,33.317,9.95,32.027z"/>
		<path fill="#712C70" d="M18.348,30.485c0-0.277-0.049-0.539-0.121-0.792c0,0.001,0,0.002,0,0.004
			C18.297,29.949,18.348,30.209,18.348,30.485c0,1.621-1.257,2.937-2.803,2.937c-0.774,0-1.478-0.328-1.982-0.861
			c0.508,0.532,1.208,0.862,1.982,0.862C17.092,33.422,18.348,32.107,18.348,30.485z"/>
		<path fill="#712C70" d="M16.635,28.23c0.307,0,0.59,0.091,0.83,0.247C17.225,28.321,16.94,28.229,16.635,28.23
			c-0.891-0.001-1.613,0.755-1.613,1.69c0,0.467,0.182,0.888,0.473,1.194c-0.291-0.306-0.473-0.727-0.473-1.194
			C15.021,28.987,15.744,28.23,16.635,28.23z"/>
		<path fill="#712C70" d="M32.093,32.163c0-1.261-0.479-2.402-1.255-3.243c0.296,0.464,0.47,1.021,0.47,1.622
			c0,1.621-1.257,2.937-2.804,2.937c-1.549,0-2.807-1.316-2.807-2.937c0-1.621,1.258-2.937,2.807-2.937
			c0.059,0,0.113,0.016,0.172,0.019c-0.334-0.085-0.686-0.135-1.045-0.135c-0.309,0-0.608,0.032-0.898,0.094
			c-0.254,0.055-0.501,0.132-0.733,0.23c-1.658,0.684-2.825,2.374-2.825,4.35c0,2.581,1.996,4.673,4.46,4.673
			c0.155,0,0.308-0.009,0.457-0.024C30.338,36.573,32.093,34.582,32.093,32.163z"/>
		<path fill="#712C70" d="M25.996,27.813c-1.656,0.684-2.823,2.374-2.823,4.35C23.169,30.188,24.34,28.497,25.996,27.813z"/>
		<path fill="#712C70" d="M28.088,36.812c2.25-0.239,4.002-2.229,4.002-4.649C32.093,34.582,30.338,36.573,28.088,36.812z"/>
		<polygon fill="#712C70" points="28.676,27.625 28.676,27.625 28.675,27.625 		"/>
		<path fill="#712C70" d="M28.505,27.606c0.058,0,0.113,0.015,0.171,0.019l0,0C28.618,27.62,28.562,27.606,28.505,27.606z"/>
		<path fill="#712C70" d="M27.803,29.724c0,0.933,0.727,1.689,1.61,1.689c0.11,0,0.22-0.012,0.327-0.035
			c0.732-0.156,1.288-0.839,1.288-1.654c0-0.7-0.406-1.299-0.982-1.556c-0.194-0.085-0.405-0.133-0.632-0.133
			C28.529,28.035,27.803,28.79,27.803,29.724z"/>
		<path fill="#712C70" d="M27.803,29.724c0,0.934,0.725,1.689,1.61,1.689C28.529,31.413,27.803,30.656,27.803,29.724z"/>
		<path fill="#712C70" d="M27.803,29.724c0-0.933,0.727-1.689,1.61-1.689C28.525,28.035,27.803,28.79,27.803,29.724z"/>
		<path fill="#712C70" d="M20.457,16.312c-11.188,0-20.252,9.067-20.252,20.253c0,1.053,0.077,2.088,0.234,3.098
			c0.194-0.564,0.562-0.977,1.23-1.072c0.344-0.049,0.655-0.09,0.938-0.09c0.775,0,1.238,0.316,1.824,0.903
			c0.42,0.423,1.152,1.475,2.002,2.692c0.814,1.172,1.738,2.506,2.213,2.976c0.495,0.499,0.771,0.967,1.014,1.384
			c0.277,0.474,0.516,0.881,1.057,1.344c0.668,0.574,1.167,0.677,1.998,0.85c0.389,0.08,0.826,0.172,1.354,0.33
			c0.451,0.137,0.881,0.232,1.293,0.326c1.057,0.239,2.053,0.465,2.971,1.25c0.117,0.104,0.24,0.204,0.363,0.305
			c1.029,0.855,2.313,1.918,1.578,3.754c-0.318,0.789-0.688,1.509-1.113,2.159c0.428,0.026,0.855,0.046,1.291,0.046
			c11.188,0,20.252-9.067,20.252-20.25C40.711,25.38,31.644,16.312,20.457,16.312z M10.425,36.323
			c-0.06-0.061-0.111-0.125-0.171-0.187c-0.047-0.049-0.089-0.1-0.135-0.151c-0.037-0.043-0.077-0.084-0.112-0.129
			c-0.107-0.135-0.204-0.276-0.298-0.42c-0.013-0.018-0.019-0.037-0.033-0.055c-0.128-0.203-0.242-0.412-0.346-0.632
			c-0.011-0.019-0.021-0.039-0.03-0.057c-0.103-0.223-0.187-0.455-0.261-0.693c-0.014-0.038-0.023-0.077-0.034-0.116
			c-0.07-0.236-0.123-0.48-0.163-0.729c-0.006-0.035-0.01-0.07-0.015-0.105c-0.035-0.261-0.058-0.526-0.058-0.797
			c0-0.263,0.022-0.521,0.055-0.774c0.016-0.112,0.027-0.224,0.047-0.334c0-0.002,0.002-0.007,0.002-0.011
			c0.017-0.086,0.043-0.17,0.062-0.259c0.021-0.089,0.042-0.18,0.067-0.267c0.023-0.089,0.055-0.173,0.084-0.261
			c0.027-0.082,0.055-0.165,0.086-0.246c0.033-0.085,0.072-0.168,0.107-0.252c0.037-0.077,0.07-0.154,0.108-0.229
			c0.042-0.082,0.085-0.161,0.132-0.242c0.043-0.073,0.079-0.146,0.125-0.215c0.047-0.078,0.1-0.152,0.149-0.226
			c0.046-0.067,0.095-0.136,0.144-0.202c0.052-0.072,0.109-0.141,0.17-0.21c0.053-0.062,0.108-0.125,0.163-0.187
			c0.06-0.065,0.121-0.129,0.185-0.192c0.058-0.058,0.117-0.115,0.178-0.17c0.064-0.06,0.133-0.118,0.201-0.174
			c0.064-0.053,0.131-0.104,0.197-0.154c0.071-0.052,0.141-0.104,0.213-0.152c0.069-0.048,0.139-0.092,0.212-0.137
			c0.075-0.045,0.146-0.09,0.224-0.131c0.076-0.041,0.151-0.079,0.232-0.117c0.076-0.037,0.149-0.074,0.229-0.107
			c0.082-0.035,0.17-0.066,0.253-0.097c0.077-0.028,0.152-0.058,0.232-0.082c0.091-0.028,0.185-0.051,0.277-0.075
			c0.077-0.019,0.149-0.041,0.228-0.057c0.108-0.021,0.212-0.036,0.321-0.051c0.068-0.01,0.134-0.023,0.202-0.03
			c0.17-0.017,0.346-0.027,0.521-0.028c0.004,0,0.008,0,0.013,0l0,0c2.988,0,5.412,2.538,5.412,5.668
			c0,0.209-0.013,0.416-0.033,0.618c-0.007,0.066-0.02,0.13-0.028,0.198c-0.02,0.135-0.039,0.27-0.066,0.402
			c-0.016,0.077-0.036,0.149-0.055,0.225c-0.029,0.12-0.062,0.236-0.099,0.354c-0.024,0.075-0.051,0.15-0.079,0.224
			c-0.04,0.111-0.08,0.22-0.13,0.329c-0.032,0.072-0.065,0.143-0.099,0.214c-0.051,0.106-0.107,0.208-0.165,0.311
			c-0.037,0.067-0.075,0.135-0.114,0.199c-0.063,0.103-0.132,0.203-0.202,0.301c-0.044,0.057-0.08,0.116-0.122,0.171
			c-0.082,0.105-0.172,0.207-0.26,0.307c-0.038,0.042-0.073,0.085-0.108,0.127c-0.318,0.338-0.679,0.63-1.072,0.876
			c-0.032,0.021-0.063,0.042-0.095,0.061c-0.233,0.141-0.479,0.261-0.73,0.364c-0.021,0.009-0.047,0.018-0.068,0.026
			c-0.588,0.23-1.227,0.361-1.891,0.361l0,0c-0.023,0-0.046-0.002-0.072-0.003c-0.03-0.002-0.062-0.004-0.094-0.005
			c-0.131-0.003-0.262-0.006-0.389-0.02c-0.003,0-0.006,0-0.008-0.002c-0.059-0.005-0.113-0.019-0.171-0.027
			c-0.016-0.003-0.028-0.004-0.046-0.007c-0.174-0.027-0.349-0.062-0.519-0.105c-0.019-0.006-0.046-0.012-0.068-0.018
			c-0.077-0.022-0.165-0.04-0.243-0.066c-0.076-0.024-0.146-0.057-0.223-0.086c-0.033-0.012-0.063-0.023-0.095-0.036
			c-0.042-0.017-0.083-0.031-0.125-0.047c-0.017-0.007-0.038-0.014-0.054-0.021c-0.062-0.027-0.115-0.063-0.175-0.092
			c-0.085-0.043-0.171-0.085-0.251-0.13c-0.076-0.042-0.148-0.081-0.223-0.125c-0.035-0.021-0.068-0.043-0.104-0.065
			c-0.076-0.048-0.148-0.105-0.223-0.158c-0.076-0.055-0.15-0.108-0.223-0.167c-0.035-0.029-0.07-0.057-0.109-0.086
			c-0.041-0.033-0.076-0.073-0.113-0.107c-0.025-0.024-0.051-0.047-0.078-0.074C10.53,36.42,10.477,36.375,10.425,36.323z
			 M20.312,46.048c-0.321,0.012-0.645-0.012-0.969-0.066c-2.587-0.457-5.291-0.856-8.03-6.487c0,0,0.065-0.019,0.2-0.022
			c0.047,0,0.109,0.001,0.172,0.006c0.469,0.041,1.375,0.288,2.676,1.387c1.975,1.672,1.671,2.131,3.803,2.283
			c0.043,0.003,0.075,0.004,0.113,0.008c1.932,0.121,1.039-0.295,3.118-0.168c0.04,0.003,0.073,0.004,0.114,0.008
			c0.13,0.008,0.234,0.033,0.353,0.047c0.411,0.055,0.783,0.137,1.088,0.254c1.175,0.449,1.603,1.219,1.603,1.219
			S22.547,45.986,20.312,46.048z M27.611,37.875c-0.15,0-0.301-0.009-0.452-0.024c-0.033-0.003-0.068-0.001-0.101-0.005
			c-0.106-0.012-0.205-0.032-0.307-0.05c-0.08-0.012-0.154-0.02-0.233-0.037c-0.035-0.007-0.065-0.021-0.099-0.03
			c-0.21-0.049-0.412-0.115-0.609-0.189c-0.068-0.024-0.141-0.042-0.201-0.07c-0.257-0.107-0.505-0.235-0.74-0.383
			c-0.07-0.043-0.133-0.096-0.201-0.142c-0.162-0.112-0.324-0.227-0.473-0.357c-0.086-0.074-0.168-0.154-0.248-0.234
			c-0.117-0.116-0.232-0.234-0.342-0.361c-0.045-0.046-0.09-0.087-0.129-0.137c-0.016-0.015-0.027-0.029-0.041-0.044
			c-0.033-0.041-0.061-0.087-0.094-0.13c-0.015-0.02-0.025-0.045-0.041-0.066c-0.102-0.141-0.19-0.29-0.277-0.44
			c-0.046-0.077-0.102-0.149-0.143-0.229c-0.01-0.019-0.016-0.037-0.026-0.056c-0.12-0.232-0.226-0.472-0.312-0.721
			c-0.007-0.011-0.008-0.021-0.014-0.032c-0.018-0.062-0.037-0.125-0.057-0.187c-0.075-0.245-0.141-0.492-0.186-0.748
			c-0.008-0.039-0.01-0.078-0.015-0.118c-0.046-0.286-0.071-0.58-0.071-0.879l0,0l0,0c0-3.131,2.418-5.669,5.406-5.669
			s5.409,2.538,5.409,5.67C33.021,35.336,30.6,37.875,27.611,37.875z"/>
		<path fill="#712C70" d="M12.896,26.75c-0.09,0.022-0.182,0.044-0.27,0.072C12.715,26.794,12.807,26.772,12.896,26.75z"/>
		<path fill="#712C70" d="M10.271,28.341c-0.05,0.057-0.104,0.115-0.151,0.174C10.17,28.457,10.219,28.398,10.271,28.341z"/>
		<path fill="#712C70" d="M12.387,26.908c-0.078,0.031-0.162,0.058-0.239,0.093C12.227,26.966,12.308,26.938,12.387,26.908z"/>
		<path fill="#712C70" d="M9.941,28.738C9.895,28.8,9.85,28.864,9.805,28.927C9.85,28.864,9.895,28.8,9.941,28.738z"/>
		<path fill="#712C70" d="M13.445,26.641c-0.107,0.016-0.213,0.029-0.316,0.05C13.232,26.67,13.34,26.656,13.445,26.641z"/>
		<path fill="#712C70" d="M10.467,28.138c0.053-0.055,0.108-0.108,0.168-0.159C10.576,28.031,10.521,28.084,10.467,28.138z"/>
		<path fill="#712C70" d="M11.451,27.362c-0.068,0.042-0.135,0.083-0.2,0.128C11.318,27.445,11.385,27.403,11.451,27.362z"/>
		<path fill="#712C70" d="M11.029,27.651c-0.062,0.046-0.123,0.094-0.184,0.144C10.904,27.746,10.967,27.698,11.029,27.651z"/>
		<path fill="#712C70" d="M11.906,27.113c-0.075,0.037-0.146,0.071-0.219,0.11C11.76,27.185,11.832,27.149,11.906,27.113z"/>
		<path fill="#712C70" d="M9.006,30.606c-0.023,0.086-0.045,0.174-0.064,0.262C8.963,30.78,8.982,30.692,9.006,30.606z"/>
		<path fill="#712C70" d="M9.393,29.62c-0.036,0.073-0.068,0.147-0.104,0.221C9.324,29.767,9.357,29.692,9.393,29.62z"/>
		<path fill="#712C70" d="M8.877,31.142c-0.018,0.109-0.034,0.222-0.047,0.334c0.017-0.116,0.029-0.231,0.051-0.344
			C8.88,31.136,8.878,31.139,8.877,31.142z"/>
		<path fill="#712C70" d="M9.178,30.101c-0.031,0.078-0.055,0.159-0.08,0.24C9.121,30.261,9.146,30.179,9.178,30.101z"/>
		<path fill="#712C70" d="M9.646,29.165c-0.043,0.066-0.078,0.136-0.118,0.205C9.568,29.301,9.607,29.232,9.646,29.165z"/>
		<path fill="#712C70" d="M14.173,26.583c-0.177,0-0.353,0.01-0.522,0.027C13.821,26.592,13.996,26.583,14.173,26.583z"/>
		<path fill="#712C70" d="M14.02,37.91c0.031,0.001,0.062,0.003,0.092,0.005c-0.025-0.002-0.051-0.003-0.078-0.004
			C14.028,37.911,14.025,37.91,14.02,37.91z"/>
		<path fill="#712C70" d="M9.006,30.606L9.006,30.606c-0.025,0.087-0.047,0.178-0.065,0.267c0.001-0.001,0.001-0.003,0.001-0.005
			C8.963,30.78,8.982,30.692,9.006,30.606z"/>
		<path fill="#712C70" d="M14.173,26.583L14.173,26.583c-0.177,0-0.354,0.01-0.522,0.027l0,0
			C13.821,26.592,13.996,26.583,14.173,26.583z"/>
		<path fill="#712C70" d="M11.906,27.113c0.002-0.001,0.006-0.002,0.01-0.004c-0.078,0.038-0.156,0.076-0.232,0.117
			c0.002,0,0.002-0.001,0.004-0.002C11.76,27.185,11.832,27.149,11.906,27.113z"/>
		<polygon fill="#712C70" points="8.88,31.132 8.877,31.142 8.88,31.132 		"/>
		<path fill="#712C70" d="M12.896,26.75c0.002-0.001,0.004-0.001,0.007-0.001c-0.093,0.024-0.187,0.046-0.277,0.075
			c0.001,0,0.001,0,0.001,0C12.715,26.794,12.807,26.772,12.896,26.75z"/>
		<path fill="#712C70" d="M13.445,26.641c0,0,0.003,0,0.005,0c-0.108,0.016-0.214,0.03-0.321,0.051l0,0
			C13.232,26.67,13.34,26.656,13.445,26.641z"/>
		<path fill="#712C70" d="M12.387,26.908c0.004-0.001,0.006-0.002,0.01-0.003c-0.084,0.032-0.172,0.062-0.254,0.097
			c0.002,0,0.002,0,0.005-0.001C12.227,26.966,12.308,26.938,12.387,26.908z"/>
		<path fill="#712C70" d="M10.635,27.979c0.001-0.001,0.003-0.003,0.006-0.005c-0.061,0.056-0.121,0.112-0.179,0.17
			c0.002-0.002,0.007-0.003,0.009-0.005C10.521,28.084,10.576,28.031,10.635,27.979z"/>
		<path fill="#712C70" d="M9.941,28.738c0-0.001,0.002-0.003,0.003-0.005c-0.048,0.066-0.096,0.134-0.142,0.202
			c0.002-0.002,0.004-0.005,0.006-0.007C9.85,28.864,9.895,28.8,9.941,28.738z"/>
		<path fill="#712C70" d="M9.178,30.101L9.178,30.101c-0.031,0.08-0.057,0.163-0.085,0.245c0.001-0.001,0.001-0.003,0.005-0.005
			C9.121,30.26,9.146,30.179,9.178,30.101z"/>
		<path fill="#712C70" d="M10.271,28.341c0.001-0.001,0.003-0.003,0.005-0.005c-0.055,0.062-0.109,0.124-0.163,0.187
			c0.003-0.002,0.005-0.004,0.007-0.006C10.17,28.457,10.219,28.398,10.271,28.341z"/>
		<path fill="#712C70" d="M9.646,29.165c0.002,0,0.002-0.002,0.004-0.003c-0.047,0.07-0.082,0.143-0.125,0.215
			c0.002-0.002,0.002-0.005,0.003-0.007C9.568,29.301,9.607,29.232,9.646,29.165z"/>
		<path fill="#712C70" d="M11.029,27.651c0.002-0.001,0.004-0.004,0.006-0.005c-0.065,0.05-0.132,0.102-0.195,0.155
			c0.002-0.001,0.004-0.003,0.006-0.004C10.906,27.746,10.967,27.698,11.029,27.651z"/>
		<path fill="#712C70" d="M9.393,29.62c0,0,0-0.001,0-0.002c-0.038,0.075-0.07,0.152-0.105,0.229c0-0.001,0.002-0.003,0.002-0.006
			C9.324,29.767,9.357,29.692,9.393,29.62z"/>
		<path fill="#712C70" d="M11.451,27.362c0.004-0.001,0.008-0.003,0.012-0.005c-0.074,0.044-0.145,0.089-0.215,0.137
			c0.002-0.001,0.005-0.002,0.007-0.004C11.318,27.445,11.385,27.403,11.451,27.362z"/>
		<path fill="#712C70" d="M10.254,36.137c-0.045-0.049-0.088-0.1-0.131-0.151C10.166,36.038,10.211,36.086,10.254,36.137z"/>
		<path fill="#712C70" d="M9.328,34.749c-0.009-0.02-0.019-0.04-0.028-0.059C9.309,34.709,9.321,34.729,9.328,34.749z"/>
		<path fill="#712C70" d="M9.041,33.998c-0.014-0.039-0.023-0.078-0.035-0.116C9.018,33.921,9.027,33.958,9.041,33.998z"/>
		<path fill="#712C70" d="M11.328,37.06c0.033,0.022,0.067,0.044,0.104,0.065c-0.018-0.011-0.036-0.025-0.053-0.036
			C11.36,37.08,11.344,37.07,11.328,37.06z"/>
		<path fill="#712C70" d="M8.845,33.151c-0.005-0.034-0.011-0.069-0.015-0.104C8.836,33.083,8.84,33.117,8.845,33.151z"/>
		<path fill="#712C70" d="M10.776,36.649c-0.043-0.033-0.077-0.073-0.116-0.107C10.699,36.577,10.736,36.614,10.776,36.649z"/>
		<path fill="#712C70" d="M9.709,35.436c-0.013-0.019-0.019-0.038-0.033-0.057C9.688,35.397,9.697,35.417,9.709,35.436z"/>
		<path fill="#712C70" d="M27.611,26.537c-2.988,0-5.407,2.538-5.407,5.669l0,0C22.202,29.075,24.623,26.537,27.611,26.537z"/>
		<path fill="#712C70" d="M27.611,37.875c-0.15,0-0.299-0.012-0.452-0.024C27.309,37.866,27.46,37.875,27.611,37.875z"/>
		<path fill="#712C70" d="M27.058,37.846c0.033,0.004,0.068,0.002,0.101,0.005c-0.088-0.009-0.176-0.023-0.264-0.035
			C26.95,37.823,27.002,37.84,27.058,37.846z"/>
		<path fill="#712C70" d="M14.184,37.918c0.668,0,1.303-0.132,1.891-0.362c-0.543,0.211-1.125,0.336-1.732,0.355
			C14.287,37.912,14.238,37.918,14.184,37.918z"/>
		<path fill="#712C70" d="M16.966,37.105c0.39-0.247,0.754-0.538,1.073-0.875c-0.131,0.138-0.267,0.27-0.41,0.394
			C17.421,36.803,17.197,36.96,16.966,37.105z"/>
		<path fill="#712C70" d="M16.871,37.167c-0.232,0.14-0.479,0.262-0.73,0.364C16.395,37.427,16.639,37.306,16.871,37.167z"/>
		<path fill="#712C70" d="M19.535,33.066c-0.019,0.134-0.039,0.27-0.066,0.403C19.496,33.334,19.516,33.2,19.535,33.066z"/>
		<path fill="#712C70" d="M19.412,33.69c-0.029,0.12-0.061,0.237-0.098,0.354C19.352,33.927,19.383,33.81,19.412,33.69z"/>
		<path fill="#712C70" d="M18.405,35.794c-0.083,0.106-0.172,0.207-0.259,0.307C18.236,36.001,18.322,35.901,18.405,35.794z"/>
		<path fill="#712C70" d="M19.598,32.25c0,0.209-0.013,0.416-0.033,0.618C19.585,32.665,19.598,32.459,19.598,32.25z"/>
		<path fill="#712C70" d="M18.729,35.322c-0.062,0.103-0.131,0.203-0.201,0.301C18.598,35.524,18.666,35.424,18.729,35.322z"/>
		<path fill="#712C70" d="M19.008,34.812c-0.051,0.106-0.106,0.209-0.164,0.311C18.901,35.021,18.955,34.918,19.008,34.812z"/>
		<path fill="#712C70" d="M19.236,34.269c-0.041,0.11-0.082,0.22-0.131,0.328C19.153,34.489,19.195,34.38,19.236,34.269z"/>
		<path fill="#712C70" d="M18.406,35.792c0.041-0.051,0.076-0.108,0.113-0.16C18.482,35.685,18.447,35.741,18.406,35.792z"/>
		<path fill="#712C70" d="M18.141,36.109c-0.035,0.039-0.067,0.08-0.104,0.119C18.073,36.19,18.105,36.149,18.141,36.109z"/>
		<path fill="#712C70" d="M16.873,37.166c0.031-0.019,0.061-0.039,0.092-0.059C16.934,37.126,16.904,37.147,16.873,37.166z"/>
		<path fill="#712C70" d="M16.078,37.554c0.021-0.007,0.043-0.015,0.062-0.023C16.12,37.539,16.1,37.547,16.078,37.554z"/>
		<path fill="#712C70" d="M19.012,34.803c0.031-0.064,0.061-0.129,0.09-0.196C19.072,34.672,19.043,34.738,19.012,34.803z"/>
		<path fill="#712C70" d="M18.732,35.315c0.037-0.06,0.072-0.122,0.109-0.183C18.803,35.195,18.77,35.257,18.732,35.315z"/>
		<path fill="#712C70" d="M19.539,33.026c0.008-0.051,0.018-0.1,0.023-0.15C19.557,32.927,19.547,32.976,19.539,33.026z"/>
		<path fill="#712C70" d="M19.418,33.671c0.016-0.065,0.035-0.129,0.049-0.195C19.453,33.542,19.436,33.606,19.418,33.671z"/>
		<path fill="#712C70" d="M19.24,34.256c0.023-0.067,0.048-0.134,0.074-0.203C19.289,34.123,19.264,34.189,19.24,34.256z"/>
		<path fill="#712C70" d="M16.078,37.554l-0.002,0.002c0.02-0.009,0.044-0.017,0.066-0.025c0,0-0.001,0-0.002,0
			C16.12,37.539,16.1,37.547,16.078,37.554z"/>
		<path fill="#712C70" d="M16.873,37.166c-0.002,0-0.002,0-0.002,0.001c0.031-0.02,0.062-0.041,0.095-0.062l-0.001,0.001
			C16.934,37.126,16.904,37.147,16.873,37.166z"/>
		<path fill="#712C70" d="M21.396,42.988c-2.079-0.126-1.187,0.29-3.118,0.167C20.209,43.278,19.318,42.862,21.396,42.988z"/>
		<path fill="#712C70" d="M11.314,39.495c0,0,0.066-0.019,0.199-0.022C11.379,39.477,11.313,39.495,11.314,39.495
			c2.738,5.631,5.442,6.029,8.029,6.486c0.326,0.057,0.647,0.077,0.969,0.068c-0.32,0.01-0.643-0.012-0.967-0.068
			C16.757,45.524,14.055,45.126,11.314,39.495z"/>
		<path fill="#712C70" d="M10.254,36.137c0.057,0.062,0.109,0.126,0.172,0.187c-0.047-0.047-0.09-0.104-0.138-0.154
			C10.277,36.159,10.266,36.149,10.254,36.137z"/>
		<path fill="#712C70" d="M11.104,36.9c0.075,0.054,0.146,0.109,0.224,0.159c-0.031-0.019-0.058-0.045-0.088-0.066
			C11.195,36.963,11.149,36.933,11.104,36.9z"/>
		<path fill="#712C70" d="M12.886,37.748c-0.019-0.006-0.046-0.013-0.068-0.019C12.842,37.736,12.865,37.742,12.886,37.748z"/>
		<path fill="#712C70" d="M10.633,36.515c-0.016-0.016-0.033-0.03-0.048-0.046c0.024,0.025,0.05,0.048,0.077,0.074
			C10.65,36.534,10.643,36.524,10.633,36.515z"/>
		<path fill="#712C70" d="M12.352,37.577c-0.031-0.012-0.064-0.023-0.094-0.036C12.289,37.554,12.32,37.566,12.352,37.577z"/>
		<path fill="#712C70" d="M10.008,35.856c0.037,0.045,0.078,0.086,0.115,0.129c-0.006-0.003-0.008-0.008-0.013-0.012
			C10.078,35.933,10.042,35.896,10.008,35.856z"/>
		<path fill="#712C70" d="M10.776,36.649c0.036,0.029,0.07,0.057,0.107,0.086c-0.018-0.014-0.035-0.031-0.051-0.045
			C10.815,36.677,10.794,36.664,10.776,36.649z"/>
		<path fill="#712C70" d="M13.45,37.86c-0.016-0.003-0.026-0.005-0.046-0.006C13.422,37.855,13.436,37.857,13.45,37.86z"/>
		<path fill="#712C70" d="M11.902,37.381c-0.085-0.043-0.172-0.085-0.252-0.13C11.73,37.296,11.817,37.339,11.902,37.381z"/>
		<path fill="#712C70" d="M11.24,36.994c0.03,0.021,0.057,0.047,0.088,0.066c0.016,0.01,0.032,0.019,0.048,0.029
			C11.33,37.058,11.286,37.025,11.24,36.994z"/>
		<path fill="#712C70" d="M10.633,36.515c0.012,0.009,0.016,0.019,0.027,0.027c0.04,0.035,0.078,0.072,0.116,0.107
			c0.017,0.015,0.037,0.026,0.053,0.041C10.763,36.633,10.697,36.574,10.633,36.515z"/>
		<path fill="#712C70" d="M10.113,35.974c0.004,0.003,0.007,0.008,0.012,0.012c0.043,0.051,0.086,0.102,0.133,0.151
			c0.011,0.012,0.021,0.022,0.033,0.033C10.23,36.105,10.17,36.041,10.113,35.974z"/>
		<path fill="#712C70" d="M12.078,37.474c0.016,0.007,0.039,0.013,0.054,0.021c0.042,0.018,0.083,0.032,0.125,0.048
			c-0.109-0.043-0.216-0.094-0.323-0.145C11.984,37.42,12.029,37.452,12.078,37.474z"/>
		<path fill="#712C70" d="M13.45,37.86c0.058,0.008,0.112,0.021,0.171,0.028c0.003,0,0.007,0.001,0.01,0.001
			c0.128,0.014,0.261,0.017,0.389,0.02c0.006,0,0.01,0.001,0.016,0.001C13.837,37.905,13.644,37.888,13.45,37.86z"/>
		<path fill="#712C70" d="M11.378,37.088c0.016,0.012,0.033,0.025,0.049,0.037c0.032,0.019,0.067,0.032,0.098,0.049
			C11.477,37.147,11.424,37.119,11.378,37.088z"/>
		<path fill="#712C70" d="M12.574,37.663c0.078,0.026,0.166,0.044,0.243,0.066c-0.159-0.043-0.314-0.094-0.466-0.152
			C12.428,37.606,12.499,37.639,12.574,37.663z"/>
		<path fill="#712C70" d="M13.406,37.853c-0.175-0.026-0.35-0.062-0.519-0.105C13.059,37.792,13.23,37.827,13.406,37.853z"/>
		<path fill="#712C70" d="M10.583,36.47c-0.051-0.049-0.108-0.095-0.159-0.147C10.477,36.375,10.53,36.42,10.583,36.47z"/>
		<path fill="#712C70" d="M11.902,37.381c0.061,0.029,0.113,0.065,0.174,0.092c-0.047-0.021-0.094-0.053-0.141-0.077
			C11.924,37.39,11.914,37.386,11.902,37.381z"/>
		<path fill="#712C70" d="M11.429,37.125c0.075,0.045,0.147,0.083,0.224,0.125c-0.046-0.024-0.085-0.05-0.127-0.076
			C11.494,37.158,11.459,37.144,11.429,37.125z"/>
		<path fill="#712C70" d="M11.104,36.9c-0.077-0.054-0.15-0.107-0.223-0.166C10.954,36.793,11.029,36.847,11.104,36.9z"/>
		<path fill="#712C70" d="M18.52,35.632c0.003-0.004,0.006-0.007,0.009-0.009c0.07-0.098,0.14-0.199,0.202-0.301
			c0.002-0.002,0.003-0.003,0.004-0.006C18.666,35.424,18.594,35.529,18.52,35.632z"/>
		<path fill="#712C70" d="M18.84,35.133c0-0.002,0.004-0.006,0.004-0.01c0.058-0.102,0.11-0.205,0.164-0.311
			c0.002-0.003,0.002-0.006,0.004-0.009C18.957,34.916,18.899,35.025,18.84,35.133z"/>
		<path fill="#712C70" d="M17.627,36.623c0.141-0.124,0.279-0.255,0.41-0.394l0.001-0.001
			C17.908,36.368,17.771,36.499,17.627,36.623z"/>
		<path fill="#712C70" d="M18.141,36.109c0.001-0.002,0.006-0.005,0.008-0.008c0.088-0.1,0.174-0.202,0.26-0.307
			c0.001-0.001,0.001-0.002,0.001-0.003C18.322,35.902,18.232,36.007,18.141,36.109z"/>
		<path fill="#712C70" d="M19.312,34.052c0.001-0.002,0.002-0.006,0.004-0.009c0.035-0.116,0.068-0.233,0.098-0.353
			c0.002-0.007,0.004-0.014,0.006-0.021C19.387,33.801,19.352,33.927,19.312,34.052z"/>
		<path fill="#712C70" d="M19.102,34.608c0.002-0.003,0.004-0.007,0.004-0.01c0.047-0.108,0.09-0.218,0.131-0.328
			c0.002-0.004,0.004-0.009,0.008-0.014C19.198,34.375,19.152,34.492,19.102,34.608z"/>
		<path fill="#712C70" d="M19.467,33.475c0-0.003,0.002-0.004,0.002-0.008c0.027-0.132,0.046-0.266,0.066-0.401
			c0.002-0.014,0.004-0.026,0.005-0.04C19.52,33.179,19.498,33.329,19.467,33.475z"/>
		<path fill="#712C70" d="M19.596,32.25c0,0.213-0.014,0.421-0.033,0.627c0-0.004,0.002-0.006,0.002-0.009
			C19.585,32.665,19.598,32.459,19.596,32.25c0.002-3.13-2.422-5.668-5.41-5.668C17.172,26.583,19.596,29.119,19.596,32.25z"/>
		<path fill="#712C70" d="M19.24,34.256c-0.002,0.004-0.004,0.009-0.004,0.013c0.025-0.074,0.053-0.149,0.078-0.224
			c-0.001,0.002-0.003,0.005-0.004,0.009C19.289,34.123,19.264,34.189,19.24,34.256z"/>
		<path fill="#712C70" d="M18.038,36.229L18.038,36.229c0.038-0.04,0.073-0.085,0.108-0.127c-0.002,0.003-0.006,0.006-0.008,0.008
			C18.105,36.149,18.073,36.19,18.038,36.229z"/>
		<path fill="#712C70" d="M19.539,33.026c-0.002,0.013-0.004,0.026-0.005,0.04c0.009-0.066,0.022-0.132,0.028-0.198
			c0,0.002,0,0.005,0,0.009C19.557,32.927,19.547,32.976,19.539,33.026z"/>
		<path fill="#712C70" d="M18.732,35.315c-0.002,0.002-0.002,0.004-0.004,0.005c0.041-0.064,0.078-0.132,0.115-0.198
			c-0.002,0.003-0.004,0.006-0.006,0.01C18.803,35.195,18.77,35.257,18.732,35.315z"/>
		<path fill="#712C70" d="M19.418,33.671c-0.002,0.006-0.004,0.013-0.006,0.02c0.02-0.074,0.041-0.147,0.057-0.224
			c0,0.004-0.002,0.005-0.002,0.008C19.453,33.542,19.436,33.606,19.418,33.671z"/>
		<path fill="#712C70" d="M18.406,35.792c-0.001,0-0.001,0.002-0.001,0.003c0.042-0.056,0.077-0.114,0.122-0.172
			c-0.004,0.002-0.006,0.005-0.008,0.01C18.482,35.685,18.447,35.741,18.406,35.792z"/>
		<path fill="#712C70" d="M19.012,34.803c-0.002,0.004-0.004,0.007-0.004,0.008c0.034-0.07,0.067-0.142,0.098-0.214
			c0,0.002-0.002,0.007-0.004,0.009C19.072,34.672,19.043,34.738,19.012,34.803z"/>
		<path fill="#712C70" d="M22.533,34.14c-0.018-0.062-0.037-0.125-0.057-0.187C22.496,34.015,22.512,34.079,22.533,34.14z"/>
		<path fill="#712C70" d="M22.289,33.206c-0.008-0.039-0.012-0.08-0.015-0.118C22.279,33.126,22.283,33.166,22.289,33.206z"/>
		<path fill="#712C70" d="M22.854,34.892c0.009,0.018,0.015,0.037,0.026,0.056c-0.004-0.007-0.007-0.016-0.012-0.025
			C22.867,34.913,22.857,34.903,22.854,34.892z"/>
		<path fill="#712C70" d="M22.289,33.206L22.289,33.206c0.047,0.255,0.11,0.503,0.186,0.748l0,0
			C22.399,33.708,22.334,33.461,22.289,33.206z"/>
		<path fill="#712C70" d="M22.533,34.14c0.005,0.01,0.006,0.02,0.012,0.031C22.539,34.16,22.536,34.149,22.533,34.14L22.533,34.14z"
			/>
		<path fill="#712C70" d="M22.202,32.208L22.202,32.208c0,0.3,0.024,0.592,0.071,0.879l0,0C22.23,32.8,22.202,32.507,22.202,32.208z
			"/>
		<path fill="#712C70" d="M22.202,32.208c0,0.3,0.024,0.592,0.071,0.878C22.23,32.799,22.202,32.507,22.202,32.208z"/>
		<path fill="#712C70" d="M22.98,35.103c0.015,0.024,0.03,0.048,0.045,0.073c0.088,0.15,0.176,0.301,0.278,0.44
			c0,0.002,0,0.002,0,0.002C23.187,35.454,23.081,35.279,22.98,35.103z"/>
		<path fill="#712C70" d="M22.533,34.14c0.005,0.01,0.006,0.02,0.012,0.031c0.037,0.103,0.088,0.198,0.132,0.298
			C22.628,34.359,22.573,34.253,22.533,34.14z"/>
		<path fill="#712C70" d="M22.289,33.206c0.047,0.255,0.11,0.503,0.186,0.747C22.399,33.708,22.334,33.461,22.289,33.206z"/>
		<path fill="#712C70" d="M25.811,37.539c-0.07-0.024-0.141-0.042-0.201-0.07C25.674,37.497,25.744,37.515,25.811,37.539z"/>
		<path fill="#712C70" d="M23.345,35.684c0.032,0.043,0.06,0.087,0.093,0.128c0.015,0.016,0.025,0.029,0.041,0.044
			c0.039,0.049,0.084,0.09,0.129,0.138c-0.107-0.123-0.205-0.245-0.301-0.375C23.319,35.638,23.33,35.663,23.345,35.684z"/>
		<path fill="#712C70" d="M22.873,34.923c0.004,0.007,0.008,0.016,0.014,0.025c0.025,0.054,0.068,0.102,0.098,0.155
			C22.945,35.042,22.905,34.985,22.873,34.923z"/>
		<path fill="#712C70" d="M26.421,37.729c0.035,0.009,0.065,0.023,0.1,0.03c0.078,0.017,0.155,0.024,0.233,0.037
			c0.046,0.009,0.094,0.013,0.141,0.02C26.736,37.793,26.576,37.766,26.421,37.729z"/>
		<path fill="#712C70" d="M24.867,37.087c-0.069-0.043-0.134-0.096-0.2-0.142C24.735,36.991,24.798,37.044,24.867,37.087z"/>
		<path fill="#712C70" d="M24.195,36.588c-0.086-0.073-0.168-0.154-0.248-0.233C24.03,36.434,24.109,36.514,24.195,36.588z"/>
		<path fill="#712C70" d="M23.947,36.354c-0.119-0.116-0.233-0.234-0.344-0.361C23.714,36.12,23.828,36.238,23.947,36.354z"/>
		<path fill="#712C70" d="M26.421,37.729c-0.204-0.048-0.409-0.115-0.606-0.189C26.012,37.614,26.213,37.68,26.421,37.729z"/>
		<path fill="#712C70" d="M22.541,34.17c0.087,0.249,0.193,0.489,0.313,0.722c-0.073-0.136-0.121-0.281-0.181-0.424
			C22.633,34.368,22.578,34.273,22.541,34.17z"/>
		<path fill="#712C70" d="M24.668,36.945c-0.164-0.112-0.326-0.228-0.473-0.357C24.346,36.717,24.504,36.833,24.668,36.945z"/>
		<path fill="#712C70" d="M25.609,37.47c-0.259-0.107-0.507-0.235-0.742-0.383C25.103,37.234,25.351,37.363,25.609,37.47z"/>
		<path fill="#712C70" d="M23.304,35.616c-0.103-0.14-0.19-0.29-0.278-0.44C23.113,35.327,23.201,35.477,23.304,35.616z"/>
		<path fill="#712C70" d="M26.752,37.796c0.102,0.018,0.201,0.038,0.306,0.05c-0.056-0.006-0.109-0.022-0.167-0.03
			C26.847,37.809,26.797,37.805,26.752,37.796z"/>
		<path fill="#712C70" d="M22.674,34.468c0.06,0.142,0.108,0.288,0.181,0.424c0.003,0.011,0.013,0.021,0.015,0.031
			C22.797,34.779,22.738,34.623,22.674,34.468z"/>
		<path fill="#712C70" d="M23.304,35.616c0.016,0.021,0.026,0.046,0.042,0.066c-0.015-0.019-0.021-0.044-0.042-0.064
			C23.304,35.618,23.304,35.618,23.304,35.616z"/>
		<path fill="#712C70" d="M22.885,34.948c0.042,0.08,0.096,0.15,0.139,0.228c-0.013-0.023-0.028-0.049-0.043-0.073
			C22.95,35.05,22.912,35.002,22.885,34.948z"/>
		<path fill="#712C70" d="M17.959,51.759c-0.131-0.107-0.258-0.211-0.385-0.32c-0.695-0.594-1.479-0.771-2.467-0.996
			c-0.434-0.1-0.885-0.202-1.373-0.348c-0.48-0.141-0.893-0.23-1.26-0.304c-0.872-0.182-1.621-0.337-2.52-1.105
			c-0.688-0.591-1.012-1.147-1.302-1.638c-0.229-0.389-0.443-0.755-0.833-1.145c-0.545-0.545-1.462-1.863-2.35-3.139
			c-0.746-1.074-1.516-2.182-1.866-2.532c-0.509-0.509-0.694-0.562-0.998-0.562c-0.202,0-0.483,0.037-0.775,0.078
			c-0.597,0.086-0.419,1.867-0.313,2.93c0.055,0.533,0.373,1.641,0.795,2.889c0.76,2.266,1.852,4.984,2.316,5.544
			c0.791,0.949,3.996,4.31,4.027,4.347l0.05,0.062c0.591,0.826,0.576,1.598,0.448,2.11c0.73,0.288,2.07,0.806,3.188,1.252
			c0.485,0.194,1.108,0.296,1.851,0.296c0.647,0,1.221-0.078,1.507-0.129c0.233-0.287,0.753-0.888,1.36-1.498
			c0.274-0.273,0.527-0.582,0.769-0.908c0.534-0.709,0.997-1.529,1.369-2.459C19.6,53.181,19.049,52.663,17.959,51.759z"/>
	</g>
</g>
<text transform="matrix(1 0 0 1 8.625 71.1572)" fill="#712C70" font-family="'Lato'" font-size="11">Care</text>
</svg>
