<?xml version="1.0" encoding="utf-8"?>
<!-- Generator: Adobe Illustrator 16.0.0, SVG Export Plug-In . SVG Version: 6.00 Build 0)  -->
<!DOCTYPE svg PUBLIC "-//W3C//DTD SVG 1.1//EN" "http://www.w3.org/Graphics/SVG/1.1/DTD/svg11.dtd">
<svg version="1.1" id="Layer_1" xmlns="http://www.w3.org/2000/svg" xmlns:xlink="http://www.w3.org/1999/xlink" x="0px" y="0px"
	 width="40.94px" height="76.59px" viewBox="0 0 40.94 76.59" enable-background="new 0 0 40.94 76.59" xml:space="preserve">
<g>
	<path fill="#712C70" d="M20.461,16.304c-11.188,0-20.255,9.068-20.255,20.255c0,11.186,9.068,20.255,20.255,20.255
		c11.186,0,20.254-9.07,20.254-20.255C40.717,25.372,31.648,16.304,20.461,16.304z M26.854,28.523c2.133,0,2.202,2.435,2.202,2.435
		v7.489h-4.389l-0.002-7.487C24.666,30.959,24.719,28.523,26.854,28.523z M11.729,30.98c0,0,0.053-2.435,2.186-2.435
		s2.203,2.435,2.203,2.435v7.489h-4.389V30.98z M20.507,52.556c-5.62,0-10.213-5.106-10.497-11.528
		c-0.01-0.21,21.006-0.176,20.993,0.054C30.695,47.479,26.114,52.556,20.507,52.556z"/>
	<path fill="#712C70" d="M20.416,13.241c1.012,0,1.833-0.577,1.833-1.292V6.297c0-0.714-0.821-1.292-1.833-1.292
		c-1.014,0-1.836,0.577-1.836,1.292v5.653C18.581,12.662,19.402,13.241,20.416,13.241z"/>
	<path fill="#712C70" d="M11.59,14.227c0.233,0.674,1.198,0.954,2.154,0.625c0.959-0.33,1.547-1.144,1.315-1.819l-1.841-5.345
		c-0.232-0.673-1.197-0.954-2.154-0.624C10.107,7.393,9.518,8.207,9.75,8.882L11.59,14.227z"/>
	<path fill="#712C70" d="M5.717,18.463c0.439,0.562,1.441,0.514,2.241-0.108c0.8-0.622,1.095-1.583,0.655-2.146l-3.471-4.461
		c-0.437-0.562-1.441-0.515-2.24,0.106c-0.8,0.623-1.094,1.583-0.656,2.146L5.717,18.463z"/>
	<path fill="#712C70" d="M27.388,14.645c0.957,0.33,1.921,0.052,2.156-0.623l1.841-5.344c0.232-0.674-0.357-1.489-1.313-1.818
		c-0.958-0.33-1.925-0.051-2.159,0.623l-1.84,5.345C25.842,13.501,26.43,14.315,27.388,14.645z"/>
	<path fill="#712C70" d="M33.18,18.07c0.795,0.623,1.801,0.675,2.241,0.113l3.483-4.452c0.438-0.562,0.146-1.524-0.65-2.146
		c-0.797-0.625-1.801-0.676-2.242-0.115l-3.483,4.452C32.091,16.485,32.383,17.446,33.18,18.07z"/>
</g>
<text transform="matrix(1 0 0 1 1.9053 71.1611)" fill="#712C70" font-family="'Lato'" font-size="11">Excited</text>
</svg>
