<?xml version="1.0" encoding="utf-8"?>
<!-- Generator: Adobe Illustrator 16.0.0, SVG Export Plug-In . SVG Version: 6.00 Build 0)  -->
<!DOCTYPE svg PUBLIC "-//W3C//DTD SVG 1.1//EN" "http://www.w3.org/Graphics/SVG/1.1/DTD/svg11.dtd">
<svg version="1.1" id="Layer_1" xmlns="http://www.w3.org/2000/svg" xmlns:xlink="http://www.w3.org/1999/xlink" x="0px" y="0px"
	 width="87.918px" height="113px" viewBox="0 0 87.918 113" enable-background="new 0 0 87.918 113" xml:space="preserve">
<g>
	<path fill="#702B70" d="M43.959,23.646c-14.976,0-27.115,12.14-27.115,27.115c0,14.976,12.14,27.114,27.115,27.114
		c14.975,0,27.115-12.141,27.115-27.114C71.075,35.786,58.936,23.646,43.959,23.646z M52.518,40.005
		c2.856,0,2.949,3.259,2.949,3.259v10.025h-5.875L49.59,43.265C49.59,43.265,49.66,40.005,52.518,40.005z M32.269,43.294
		c0,0,0.071-3.26,2.927-3.26s2.949,3.259,2.949,3.259v10.025h-5.876V43.294z M44.021,72.176c-7.524,0-13.672-6.836-14.053-15.433
		c-0.013-0.28,28.12-0.234,28.104,0.074C57.661,65.38,51.527,72.176,44.021,72.176z"/>
	<path fill="#702B70" d="M43.898,19.546c1.356,0,2.456-0.773,2.456-1.729V10.25c0-0.955-1.1-1.729-2.456-1.729
		s-2.456,0.773-2.456,1.729v7.568C41.443,18.771,42.542,19.546,43.898,19.546z"/>
	<path fill="#702B70" d="M32.084,20.866c0.312,0.902,1.604,1.277,2.885,0.836c1.282-0.441,2.07-1.53,1.759-2.435l-2.463-7.155
		c-0.31-0.902-1.603-1.277-2.884-0.836c-1.282,0.441-2.071,1.531-1.76,2.435L32.084,20.866z"/>
	<path fill="#702B70" d="M24.223,26.536c0.587,0.752,1.93,0.688,3-0.144c1.07-0.833,1.464-2.118,0.877-2.873l-4.647-5.973
		c-0.584-0.753-1.929-0.689-2.999,0.143c-1.07,0.833-1.464,2.119-0.878,2.873L24.223,26.536z"/>
	<path fill="#702B70" d="M53.232,21.426c1.281,0.441,2.572,0.069,2.886-0.834l2.464-7.154c0.312-0.903-0.477-1.993-1.758-2.434
		c-1.282-0.442-2.575-0.069-2.889,0.834l-2.465,7.155C51.163,19.895,51.95,20.984,53.232,21.426z"/>
	<path fill="#702B70" d="M60.986,26.011c1.066,0.834,2.41,0.904,3,0.151l4.662-5.96c0.588-0.752,0.197-2.04-0.869-2.874
		c-1.067-0.836-2.411-0.905-3.002-0.153l-4.662,5.96C59.529,23.888,59.919,25.175,60.986,26.011z"/>
</g>
<rect x="0.029" y="78" fill="none" width="87.889" height="35"/>
<text transform="matrix(1 0 0 1 25.0913 93.668)" fill="#702B70" font-family="'Lato'" font-size="11">Excited</text>
</svg>
