<?xml version="1.0" encoding="utf-8"?>
<!-- Generator: Adobe Illustrator 16.0.0, SVG Export Plug-In . SVG Version: 6.00 Build 0)  -->
<!DOCTYPE svg PUBLIC "-//W3C//DTD SVG 1.1//EN" "http://www.w3.org/Graphics/SVG/1.1/DTD/svg11.dtd">
<svg version="1.1" id="Layer_1" xmlns="http://www.w3.org/2000/svg" xmlns:xlink="http://www.w3.org/1999/xlink" x="0px" y="0px"
	 width="158px" height="69.587px" viewBox="0 0 158 69.587" enable-background="new 0 0 158 69.587" xml:space="preserve">
<g>
	<g>
		<path fill="#261F21" d="M89.729,15.022c0-0.828,0.641-1.473,1.471-1.473h9.678c0.732,0,1.326,0.595,1.326,1.328
			c0,0.736-0.594,1.327-1.326,1.327h-8.23v4.531h7.164c0.734,0,1.328,0.592,1.328,1.328c0,0.732-0.594,1.328-1.328,1.328h-7.164
			v5.43c0,0.807-0.639,1.447-1.445,1.447c-0.83,0-1.471-0.643-1.471-1.447L89.729,15.022L89.729,15.022z"/>
		<path fill="#261F21" d="M110.696,25.646v-0.854c-0.732-0.287-1.707-0.5-2.846-0.5c-1.85,0-2.941,0.783-2.941,2.086v0.049
			c0,1.209,1.068,1.898,2.445,1.898C109.25,28.328,110.696,27.236,110.696,25.646 M102.112,26.547V26.5
			c0-2.705,2.111-4.033,5.168-4.033c1.4,0,2.396,0.215,3.369,0.523V22.68c0-1.775-1.092-2.727-3.104-2.727
			c-1.094,0-1.994,0.188-2.775,0.498c-0.166,0.047-0.309,0.068-0.451,0.068c-0.664,0-1.209-0.52-1.209-1.186
			c0-0.521,0.355-0.971,0.783-1.141c1.186-0.449,2.395-0.733,4.031-0.733c1.873,0,3.27,0.499,4.148,1.399
			c0.928,0.898,1.354,2.229,1.354,3.865v6.166c0,0.781-0.617,1.375-1.4,1.375c-0.83,0-1.398-0.568-1.398-1.211v-0.473
			c-0.854,1.02-2.154,1.826-4.076,1.826C104.198,30.414,102.112,29.061,102.112,26.547"/>
		<path fill="#261F21" d="M114.756,23.963v-0.049c0-3.555,2.75-6.545,6.52-6.545c1.969,0,3.322,0.641,4.389,1.564
			c0.189,0.166,0.451,0.521,0.451,0.994c0,0.734-0.594,1.307-1.33,1.307c-0.354,0-0.662-0.143-0.854-0.285
			c-0.734-0.615-1.541-1.064-2.68-1.064c-2.086,0-3.627,1.803-3.627,3.982v0.047c0,2.23,1.541,4.008,3.746,4.008
			c1.139,0,2.016-0.449,2.799-1.111c0.166-0.145,0.451-0.311,0.781-0.311c0.688,0,1.232,0.57,1.232,1.258
			c0,0.379-0.141,0.688-0.402,0.9c-1.113,1.066-2.465,1.777-4.555,1.777C117.506,30.436,114.756,27.52,114.756,23.963"/>
		<path fill="#261F21" d="M135.792,23.014c-0.189-1.85-1.281-3.299-3.178-3.299c-1.754,0-2.988,1.354-3.25,3.299H135.792z
			 M132.946,30.436c-3.629,0-6.428-2.633-6.428-6.496v-0.051c0-3.578,2.537-6.52,6.119-6.52c3.984,0,5.953,3.271,5.953,6.166
			c0,0.807-0.617,1.377-1.352,1.377h-7.854c0.312,2.037,1.758,3.176,3.605,3.176c1.207,0,2.156-0.426,2.963-1.09
			c0.215-0.166,0.404-0.262,0.736-0.262c0.639,0,1.137,0.498,1.137,1.162c0,0.354-0.166,0.664-0.379,0.877
			C136.315,29.797,134.889,30.436,132.946,30.436"/>
		<path fill="#261F21" d="M140.704,26.691v-6.596h-0.477c-0.688,0-1.23-0.545-1.23-1.232s0.545-1.233,1.23-1.233h0.477v-2.133
			c0-0.782,0.641-1.423,1.443-1.423c0.783,0,1.426,0.641,1.426,1.423v2.133h2.254c0.686,0,1.256,0.548,1.256,1.233
			c0,0.688-0.57,1.232-1.256,1.232h-2.254v6.145c0,1.113,0.566,1.562,1.541,1.562c0.334,0,0.615-0.068,0.713-0.068
			c0.639,0,1.209,0.52,1.209,1.186c0,0.521-0.355,0.947-0.758,1.115c-0.617,0.211-1.211,0.33-1.973,0.33
			C142.198,30.365,140.704,29.441,140.704,26.691"/>
		<path fill="#261F21" d="M147.961,28.896c-0.309-0.168-0.545-0.521-0.545-0.996c0-0.643,0.498-1.164,1.162-1.164
			c0.238,0,0.451,0.074,0.617,0.17c1.209,0.803,2.465,1.207,3.604,1.207c1.234,0,1.945-0.523,1.945-1.354v-0.047
			c0-0.971-1.328-1.305-2.799-1.756c-1.852-0.52-3.912-1.279-3.912-3.676v-0.047c0-2.371,1.967-3.816,4.457-3.816
			c1.328,0,2.729,0.379,3.938,1.02c0.404,0.215,0.688,0.594,0.688,1.09c0,0.664-0.52,1.162-1.186,1.162
			c-0.236,0-0.379-0.047-0.568-0.143c-1.02-0.521-2.061-0.854-2.939-0.854c-1.115,0-1.754,0.52-1.754,1.23v0.047
			c0,0.926,1.35,1.305,2.82,1.779c1.824,0.568,3.891,1.4,3.891,3.652v0.045c0,2.635-2.041,3.938-4.646,3.938
			C151.139,30.389,149.409,29.891,147.961,28.896"/>
		<path fill="#30B7EA" d="M89.729,34.08c0-0.807,0.641-1.443,1.471-1.443c0.809,0,1.445,0.639,1.445,1.443v7.019l7.875-7.919
			c0.332-0.354,0.688-0.543,1.209-0.543c0.807,0,1.352,0.639,1.352,1.35c0,0.453-0.188,0.783-0.52,1.094l-5.17,4.976l5.598,6.951
			c0.236,0.311,0.402,0.594,0.402,1.043c0,0.811-0.639,1.422-1.471,1.422c-0.568,0-0.928-0.281-1.232-0.688l-5.336-6.807
			l-2.705,2.609v3.438c0,0.809-0.639,1.447-1.445,1.447c-0.83,0-1.471-0.641-1.471-1.447L89.729,34.08L89.729,34.08z"/>
		<path fill="#30B7EA" d="M105.053,38.136c0-0.808,0.615-1.444,1.422-1.444c0.805,0,1.447,0.639,1.447,1.444v9.912
			c0,0.809-0.643,1.422-1.447,1.422c-0.783,0-1.422-0.613-1.422-1.422V38.136z M104.838,33.465c0-0.854,0.713-1.396,1.637-1.396
			s1.637,0.545,1.637,1.396v0.143c0,0.854-0.713,1.424-1.637,1.424s-1.637-0.57-1.637-1.424V33.465z"/>
		<path fill="#30B7EA" d="M112.5,43.069v0.047c0,2.42,1.66,4.008,3.604,4.008c1.922,0,3.627-1.613,3.627-4.008v-0.047
			c0-2.42-1.705-4.012-3.627-4.012C114.137,39.06,112.5,40.579,112.5,43.069 M122.557,48.048c0,0.809-0.643,1.424-1.424,1.424
			c-0.809,0-1.447-0.615-1.447-1.424v-0.783c-0.924,1.307-2.23,2.35-4.27,2.35c-2.939,0-5.812-2.35-5.812-6.498v-0.047
			c0-4.152,2.822-6.497,5.812-6.497c2.064,0,3.369,1.018,4.27,2.204v-5.431c0-0.807,0.639-1.424,1.422-1.424
			c0.807,0,1.449,0.617,1.449,1.424V48.048z"/>
		<path fill="#30B7EA" d="M124.264,48.097c-0.309-0.168-0.545-0.523-0.545-0.996c0-0.643,0.498-1.162,1.162-1.162
			c0.236,0,0.449,0.07,0.615,0.168c1.211,0.803,2.469,1.207,3.605,1.207c1.229,0,1.943-0.523,1.943-1.354v-0.045
			c0-0.973-1.328-1.307-2.801-1.756c-1.85-0.521-3.91-1.279-3.91-3.676v-0.051c0-2.37,1.969-3.813,4.455-3.813
			c1.33,0,2.73,0.381,3.939,1.02c0.402,0.217,0.688,0.595,0.688,1.091c0,0.664-0.521,1.162-1.188,1.162
			c-0.234,0-0.379-0.049-0.566-0.143c-1.021-0.521-2.064-0.855-2.941-0.855c-1.115,0-1.754,0.521-1.754,1.23v0.047
			c0,0.928,1.352,1.307,2.82,1.779c1.826,0.57,3.891,1.4,3.891,3.654v0.047c0,2.635-2.039,3.938-4.648,3.938
			C127.442,49.591,125.709,49.091,124.264,48.097"/>
	</g>
	<g>
		<polygon fill="#712C72" points="18.574,0.952 6.205,22.986 36.378,69.048 81.545,30.266 		"/>
		<polygon fill="#EA2C2D" points="81.545,30.266 73.889,6.264 18.574,0.952 		"/>
		<polygon fill="#F9CB1C" points="36.378,69.048 74.472,54.481 81.545,30.268 		"/>
		<polygon fill="#30B7EA" points="0.621,49.339 36.378,69.048 6.205,22.986 		"/>
	</g>
	<text transform="matrix(1 0 0 1 89.6606 60.6328)" fill="#E95562" font-family="'Lato'" font-size="11">Alpha Version</text>
</g>
</svg>
