<?xml version="1.0" encoding="utf-8"?>
<!-- Generator: Adobe Illustrator 16.0.0, SVG Export Plug-In . SVG Version: 6.00 Build 0)  -->
<!DOCTYPE svg PUBLIC "-//W3C//DTD SVG 1.1//EN" "http://www.w3.org/Graphics/SVG/1.1/DTD/svg11.dtd">
<svg version="1.1" id="Layer_1" xmlns="http://www.w3.org/2000/svg" xmlns:xlink="http://www.w3.org/1999/xlink" x="0px" y="0px"
	 width="87.964px" height="113px" viewBox="0 0 87.964 113" enable-background="new 0 0 87.964 113" xml:space="preserve">
<g>
	<path d="M43.984,23.651c-14.98,0-27.124,12.143-27.124,27.124c0,14.979,12.144,27.124,27.124,27.124
		c14.98,0,27.124-12.145,27.124-27.124C71.108,35.794,58.964,23.651,43.984,23.651z M34.22,39.925c2.517,0,4.557,2.041,4.557,4.557
		c0,2.518-2.041,4.557-4.557,4.557c-2.516,0-4.557-2.04-4.557-4.557C29.663,41.966,31.703,39.925,34.22,39.925z M43.66,69.375
		c-7.456,0-13.545-5.854-13.924-13.215c-0.012-0.241,27.859-0.201,27.846,0.062C57.171,63.555,51.095,69.375,43.66,69.375z
		 M53.533,48.822c-2.517,0-4.558-2.04-4.558-4.557c0-2.516,2.041-4.557,4.558-4.557c2.516,0,4.557,2.041,4.557,4.557
		C58.089,46.783,56.048,48.822,53.533,48.822z"/>
</g>
<g>
	<path d="M25.469,89.662c0-0.537,0.351-0.898,0.898-0.898c0.547,0,0.898,0.361,0.898,0.898v2.234h3.265v-2.234
		c0-0.537,0.351-0.898,0.898-0.898c0.547,0,0.898,0.361,0.898,0.898v6.377c0,0.536-0.351,0.898-0.898,0.898
		c-0.547,0-0.898-0.362-0.898-0.898v-2.63h-3.265v2.63c0,0.536-0.351,0.898-0.898,0.898c-0.547,0-0.898-0.362-0.898-0.898
		C25.469,96.039,25.469,89.662,25.469,89.662z"/>
	<path d="M35.762,89.312c0.153-0.405,0.438-0.549,0.876-0.549h0.427c0.405,0,0.767,0.1,0.964,0.656l2.169,6.036
		c0.066,0.175,0.175,0.493,0.175,0.688c0,0.438-0.383,0.789-0.844,0.789c-0.395,0-0.679-0.144-0.811-0.494l-0.46-1.312h-2.892
		l-0.471,1.312c-0.121,0.354-0.373,0.494-0.8,0.494c-0.493,0-0.833-0.309-0.833-0.789c0-0.195,0.109-0.517,0.175-0.688
		L35.762,89.312z M36.847,90.714h-0.022l-1.062,3.167h2.104L36.847,90.714z"/>
	<path d="M41.31,89.958c0-0.8,0.417-1.052,1.052-1.052h2.75c1.513,0,2.728,0.744,2.728,2.498c0,1.436-0.996,2.498-2.738,2.498
		h-1.994v2.137c0,0.536-0.351,0.898-0.898,0.898s-0.898-0.362-0.898-0.898L41.31,89.958L41.31,89.958z M43.107,92.521h1.676
		c0.723,0,1.26-0.438,1.26-1.117c0-0.789-0.559-1.117-1.445-1.117h-1.49V92.521z"/>
	<path d="M49.027,89.958c0-0.8,0.417-1.052,1.053-1.052h2.75c1.512,0,2.728,0.744,2.728,2.498c0,1.436-0.997,2.498-2.739,2.498
		h-1.994v2.137c0,0.536-0.351,0.898-0.898,0.898c-0.547,0-0.898-0.362-0.898-0.898V89.958z M50.824,92.521H52.5
		c0.724,0,1.26-0.438,1.26-1.117c0-0.789-0.559-1.117-1.445-1.117h-1.49V92.521z"/>
	<path d="M58.367,93.716l-2.203-3.659c-0.086-0.143-0.152-0.307-0.152-0.471c0-0.613,0.559-0.822,0.908-0.822
		c0.428,0,0.625,0.176,0.812,0.525l1.565,2.882l1.557-2.882c0.208-0.395,0.404-0.525,0.777-0.525c0.33,0,0.889,0.209,0.889,0.822
		c0,0.164-0.066,0.328-0.152,0.471l-2.203,3.659v2.323c0,0.536-0.351,0.898-0.897,0.898s-0.897-0.362-0.897-0.898v-2.323H58.367z"/>
</g>
</svg>
