<?xml version="1.0" encoding="utf-8"?>
<!-- Generator: Adobe Illustrator 16.0.0, SVG Export Plug-In . SVG Version: 6.00 Build 0)  -->
<!DOCTYPE svg PUBLIC "-//W3C//DTD SVG 1.1//EN" "http://www.w3.org/Graphics/SVG/1.1/DTD/svg11.dtd">
<svg version="1.1" id="Layer_1" xmlns="http://www.w3.org/2000/svg" xmlns:xlink="http://www.w3.org/1999/xlink" x="0px" y="0px"
	 width="40.939px" height="76.59px" viewBox="0 0 40.939 76.59" enable-background="new 0 0 40.939 76.59" xml:space="preserve">
<g>
	<path fill="#712C70" d="M20.477,16.29c-11.189,0-20.261,9.071-20.261,20.261c0,11.189,9.071,20.262,20.261,20.262
		c11.19,0,20.261-9.071,20.261-20.262C40.737,25.36,31.667,16.29,20.477,16.29z M13.184,28.446c1.879,0,3.403,1.524,3.403,3.404
		c0,1.881-1.524,3.404-3.403,3.404c-1.88,0-3.405-1.523-3.405-3.404C9.779,29.971,11.303,28.446,13.184,28.446z M20.235,50.443
		c-5.569,0-10.117-4.371-10.4-9.87c-0.009-0.181,20.811-0.15,20.801,0.047C30.328,46.098,25.789,50.443,20.235,50.443z
		 M27.61,35.092c-1.881,0-3.404-1.523-3.404-3.403s1.523-3.405,3.404-3.405c1.879,0,3.403,1.525,3.403,3.405
		C31.014,33.569,29.489,35.092,27.61,35.092z"/>
</g>
<text transform="matrix(1 0 0 1 3.6829 71.1699)" fill="#712C70" font-family="'Lato'" font-size="11">Happy</text>
</svg>
