<?xml version="1.0" encoding="utf-8"?>
<!-- Generator: Adobe Illustrator 16.0.0, SVG Export Plug-In . SVG Version: 6.00 Build 0)  -->
<!DOCTYPE svg PUBLIC "-//W3C//DTD SVG 1.1//EN" "http://www.w3.org/Graphics/SVG/1.1/DTD/svg11.dtd">
<svg version="1.1" id="Layer_1" xmlns="http://www.w3.org/2000/svg" xmlns:xlink="http://www.w3.org/1999/xlink" x="0px" y="0px"
	 width="87.964px" height="113px" viewBox="0 0 87.964 113" enable-background="new 0 0 87.964 113" xml:space="preserve">
<g>
	<path d="M43.984,23.651c-14.98,0-27.124,12.143-27.124,27.124c0,14.979,12.144,27.124,27.124,27.124
		c14.98,0,27.124-12.145,27.124-27.124C71.108,35.794,58.964,23.651,43.984,23.651z M34.22,39.925c2.517,0,4.557,2.041,4.557,4.557
		c0,2.518-2.041,4.557-4.557,4.557c-2.516,0-4.557-2.04-4.557-4.557C29.663,41.966,31.703,39.925,34.22,39.925z M43.66,69.375
		c-7.456,0-13.545-5.854-13.924-13.215c-0.012-0.241,27.859-0.201,27.846,0.062C57.171,63.555,51.095,69.375,43.66,69.375z
		 M53.533,48.822c-2.517,0-4.558-2.04-4.558-4.557c0-2.516,2.041-4.557,4.558-4.557c2.516,0,4.557,2.041,4.557,4.557
		C58.089,46.783,56.048,48.822,53.533,48.822z"/>
</g>
</svg>
