<?xml version="1.0" encoding="utf-8"?>
<!-- Generator: Adobe Illustrator 16.0.0, SVG Export Plug-In . SVG Version: 6.00 Build 0)  -->
<!DOCTYPE svg PUBLIC "-//W3C//DTD SVG 1.1//EN" "http://www.w3.org/Graphics/SVG/1.1/DTD/svg11.dtd">
<svg version="1.1" id="Layer_1" xmlns="http://www.w3.org/2000/svg" xmlns:xlink="http://www.w3.org/1999/xlink" x="0px" y="0px"
	 width="87.973px" height="100px" viewBox="0 0 87.973 100" enable-background="new 0 0 87.973 100" xml:space="preserve">
<g>
	<g>
		<path d="M43.987,23.651c-14.979,0-27.125,12.145-27.125,27.125S29.007,77.9,43.987,77.9c14.981,0,27.125-12.146,27.125-27.125
			S58.968,23.651,43.987,23.651z M53.429,27.115l8.802,8.604l-1.395,1.636l-8.805-8.604L53.429,27.115z M52.668,34.421
			c0,0,2.169,0.473,4.002,1.771c1.857,1.324,3.821,4.842,3.821,4.842s-2.562-2.745-5.097-3.824
			c-2.519-1.073-5.196-1.266-5.196-1.266L52.668,34.421z M38.335,35.943c0,0-2.681,0.193-5.196,1.266
			c-2.534,1.079-5.096,3.824-5.096,3.824s1.962-3.518,3.82-4.842c1.831-1.299,4.002-1.771,4.002-1.771L38.335,35.943z
			 M33.865,27.621l1.397,1.636l-8.803,8.604l-1.396-1.635L33.865,27.621z M44.797,67.426c-13.713,0-18.979-8.639-19.507-18.952
			c-0.013-0.167,9.438-4.101,19.105-4.085c9.844,0.017,19.91,3.987,19.9,4.17C63.725,58.834,58.563,67.426,44.797,67.426z"/>
	</g>
</g>
</svg>
