<?xml version="1.0" encoding="utf-8"?>
<!-- Generator: Adobe Illustrator 16.0.0, SVG Export Plug-In . SVG Version: 6.00 Build 0)  -->
<!DOCTYPE svg PUBLIC "-//W3C//DTD SVG 1.1//EN" "http://www.w3.org/Graphics/SVG/1.1/DTD/svg11.dtd">
<svg version="1.1" id="Layer_1" xmlns="http://www.w3.org/2000/svg" xmlns:xlink="http://www.w3.org/1999/xlink" x="0px" y="0px"
	 width="40.94px" height="76.59px" viewBox="0 0 40.94 76.59" enable-background="new 0 0 40.94 76.59" xml:space="preserve">
<g>
	<g>
		<path fill="#712C70" d="M20.489,16.276c-11.189,0-20.263,9.072-20.263,20.262C0.227,47.729,9.3,56.8,20.489,56.8
			c11.191,0,20.263-9.073,20.263-20.262C40.752,25.348,31.681,16.276,20.489,16.276z M27.543,18.863l6.574,6.427l-1.041,1.222
			l-6.578-6.427L27.543,18.863z M26.975,24.321c0,0,1.62,0.354,2.989,1.323c1.386,0.989,2.854,3.617,2.854,3.617
			s-1.914-2.05-3.809-2.856c-1.881-0.802-3.881-0.946-3.881-0.946L26.975,24.321z M16.268,25.458c0,0-2.004,0.145-3.881,0.946
			c-1.893,0.807-3.808,2.857-3.808,2.857s1.466-2.628,2.853-3.617c1.368-0.97,2.99-1.323,2.99-1.323L16.268,25.458z M12.93,19.241
			l1.041,1.222L7.396,26.89l-1.045-1.221L12.93,19.241z M21.095,48.975c-10.243,0-14.177-6.453-14.572-14.156
			c-0.011-0.125,7.051-3.064,14.271-3.052c7.354,0.013,14.873,2.978,14.866,3.115C35.234,42.557,31.378,48.975,21.095,48.975z"/>
	</g>
</g>
<text transform="matrix(1 0 0 1 5.3862 71.1738)" fill="#712C70" font-family="'Lato'" font-size="11">Laugh</text>
</svg>
