<?xml version="1.0" encoding="utf-8"?>
<!-- Generator: Adobe Illustrator 16.0.0, SVG Export Plug-In . SVG Version: 6.00 Build 0)  -->
<!DOCTYPE svg PUBLIC "-//W3C//DTD SVG 1.1//EN" "http://www.w3.org/Graphics/SVG/1.1/DTD/svg11.dtd">
<svg version="1.1" id="Layer_1" xmlns="http://www.w3.org/2000/svg" xmlns:xlink="http://www.w3.org/1999/xlink" x="0px" y="0px"
	 width="87.949px" height="100px" viewBox="0 0 87.949 100" enable-background="new 0 0 87.949 100" xml:space="preserve">
<g>
	<path d="M43.974,23.651c-14.975,0-27.115,12.14-27.115,27.115S29,77.879,43.974,77.879S71.089,65.74,71.089,50.766
		S58.948,23.651,43.974,23.651z M50.132,32.842l6.634,4.486l-1.269,1.876l-6.634-4.488L50.132,32.842z M47.097,43.802
		c0,0,0.27-4.75,3.359-4.687c6.432,0.132,3.873,12.512,3.873,12.512v0.02l-7.705-2.29L47.097,43.802z M39.472,43.748l0.472,5.556
		l-7.703,2.29v-0.02c0,0-2.559-12.38,3.872-12.512C39.203,38.998,39.472,43.748,39.472,43.748z M36.368,32.838l1.269,1.875
		L31.005,39.2l-1.27-1.876L36.368,32.838z M43.759,72.617c-8.315,0-15.057-4.521-15.057-10.1c0-5.578,6.741-10.101,15.057-10.101
		s15.057,4.521,15.057,10.101C58.817,68.096,52.076,72.617,43.759,72.617z"/>
</g>
</svg>
