<?xml version="1.0" encoding="utf-8"?>
<!-- Generator: Adobe Illustrator 16.0.0, SVG Export Plug-In . SVG Version: 6.00 Build 0)  -->
<!DOCTYPE svg PUBLIC "-//W3C//DTD SVG 1.1//EN" "http://www.w3.org/Graphics/SVG/1.1/DTD/svg11.dtd">
<svg version="1.1" id="Layer_1" xmlns="http://www.w3.org/2000/svg" xmlns:xlink="http://www.w3.org/1999/xlink" x="0px" y="0px"
	 width="40.94px" height="76.59px" viewBox="0 0 40.94 76.59" enable-background="new 0 0 40.94 76.59" xml:space="preserve">
<g>
	<path fill="#712C70" d="M20.477,16.303c-11.187,0-20.256,9.068-20.256,20.254c0,11.187,9.07,20.254,20.256,20.254
		S40.73,47.743,40.73,36.557C40.73,25.372,31.662,16.303,20.477,16.303z M25.076,23.168l4.956,3.352l-0.948,1.401l-4.955-3.353
		L25.076,23.168z M22.809,31.355c0,0,0.203-3.548,2.51-3.501c4.805,0.099,2.893,9.346,2.893,9.346v0.015l-5.755-1.71L22.809,31.355z
		 M17.113,31.315l0.352,4.151l-5.752,1.71v-0.015c0,0-1.913-9.248,2.891-9.347C16.912,27.767,17.113,31.315,17.113,31.315z
		 M14.795,23.165l0.947,1.4l-4.953,3.352L9.84,26.516L14.795,23.165z M20.316,52.88c-6.212,0-11.248-3.377-11.248-7.544
		c0-4.169,5.036-7.547,11.248-7.547c6.211,0,11.246,3.377,11.246,7.547C31.562,49.503,26.529,52.88,20.316,52.88z"/>
</g>
<text transform="matrix(1 0 0 1 3.6206 71.1621)" fill="#712C70" font-family="'Lato'" font-size="11">Scared</text>
</svg>
