<?xml version="1.0" encoding="utf-8"?>
<!-- Generator: Adobe Illustrator 16.0.0, SVG Export Plug-In . SVG Version: 6.00 Build 0)  -->
<!DOCTYPE svg PUBLIC "-//W3C//DTD SVG 1.1//EN" "http://www.w3.org/Graphics/SVG/1.1/DTD/svg11.dtd">
<svg version="1.1" id="Layer_1" xmlns="http://www.w3.org/2000/svg" xmlns:xlink="http://www.w3.org/1999/xlink" x="0px" y="0px"
	 width="44.625px" height="76.59px" viewBox="0 0 44.625 76.59" enable-background="new 0 0 44.625 76.59" xml:space="preserve">
<g>
	<g>
		<path fill="#712C70" d="M33.727,23.615h-1.206c0.311,0.38,0.508,0.858,0.508,1.386c0,1.212-0.984,2.197-2.195,2.197
			c-0.403,0-0.773-0.117-1.098-0.305c0,0.014,0.004,0.029,0.004,0.043c0,0.948-0.773,1.721-1.726,1.721
			c-0.95,0-1.722-0.772-1.722-1.721c0-0.95,0.771-1.722,1.722-1.722c0.233,0,0.451,0.046,0.653,0.129
			c-0.018-0.113-0.035-0.227-0.035-0.345c0-0.617,0.26-1.174,0.67-1.573c-0.811-0.305-1.507-0.97-1.941-1.903
			c-2.314-0.389-4.027-2.491-4.062-5.025c-0.809-0.098-1.63-0.156-2.465-0.156C9.659,16.343,0.6,25.404,0.6,36.578
			c0,5.299,2.038,10.119,5.371,13.728c0.036-0.025,0.074-0.053,0.109-0.074l0.07-0.039c0.021-0.01,2.131-0.936,3.165-1.857
			c0.903-0.805,2.816-3.223,3.536-4.133c0.151-0.193,0.265-0.337,0.326-0.408c0.362-0.446,1.24-0.924,2.304-0.924
			c0.72,0,1.423,0.213,2.095,0.635c0.088,0.054,0.169,0.111,0.246,0.166c0.477-1.185,1.633-2.024,2.989-2.024
			c1.778,0,3.221,1.445,3.221,3.221c0,1.778-1.444,3.222-3.221,3.222c-0.683,0-1.315-0.214-1.837-0.576
			c-0.384,0.961-1.311,2.6-1.354,2.676c-0.131,0.229-0.254,0.514-0.298,0.688c0.083,0.045,0.188,0.098,0.276,0.141
			c0.733,0.367,1.968,0.98,2.174,2.168c0.078,0.449,0,1.192-0.098,1.977l-0.033,0.288c-0.012,0.092,0.061,0.326,0.109,0.406
			c0.06,0.09,0.253,0.487,0.463,0.942c0.205,0.007,0.413,0.017,0.621,0.017c11.175,0,20.233-9.058,20.233-20.232
			c0-5.307-2.044-10.131-5.384-13.739C35.115,23.339,34.435,23.615,33.727,23.615z M6.432,28.987l8.542-6.387l1.58,2.117
			l-8.54,6.387L6.432,28.987z M8.138,36.279l1.523-4.658h7.828l1.678,4.658H8.138z M22.561,36.271l1.677-4.658h7.83l1.523,4.658
			H22.561z"/>
		<path fill="#712C70" d="M18.438,55.313l0.036-0.3c0.052-0.424,0.16-1.312,0.108-1.621c-0.104-0.583-0.955-1.011-1.523-1.292
			c-0.38-0.189-0.632-0.315-0.789-0.525c-0.396-0.528-0.055-1.373,0.302-1.984c0.299-0.535,1.137-2.07,1.351-2.715
			c0.047-0.131,0.083-0.259,0.109-0.389c0.101-0.463,0.062-0.931-0.43-1.432c-0.17-0.171-0.384-0.344-0.669-0.522
			c-0.474-0.296-0.957-0.448-1.448-0.448c-0.741,0-1.26,0.352-1.364,0.479c-0.057,0.069-0.166,0.208-0.313,0.394
			c-0.807,1.019-2.697,3.407-3.681,4.284c-0.979,0.871-2.657,1.686-3.263,1.963c-0.077,0.039-0.141,0.068-0.179,0.084
			c-0.058,0.039-0.134,0.104-0.197,0.164c-0.168,0.494-0.368,1.123-0.674,2.129c-0.182,0.622,0.132,1.74,1.516,2.923
			c0.174,0.147,0.333,0.294,0.483,0.438c1.084,1.042,1.643,1.965,2.763,2.429c0.81,0.312,2.164,0.571,2.983,0.698
			c0.146,0.021,0.295,0.033,0.431,0.033c0.434,0,0.704-0.107,0.794-0.145c2.263-1.227,3.276-1.765,3.815-2.29
			c0,0,0.346-0.347,0.471-0.724c0.062-0.184,0.075-0.375-0.039-0.537C18.733,55.983,18.389,55.759,18.438,55.313z"/>
		<circle fill="#712C70" cx="28.013" cy="26.937" r="0.954"/>
		<circle fill="#712C70" cx="30.829" cy="25.001" r="1.376"/>
		<path fill="#712C70" d="M41.516,12.788l-0.323-0.078l-0.047-0.329c-0.354-2.392-2.439-4.195-4.854-4.195h-4.28
			c-2.32,0-4.345,1.647-4.812,3.917l-0.052,0.268l-0.262,0.094c-1.558,0.578-2.601,2.167-2.601,3.954c0,0.076,0.007,0.15,0.01,0.225
			c0.102,2.066,1.553,3.74,3.463,3.938l0.297,0.031l0.109,0.28c0.42,1.072,1.238,1.736,2.133,1.736h3.432
			c0.456,0,0.891-0.175,1.27-0.496c0.172-0.148,0.338-0.325,0.483-0.533l0.146-0.21h2.856c1.061,0,2.008-0.733,2.412-1.868
			l0.097-0.274l0.29-0.047c1.586-0.264,2.738-1.622,2.738-3.231C44.019,14.455,42.989,13.147,41.516,12.788z"/>
	</g>
	<text transform="matrix(1 0 0 1 6.0386 71.1621)" fill="#712C70" font-family="'Lato'" font-size="11">Think</text>
	<rect x="0.378" fill="none" width="40.936" height="76.586"/>
</g>
</svg>
