<?xml version="1.0" encoding="utf-8"?>
<!-- Generator: Adobe Illustrator 16.0.0, SVG Export Plug-In . SVG Version: 6.00 Build 0)  -->
<!DOCTYPE svg PUBLIC "-//W3C//DTD SVG 1.1//EN" "http://www.w3.org/Graphics/SVG/1.1/DTD/svg11.dtd">
<svg version="1.1" id="Layer_1" xmlns="http://www.w3.org/2000/svg" xmlns:xlink="http://www.w3.org/1999/xlink" x="0px" y="0px"
	 width="87.889px" height="113px" viewBox="0 0 87.889 113" enable-background="new 0 0 87.889 113" xml:space="preserve">
<g>
	<path d="M27.051,90.402h-1.698c-0.515,0-0.932-0.262-0.932-0.756c0-0.492,0.417-0.756,0.932-0.756h5.193
		c0.515,0,0.931,0.264,0.931,0.756c0,0.494-0.416,0.756-0.931,0.756h-1.698v5.621c0,0.537-0.354,0.897-0.898,0.897
		s-0.896-0.36-0.896-0.897L27.051,90.402L27.051,90.402z"/>
	<path d="M32.446,89.646c0-0.535,0.354-0.896,0.898-0.896s0.896,0.361,0.896,0.896v2.234h3.268v-2.234
		c0-0.535,0.351-0.896,0.896-0.896s0.898,0.361,0.898,0.896v6.377c0,0.537-0.354,0.897-0.898,0.897s-0.896-0.36-0.896-0.897v-2.629
		H34.24v2.629c0,0.537-0.351,0.897-0.896,0.897s-0.898-0.36-0.898-0.897V89.646z"/>
	<path d="M40.974,89.646c0-0.535,0.351-0.896,0.896-0.896s0.898,0.361,0.898,0.896v6.377c0,0.537-0.354,0.897-0.898,0.897
		s-0.896-0.36-0.896-0.897V89.646z"/>
	<path d="M44.406,89.801c0-0.744,0.361-1.053,1.129-1.053c0.372,0,0.701,0.143,0.898,0.472l3.144,5.073h0.022v-4.68
		c0-0.58,0.328-0.865,0.865-0.865c0.534,0,0.862,0.285,0.862,0.865v6.188c0,0.712-0.307,1.117-1.062,1.117
		c-0.569,0-0.756-0.121-0.985-0.481l-3.123-4.931h-0.021v4.548c0,0.579-0.329,0.864-0.866,0.864c-0.536,0-0.865-0.285-0.865-0.864
		L44.406,89.801L44.406,89.801z"/>
	<path d="M52.967,89.646c0-0.535,0.351-0.896,0.896-0.896s0.898,0.361,0.898,0.896v2.606l2.826-3.11
		c0.208-0.22,0.395-0.396,0.712-0.396c0.428,0,0.854,0.264,0.854,0.724c0,0.274-0.142,0.461-0.295,0.614l-1.841,1.938l2.18,3.318
		c0.165,0.252,0.34,0.481,0.34,0.713c0,0.668-0.49,0.865-0.92,0.865c-0.358,0-0.559-0.088-0.8-0.472l-2.071-3.198l-0.982,0.984
		v1.785c0,0.537-0.354,0.897-0.898,0.897s-0.896-0.36-0.896-0.897L52.967,89.646L52.967,89.646z"/>
</g>
<g>
	<path d="M59.228,33.386h-1.614c0.415,0.508,0.678,1.148,0.678,1.854c0,1.623-1.318,2.942-2.939,2.942
		c-0.539,0-1.035-0.156-1.47-0.409c0,0.02,0.006,0.039,0.006,0.059c0,1.27-1.034,2.304-2.31,2.304c-1.27,0-2.303-1.034-2.303-2.304
		c0-1.271,1.033-2.305,2.303-2.305c0.312,0,0.604,0.062,0.875,0.173c-0.023-0.151-0.047-0.303-0.047-0.461
		c0-0.826,0.348-1.571,0.896-2.106c-1.084-0.408-2.017-1.299-2.599-2.548c-3.097-0.52-5.39-3.335-5.437-6.727
		c-1.084-0.131-2.184-0.208-3.301-0.208c-14.958,0-27.086,12.129-27.086,27.088c0,7.094,2.729,13.547,7.191,18.377
		c0.047-0.035,0.098-0.07,0.145-0.1l0.095-0.052c0.029-0.012,2.851-1.252,4.237-2.487c1.209-1.078,3.771-4.314,4.733-5.531
		c0.205-0.26,0.356-0.451,0.438-0.547c0.484-0.597,1.66-1.236,3.083-1.236c0.964,0,1.904,0.285,2.805,0.85
		c0.117,0.072,0.224,0.148,0.329,0.223c0.637-1.586,2.185-2.711,4.002-2.711c2.38,0,4.312,1.933,4.312,4.312
		s-1.934,4.312-4.312,4.312c-0.915,0-1.761-0.287-2.459-0.771c-0.515,1.285-1.755,3.48-1.812,3.582
		c-0.176,0.305-0.34,0.686-0.399,0.918c0.111,0.062,0.253,0.133,0.37,0.189c0.982,0.492,2.634,1.312,2.91,2.903
		c0.104,0.601-0.001,1.595-0.131,2.646L40.372,76c-0.014,0.123,0.081,0.438,0.146,0.545c0.081,0.119,0.34,0.65,0.621,1.262
		c0.273,0.008,0.553,0.021,0.831,0.021c14.96,0,27.087-12.125,27.087-27.085c0-7.102-2.735-13.562-7.207-18.392
		C61.087,33.015,60.176,33.386,59.228,33.386z M22.687,40.576l11.434-8.551l2.117,2.834l-11.433,8.55L22.687,40.576z M24.972,50.337
		l2.039-6.236H37.49l2.247,6.236H24.972z M44.28,50.328l2.246-6.236h10.481l2.039,6.236H44.28z"/>
	<path d="M39.288,77.691c-0.062-0.133-0.117-0.242-0.143-0.283c-0.185-0.275-0.45-0.994-0.386-1.588l0.049-0.402
		c0.069-0.568,0.215-1.756,0.144-2.17c-0.138-0.781-1.278-1.354-2.039-1.73c-0.508-0.254-0.845-0.422-1.056-0.703
		c-0.532-0.707-0.074-1.838,0.404-2.659c0.4-0.714,1.521-2.771,1.809-3.632c0.061-0.174,0.11-0.346,0.146-0.521
		c0.135-0.619,0.082-1.246-0.575-1.916c-0.228-0.228-0.514-0.461-0.896-0.698c-0.633-0.398-1.282-0.603-1.938-0.603
		c-0.993,0-1.688,0.471-1.827,0.644c-0.075,0.092-0.222,0.276-0.419,0.524c-1.08,1.364-3.613,4.562-4.928,5.735
		c-1.31,1.166-3.557,2.256-4.367,2.629c-0.106,0.052-0.19,0.089-0.24,0.111c-0.078,0.053-0.179,0.139-0.264,0.221
		c-0.225,0.66-0.979,2.938-1.387,4.285c-0.245,0.832-0.203,1.354-0.151,1.597c0.707,0.461,2.825,1.873,4.679,3.454
		c1.907,1.628,3.855,3.88,4.438,4.566c0.717,0.184,2.804,0.713,3.901,0.883c0.196,0.027,0.395,0.045,0.578,0.045
		c0.58,0,0.942-0.146,1.061-0.196c1.876-1.492,4.04-3.322,4.312-3.709l0.043-0.074c0.342-0.582,0.425-0.748,0.271-1.133
		C40.245,79.729,39.589,78.309,39.288,77.691z"/>
	<circle cx="51.579" cy="37.832" r="1.277"/>
	<circle cx="55.349" cy="35.24" r="1.842"/>
	<path d="M69.656,18.891l-0.433-0.104l-0.065-0.441c-0.471-3.201-3.264-5.615-6.498-5.615h-5.728c-3.107,0-5.817,2.205-6.442,5.244
		l-0.069,0.359l-0.349,0.126c-2.085,0.774-3.482,2.901-3.482,5.293c0,0.102,0.008,0.201,0.013,0.301
		c0.135,2.766,2.077,5.006,4.635,5.271l0.398,0.042l0.146,0.375c0.563,1.435,1.659,2.325,2.854,2.325h4.594
		c0.611,0,1.193-0.234,1.701-0.665c0.229-0.198,0.451-0.434,0.646-0.713l0.198-0.281h3.823c1.421,0,2.688-0.981,3.227-2.5
		l0.131-0.367l0.387-0.063c2.125-0.353,3.667-2.171,3.667-4.325C73.006,21.122,71.628,19.371,69.656,18.891z"/>
</g>
</svg>
