<?xml version="1.0" encoding="utf-8"?>
<!-- Generator: Adobe Illustrator 16.0.0, SVG Export Plug-In . SVG Version: 6.00 Build 0)  -->
<!DOCTYPE svg PUBLIC "-//W3C//DTD SVG 1.1//EN" "http://www.w3.org/Graphics/SVG/1.1/DTD/svg11.dtd">
<svg version="1.1" id="Layer_1" xmlns="http://www.w3.org/2000/svg" xmlns:xlink="http://www.w3.org/1999/xlink" x="0px" y="0px"
	 width="87.889px" height="113px" viewBox="0 0 87.889 113" enable-background="new 0 0 87.889 113" xml:space="preserve">
<g>
	<path fill="#702B70" d="M59.228,33.386h-1.614c0.415,0.508,0.679,1.148,0.679,1.854c0,1.623-1.318,2.942-2.939,2.942
		c-0.539,0-1.035-0.156-1.47-0.409c0,0.02,0.006,0.039,0.006,0.059c0,1.27-1.034,2.304-2.31,2.304c-1.271,0-2.304-1.034-2.304-2.304
		c0-1.271,1.033-2.305,2.304-2.305c0.312,0,0.604,0.062,0.875,0.173c-0.023-0.151-0.047-0.303-0.047-0.461
		c0-0.826,0.348-1.571,0.896-2.106c-1.084-0.408-2.017-1.299-2.599-2.548c-3.098-0.52-5.391-3.335-5.438-6.727
		c-1.084-0.131-2.184-0.208-3.301-0.208c-14.958,0-27.086,12.129-27.086,27.088c0,7.094,2.729,13.547,7.19,18.377
		c0.048-0.035,0.099-0.07,0.146-0.1l0.095-0.053c0.029-0.012,2.852-1.252,4.237-2.486c1.209-1.078,3.771-4.314,4.733-5.531
		c0.204-0.26,0.355-0.451,0.438-0.547c0.484-0.598,1.66-1.236,3.083-1.236c0.964,0,1.904,0.285,2.805,0.85
		c0.117,0.072,0.225,0.148,0.329,0.223c0.638-1.586,2.186-2.711,4.002-2.711c2.38,0,4.312,1.934,4.312,4.312
		s-1.935,4.312-4.312,4.312c-0.915,0-1.761-0.287-2.459-0.771c-0.515,1.285-1.755,3.48-1.812,3.582
		c-0.176,0.305-0.34,0.686-0.399,0.918c0.111,0.062,0.253,0.133,0.37,0.189c0.982,0.492,2.634,1.312,2.91,2.902
		c0.104,0.602-0.001,1.596-0.131,2.646L40.372,76c-0.015,0.123,0.081,0.438,0.146,0.545c0.081,0.119,0.34,0.65,0.621,1.262
		c0.273,0.008,0.553,0.021,0.831,0.021c14.96,0,27.087-12.125,27.087-27.085c0-7.102-2.735-13.562-7.207-18.392
		C61.087,33.015,60.176,33.386,59.228,33.386z M22.687,40.576l11.435-8.551l2.116,2.834l-11.433,8.55L22.687,40.576z M24.972,50.337
		l2.039-6.236H37.49l2.246,6.236H24.972z M44.28,50.328l2.246-6.236h10.481l2.039,6.236H44.28z"/>
	<path fill="#702B70" d="M38.759,75.82l0.049-0.402c0.069-0.568,0.215-1.756,0.145-2.17c-0.139-0.781-1.278-1.354-2.039-1.73
		c-0.509-0.254-0.846-0.422-1.057-0.703c-0.531-0.707-0.073-1.838,0.404-2.658c0.4-0.715,1.521-2.771,1.809-3.633
		c0.062-0.174,0.11-0.346,0.146-0.521c0.135-0.619,0.082-1.246-0.575-1.916c-0.228-0.228-0.514-0.461-0.896-0.698
		c-0.634-0.397-1.282-0.603-1.938-0.603c-0.993,0-1.688,0.471-1.827,0.644c-0.075,0.092-0.222,0.276-0.419,0.524
		c-1.08,1.364-3.612,4.562-4.928,5.735c-1.31,1.166-3.557,2.256-4.367,2.629c-0.105,0.052-0.189,0.089-0.24,0.111
		c-0.077,0.053-0.179,0.139-0.264,0.221c-0.225,0.66-0.493,1.502-0.901,2.85c-0.245,0.832,0.175,2.33,2.028,3.912
		c0.232,0.198,0.446,0.395,0.647,0.588c1.451,1.395,2.199,2.628,3.699,3.25c1.083,0.417,2.896,0.766,3.993,0.936
		c0.195,0.026,0.395,0.045,0.577,0.045c0.58,0,0.942-0.146,1.062-0.196c3.03-1.641,4.387-2.362,5.108-3.065
		c0,0,0.463-0.464,0.631-0.969c0.083-0.246,0.1-0.502-0.053-0.719C39.156,76.716,38.695,76.414,38.759,75.82z"/>
	<circle fill="#702B70" cx="51.579" cy="37.832" r="1.277"/>
	<circle fill="#702B70" cx="55.349" cy="35.24" r="1.842"/>
	<path fill="#702B70" d="M69.656,18.891l-0.433-0.104l-0.064-0.441c-0.472-3.201-3.265-5.615-6.498-5.615h-5.729
		c-3.106,0-5.816,2.205-6.441,5.244l-0.069,0.359l-0.35,0.126c-2.085,0.774-3.481,2.901-3.481,5.293
		c0,0.102,0.008,0.201,0.013,0.301c0.135,2.766,2.077,5.006,4.635,5.271l0.398,0.042l0.146,0.375
		c0.562,1.435,1.658,2.325,2.854,2.325h4.594c0.611,0,1.193-0.234,1.701-0.665c0.229-0.198,0.451-0.434,0.646-0.713l0.197-0.281
		h3.823c1.421,0,2.688-0.981,3.228-2.5l0.131-0.367l0.387-0.063c2.125-0.353,3.667-2.171,3.667-4.325
		C73.006,21.122,71.628,19.371,69.656,18.891z"/>
</g>
<text transform="matrix(1 0 0 1 28.28 93.668)" fill="#702B70" font-family="'Lato'" font-size="11">Think</text>
</svg>
